<?xml version="1.0" encoding="UTF-8"?>
<svg id="Capa_1" xmlns="http://www.w3.org/2000/svg" version="1.1" viewBox="0 0 427.49 212.76">
  <!-- Generator: Adobe Illustrator 29.0.0, SVG Export Plug-In . SVG Version: 2.1.0 Build 186)  -->
  <defs>
    <style>
      .st0 {
        fill: #1d1d1b;
      }
    </style>
  </defs>
  <path class="st0" d="M188.47,212.76H24.28C10.89,212.76,0,201.86,0,188.47V24.28C0,10.89,10.89,0,24.28,0h164.19c13.39,0,24.28,10.89,24.28,24.28v164.19c0,13.39-10.89,24.28-24.28,24.28ZM24.28,6C14.2,6,6,14.2,6,24.28v164.19c0,10.08,8.2,18.28,18.28,18.28h164.19c10.08,0,18.28-8.2,18.28-18.28V24.28c0-10.08-8.2-18.28-18.28-18.28H24.28Z"/>
  <path class="st0" d="M82.95,53.61h50.69v10.12h-38.47v31.33h35.54v10.06h-35.54v42.59h-12.22V53.61Z"/>
  <rect class="st0" x="81.03" y="171.78" width="50.69" height="5" transform="translate(-2.31 1.43) rotate(-.76)"/>
  <path class="st0" d="M403.21,212.76h-164.19c-13.39,0-24.28-10.89-24.28-24.28V24.28c0-13.39,10.89-24.28,24.28-24.28h164.19c13.39,0,24.28,10.89,24.28,24.28v164.19c0,13.39-10.89,24.28-24.28,24.28ZM239.02,6c-10.08,0-18.28,8.2-18.28,18.28v164.19c0,10.08,8.2,18.28,18.28,18.28h164.19c10.08,0,18.28-8.2,18.28-18.28V24.28c0-10.08-8.2-18.28-18.28-18.28h-164.19Z"/>
  <path class="st0" d="M325.1,53.61h12.22v62.91c0,25.05-12.26,32.74-28.45,32.74-4.55,0-10-.97-13.02-2.2l1.77-9.92c2.54.97,6.14,1.79,10.3,1.79,10.83,0,17.19-4.94,17.19-23.39v-61.93Z"/>
  <rect class="st0" x="295.77" y="171.78" width="50.69" height="5" transform="translate(-2.29 4.28) rotate(-.76)"/>
</svg>