<?xml version="1.0" encoding="UTF-8"?>
<svg id="Capa_1" xmlns="http://www.w3.org/2000/svg" version="1.1" viewBox="0 0 427.5 212.8">
  <!-- Generator: Adobe Illustrator 29.0.0, SVG Export Plug-In . SVG Version: 2.1.0 Build 186)  -->
  <defs>
    <style>
      .st0 {
        fill: #ececec;
      }
    </style>
  </defs>
  <path class="st0" d="M188.5,212.8H24.3c-13.4,0-24.3-10.9-24.3-24.3V24.3C0,10.9,10.9,0,24.3,0h164.2c13.4,0,24.3,10.9,24.3,24.3v164.2c0,13.4-10.9,24.3-24.3,24.3h0ZM24.3,6C14.2,6,6,14.2,6,24.3v164.2c0,10.1,8.2,18.3,18.3,18.3h164.2c10.1,0,18.3-8.2,18.3-18.3V24.3c0-10.1-8.2-18.3-18.3-18.3H24.3Z"/>
  <path class="st0" d="M82.9,53.6h50.7v10.1h-38.5v31.3h35.5v10.1h-35.5v42.6h-12.2s0-94.1,0-94.1Z"/>
  <rect class="st0" x="81" y="171.8" width="50.7" height="5" transform="translate(-2.3 1.4) rotate(-.8)"/>
  <path class="st0" d="M403.2,212.8h-164.2c-13.4,0-24.3-10.9-24.3-24.3V24.3c0-13.4,10.9-24.3,24.3-24.3h164.2c13.4,0,24.3,10.9,24.3,24.3v164.2c0,13.4-10.9,24.3-24.3,24.3h0ZM239,6c-10.1,0-18.3,8.2-18.3,18.3v164.2c0,10.1,8.2,18.3,18.3,18.3h164.2c10.1,0,18.3-8.2,18.3-18.3V24.3c0-10.1-8.2-18.3-18.3-18.3h-164.2Z"/>
  <path class="st0" d="M325.1,53.6h12.2v62.9c0,25.1-12.3,32.7-28.5,32.7s-10-1-13-2.2l1.8-9.9c2.5,1,6.1,1.8,10.3,1.8,10.8,0,17.2-4.9,17.2-23.4v-61.9h0Z"/>
  <rect class="st0" x="295.8" y="171.8" width="50.7" height="5" transform="translate(-2.3 4.3) rotate(-.8)"/>
</svg>