<?xml version="1.0" encoding="UTF-8"?>
<svg id="Capa_1" xmlns="http://www.w3.org/2000/svg" version="1.1" viewBox="0 0 394 136">
  <!-- Generator: Adobe Illustrator 29.0.0, SVG Export Plug-In . SVG Version: 2.1.0 Build 186)  -->
  <defs>
    <style>
      .st0 {
        fill: #f1f1f1;
      }

      .st1 {
        fill: #29784e;
      }

      .st2 {
        display: none;
      }
    </style>
  </defs>
  <g class="st2">
    <rect class="st1" width="394" height="136" rx="17.5" ry="17.5"/>
    <path id="B" class="st0" d="M315.6,94.9v-9.5h5.2v-34.9h-5.2v-9.5h28.2c.9,0,5.5,2,6.4,2.7,6,4.1,7.9,15,2.7,20.2-1.3,1.3-6.2,3.3-6.3,3.7-.2.8,3.5,2.1,4.5,2.8,6.5,4.8,6.1,15.8.2,20.9-1.4,1.2-5.9,3.7-7.5,3.7h-28.2,0ZM331.6,63h8c1.3,0,4.4-1.4,5.1-2.6.9-1.5,1-5.2.3-6.8s-4-3.1-5.5-3.1h-8s0,12.5,0,12.5ZM331.6,85.4h8c1.3,0,4.4-1.4,5.1-2.6.9-1.5,1-5.6.3-7.2s-4-3.1-5.5-3.1h-8v12.9Z"/>
    <path id="U" class="st0" d="M279.8,41.1v37.2c0,.2.9,2.8,1.1,3.2,2.8,5.5,12.6,5.7,15.4.4.2-.3,1.1-2.6,1.1-2.8v-38.1h11.2v36.4c0,15-15,20.8-27.8,17-5.8-1.7-11.8-8.7-11.8-14.9v-38.5h10.8Z"/>
    <polygon id="L" class="st0" points="241 41.1 241 85.4 265.1 85.4 265.1 94.9 229.8 94.9 229.8 41.1 241 41.1"/>
    <path id="C" class="st0" d="M220.8,61.7h-10.8c0-5.4-1.9-11-8-11.6-5-.5-8.8,1.6-10.3,6.5-1.1,3.5-1.1,16.9-.5,20.8.6,4.3,3,7.9,7.5,8.5,8.5,1,11.4-3.7,11.4-11.6h10.8c.4,10.7-4.7,20-16.2,21.1-24.6,2.2-25.6-16.3-24.4-35.5.6-9.2,6.1-17.7,15.9-19,14.9-2,25.2,5.6,24.7,21h0Z"/>
    <path id="S" class="st0" d="M172.9,60h-10.8c1.2-8.1-7.2-11.6-13.9-8.9-4.8,1.9-4.4,7.3,0,9.6,8.6,4.3,24.2,1.7,25.5,15.9,1.3,15-10.4,19.8-23.5,18.8-11.8-.9-19.1-9.9-18.3-21.5h10.8c-1,9.4,7.4,14,15.8,11.2,6.8-2.3,5.5-9.7-1-12-8.3-2.9-20.9-2-23.3-13.3-5.4-25.6,42.6-25.7,38.7.3h0Z"/>
    <polygon id="E" class="st0" points="123.4 41.1 123.4 50.5 99.2 50.5 99.2 63 122.5 63 122.5 72.5 99.2 72.5 99.2 85.4 124.2 85.4 124.2 94.9 88.5 94.9 88.5 41.1 123.4 41.1"/>
    <path id="G" class="st0" d="M79,60.4h-10.8c1.4-11.4-15-14.1-18.2-3.8-1.3,4.3-1.3,20.6.8,24.5,4.2,7.8,17.9,5.4,17.5-4.3h-12.9v-9.5h23.7v27.5h-9.9v-6c-1.3,0-1.4,1.6-2.2,2.4-2.2,2.5-4.1,3.8-7.5,4.1-21.8,2-22.2-20.1-20.9-36,.7-9.3,7-17.6,16.7-18.7,13.7-1.4,23.8,5.4,23.9,19.8h0Z"/>
  </g>
  <g>
    <path class="st0" d="M339.5,72.5h-8v12.9h8c1.3,0,4.4-1.4,5.1-2.6.9-1.5,1-5.6.3-7.2-.6-1.6-4-3.1-5.5-3.1Z"/>
    <path class="st0" d="M344.7,60.4c.9-1.4,1-5.2.3-6.8-.6-1.6-4-3.1-5.5-3.1h-8v12.5h8c1.3,0,4.4-1.4,5.1-2.6Z"/>
    <path class="st0" d="M376.5,0H17.5C7.8,0,0,7.8,0,17.5v101c0,9.7,7.8,17.5,17.5,17.5h359c9.7,0,17.5-7.8,17.5-17.5V17.5c0-9.7-7.8-17.5-17.5-17.5ZM50,56.6c-1.3,4.3-1.3,20.6.8,24.5,4.2,7.8,17.9,5.4,17.5-4.3h-12.9v-9.5h23.7v27.5h-9.9v-6c-1.3,0-1.4,1.5-2.2,2.4-2.2,2.5-4.1,3.8-7.5,4.1-21.8,2-22.2-20.1-20.9-36,.7-9.3,7-17.6,16.7-18.7,13.7-1.4,23.8,5.4,23.9,19.8h-10.8c1.4-11.4-15-14.1-18.2-3.8ZM124.2,94.9h-35.8v-53.8h34.9v9.5h-24.1v12.5h23.3v9.5h-23.3v12.9h25v9.5ZM150.3,95.3c-11.8-.9-19.1-9.9-18.3-21.5h10.8c-1,9.5,7.5,14,15.8,11.2,6.8-2.3,5.5-9.7-1-12-8.3-2.9-20.9-2-23.3-13.4-5.3-25.6,42.7-25.7,38.7.3h-10.8c1.2-8.1-7.2-11.6-13.9-8.9-4.8,1.9-4.4,7.3,0,9.6,8.6,4.3,24.2,1.7,25.5,15.9,1.3,15-10.4,19.8-23.5,18.8ZM220.8,61.7h0s0,0,0,0h-10.8c0-5.4-1.9-11-8-11.6-5-.5-8.8,1.6-10.3,6.5-1.1,3.5-1.1,16.9-.5,20.8.6,4.3,3,7.9,7.5,8.5,8.5,1,11.4-3.7,11.4-11.6h10.8c.4,10.7-4.7,20-16.2,21.1-24.6,2.2-25.6-16.3-24.4-35.5.6-9.2,6.1-17.7,15.9-19,14.9-2,25.2,5.6,24.7,21h0ZM265.2,94.9h-35.3v-53.8h11.2v44.3h24.1v9.5ZM308.7,77.4c0,15-15,20.8-27.8,17-5.8-1.7-11.8-8.7-11.8-14.9v-38.5h10.8s0,37.2,0,37.2c0,.2.9,2.8,1.1,3.2,2.8,5.5,12.6,5.7,15.4.4.2-.3,1.1-2.6,1.1-2.8v-38.1h11.2v36.4ZM351.4,91.2c-1.3,1.1-5.9,3.6-7.5,3.6h-28.2s0,0,0,0h0v-9.5h5.2v-34.9h-5.2v-9.5h28.2c.9,0,5.5,2,6.4,2.7,6,4.1,7.9,15,2.7,20.2-1.3,1.3-6.2,3.3-6.3,3.6-.2.9,3.5,2.1,4.5,2.8,6.5,4.8,6.1,15.8.2,20.9Z"/>
  </g>
</svg>