<?xml version="1.0" encoding="UTF-8"?>
<svg id="Capa_1" xmlns="http://www.w3.org/2000/svg" version="1.1" viewBox="0 0 394 136">
  <!-- Generator: Adobe Illustrator 29.0.0, SVG Export Plug-In . SVG Version: 2.1.0 Build 186)  -->
  <defs>
    <style>
      .st0 {
        fill: #29784e;
      }

      .st1 {
        fill: #f1f1f1;
      }
    </style>
  </defs>
  <rect class="st0" width="394" height="136" rx="17.5" ry="17.5"/>
  <path id="B" class="st1" d="M315.61,94.86v-9.47h5.17v-34.86h-5.17v-9.47h28.23c.91,0,5.45,2.01,6.39,2.65,6.02,4.08,7.88,14.97,2.67,20.17-1.27,1.27-6.18,3.3-6.26,3.65-.21.85,3.55,2.08,4.52,2.79,6.51,4.78,6.15,15.81.22,20.88-1.35,1.15-5.94,3.65-7.55,3.65h-28.23ZM331.56,63.01h7.97c1.31,0,4.37-1.39,5.15-2.6.94-1.45.97-5.18.34-6.76s-3.99-3.12-5.49-3.12h-7.97v12.48ZM331.56,85.39h7.97c1.31,0,4.37-1.39,5.15-2.6.94-1.46.98-5.59.34-7.19s-3.99-3.12-5.49-3.12h-7.97v12.91Z"/>
  <path id="U" class="st1" d="M279.84,41.06v37.23c0,.23.91,2.76,1.12,3.19,2.77,5.52,12.61,5.68,15.43.43.19-.35,1.12-2.61,1.12-2.75v-38.09h11.21v36.37c0,15.04-14.96,20.83-27.82,17.02-5.84-1.73-11.83-8.69-11.83-14.87v-38.52h10.77Z"/>
  <polygon id="L" class="st1" points="241.02 41.06 241.02 85.39 265.15 85.39 265.15 94.86 229.81 94.86 229.81 41.06 241.02 41.06"/>
  <path id="C" class="st1" d="M220.76,61.72h-10.77c.05-5.36-1.91-11.03-7.98-11.61-5.01-.48-8.8,1.58-10.34,6.45-1.09,3.46-1.06,16.88-.54,20.76.58,4.29,2.98,7.91,7.48,8.46,8.52,1.03,11.4-3.73,11.37-11.57h10.77c.39,10.7-4.71,20.03-16.17,21.08-24.56,2.25-25.61-16.35-24.36-35.52.6-9.25,6.13-17.7,15.86-19.02,14.87-2.01,25.18,5.57,24.67,20.98Z"/>
  <path id="S" class="st1" d="M172.93,59.99h-10.77c1.22-8.12-7.22-11.63-13.9-8.93-4.75,1.93-4.4,7.34.09,9.59,8.63,4.33,24.23,1.74,25.46,15.89,1.3,14.99-10.44,19.79-23.52,18.75-11.76-.93-19.06-9.92-18.3-21.53h10.77c-1,9.45,7.45,14.02,15.76,11.22,6.76-2.28,5.52-9.67-1.01-11.96-8.31-2.92-20.89-1.98-23.27-13.35-5.35-25.58,42.65-25.74,38.68.32Z"/>
  <polygon id="E" class="st1" points="123.37 41.06 123.37 50.53 99.23 50.53 99.23 63.01 122.5 63.01 122.5 72.48 99.23 72.48 99.23 85.39 124.23 85.39 124.23 94.86 88.46 94.86 88.46 41.06 123.37 41.06"/>
  <path id="G" class="st1" d="M78.98,60.42h-10.77c1.37-11.43-14.99-14.12-18.23-3.79-1.34,4.28-1.34,20.57.75,24.47,4.19,7.78,17.92,5.44,17.48-4.33h-12.93v-9.47h23.7v27.54h-9.91v-6.03c-1.33-.1-1.44,1.55-2.15,2.37-2.17,2.5-4.1,3.79-7.52,4.11-21.78,2.01-22.18-20.1-20.94-35.97.73-9.33,6.97-17.64,16.66-18.65,13.74-1.44,23.83,5.42,23.87,19.75Z"/>
</svg>