<?xml version="1.0" encoding="UTF-8"?>
<svg id="Capa_1" xmlns="http://www.w3.org/2000/svg" version="1.1" viewBox="0 0 427.5 163.7">
  <!-- Generator: Adobe Illustrator 29.0.0, SVG Export Plug-In . SVG Version: 2.1.0 Build 186)  -->
  <defs>
    <style>
      .st0 {
        fill: #1d1d1b;
      }
    </style>
  </defs>
  <path class="st0" d="M185.8.5h138.8l2.7.4,1.9,1.2,1.5,1.7.6,1.5.2,1.7-.4,2.1-.8,1.7-2.7,3.3-2.3,2.9-2.7,3.3-2.3,2.9-2.7,3.3-2.3,2.9-2.7,3.3-2.3,2.9-2.7,3.3-2.3,2.9-2.7,3.3-2.3,2.9-2.7,3.3-2.3,2.9-2.7,3.3-2.3,2.9-1.9,1.7-1.2.6-2.3.4h-98.5l-5.2.2-5.2.6-5.4,1-5.6,1.7-4,1.5-5,2.3-3.6,1.9-4,2.5-3.3,2.5-2.1,1.7-2.7,2.3-4.2,4.2-1.9,2.3-2.3,2.7-2.3,2.9-2.7,3.3-2.3,2.9-1.9,2.3-2.3,2.9-2.7,3.3-1.7,2.1-2.3,2.9-2.7,3.3-1.7,1.2-1.5.6-2.1.2-2.3-.6-1.2-.8-1.5-1.7-.8-1.9v-2.7l.8-2.1,2.1-2.7,1.9-2.3,1.7-2.1,2.3-2.9,2.1-2.5,2.1-2.7,1.9-2.3,1.7-2.1,2.3-2.9,2.1-2.5,2.1-2.7,2.5-2.9,1.9-2.1,1-1.2h.4l.4-.8.8-.8h.4v-.4l1.7-1.5,2.3-2.1,2.1-1.7,4.2-3.1,2.3-1.5,4.2-2.5,5.2-2.7,6.1-2.5,5-1.7,6.7-1.7,6.3-1,4.4-.4,5-.2,96.4-.2,2.5-3.1,2.3-2.9,1.9-2.3,2.5-3.1,2.3-2.9,1.9-2.3,4.2-5.2,2.3-2.9,2.7-3.3,2.3-2.9,2.7-3.3,1.9-2.5h-24.6l-107.1.2-7.3.6-5.8.8-7.3,1.5-7.1,1.9-7.3,2.5-5.6,2.3-5.4,2.5-4.8,2.5-5.6,3.3-5,3.3-3.6,2.7-2.5,1.9-3.1,2.7-2.3,1.9-2.9,2.9-1,.8-.2.4h-.4v.4h-.4l-.4.8-2.5,2.5-1.5,1.7-2.3,2.9h-.4l-.4.8-2.7,3.3-2.3,2.9-1.9,2.3-2.7,3.3-2.3,2.9-4.2,5.2-2.3,2.9-1.9,2.3-2.5,3.1-2.3,2.9-2.9,3.6-2.3,2.9-2.7,3.3-2.3,2.9-2.7,3.3-2.3,2.9-2.7,3.3-2.3,2.9-2.7,3.3-2.3,2.9-2.7,3.3-1.7,2.1-2.3,2.9-2.7,3.3-2.3,2.9-2.7,3.3-2.3,2.9-2.7,3.3-1.7,2.1-2.3,2.9-.8,1h47.6l2.3-2.7,2.1-2.7,2.1-2.5,1.7-2.3h.4l.4-.8,2.1-2.7.4-.6h.4l.4-.8,2.1-2.7,1.9-2.3,1.9-2.5,1.7-1.2,1.7-.6,2.1-.2,2.1.6,1.9,1.2,1.5,2.1.4,1.7v1.7l-.6,1.9-1.5,2.3-1.5,1.7-2.3,2.9-1.9,2.3-2.3,2.9-2.7,3.3-5.8,7.3-2.3,2.9-1,1-1.5,1.2-1.9.6-4.6.2H7.7l-2.9-.2-2.5-1.2-1.7-1.9-.6-.2v-4l1.5-2.3,2.1-2.5,2.3-2.9,2.7-3.3,2.3-2.9,1.9-2.3,2.3-2.9,2.7-3.3,1.7-2.1,2.3-2.9,2.7-3.3,1.7-2.1,2.3-2.9,2.7-3.3,1.7-2.1,2.3-2.9,2.7-3.3,1.7-2.1,2.3-2.9,2.7-3.3,1.7-2.1,2.3-2.9,2.7-3.3,1.7-2.1,2.3-2.9,2.7-3.3,1.7-2.1,2.3-2.9,2.7-3.3,1.7-2.1,2.3-2.9,2.7-3.3,1.7-2.1,2.3-2.9,2.7-3.3,1.7-2.1,2.3-2.9,2.7-3.3,1.9-2.3,1.9-2.1,1.5-1.7,2.5-2.7,4.4-4.4,1.7-1.5,2.3-2.1,2.3-1.9,2.5-2.1,3.3-2.5,2.3-1.7,5-3.3,2.7-1.7,5-2.9,6.5-3.3,4.2-1.9,6.9-2.7,7.5-2.5,6.3-1.7,7.9-1.7,6.9-1,5.8-.6,3.3-.2,6.7-.2h0l-.3-.5Z"/>
  <path class="st0" d="M358,.5h63.5l2.5.6,1.7,1.2,1.2,1.5.2.8h.4v4.8l-.8.8-2.1,2.7-2.3,2.9-2.7,3.3-2.3,2.9-2.7,3.3-2.3,2.9-2.7,3.3-2.3,2.9-2.7,3.3-2.3,2.9-2.7,3.3-2.3,2.9-2.7,3.3-2.3,2.9-2.7,3.3-2.3,2.9-2.7,3.3-2.3,2.9-2.7,3.3-2.3,2.9-2.7,3.3-2.3,2.9-2.7,3.3-2.3,2.9-2.7,3.3-2.3,2.9-2.7,3.3-2.3,2.9-2.7,3.3-2.3,2.9-2.7,3.3-2.3,2.9-2.7,3.3-2.3,2.9-2.7,3.3-2.3,2.9-2.7,3.3-2.3,2.9-2.7,3.3-2.3,2.9-2.7,3.3-2.3,2.9-2.7,3.3-2.3,2.9-2.7,3.3-2.3,2.9-2.7,3.3-2.3,2.9-1.9,2.1-1.7,1-1.5.4-4.4.2h-60.3l-2.7-.4-1.7-1-1.5-1.5-.8-1.7-.2-.8v-2.1l.8-2.3,2.3-2.9,2.7-3.3,1.7-2.1,2.3-2.9,2.7-3.3,1.7-2.1,2.3-2.9,2.7-3.3,1.7-2.1,2.3-2.9,2.7-3.3,1.7-2.1,2.3-2.9,2.7-3.3,1.7-2.1,2.3-2.9,2.7-3.3,1.7-2.1,2.3-2.9,2.7-3.3,1.7-2.1,2.3-2.9,2.7-3.3,1.7-2.1,2.3-2.9,2.7-3.3,1.7-2.1,2.3-2.9,2.7-3.3,1.7-2.1,2.3-2.9,2.7-3.3,1.7-2.1,2.3-2.9,2.7-3.3,1.7-2.1,2.3-2.9,2.7-3.3,1.7-2.1,2.3-2.9,2.7-3.3,1.7-2.1,2.3-2.9,2.7-3.3,1.7-2.1,2.3-2.9,2.7-3.3,1.7-2.1,2.3-2.9,2.7-3.3,1.7-2.1,2.3-2.9,2.7-3.3,2.1-2.7,1.9-1.7L355.8,0l2.7-.2h0l-.5.7ZM364.5,13.2l-4.4.2-1,1-2.7,3.6-2.3,2.7-2.7,3.5-2.1,2.5-1.7,2.1-2.3,2.9-2.7,3.3-1.7,2.1-2.3,2.9-2.7,3.3-1.7,2.1-2.3,2.9-2.7,3.3-1.7,2.1-2.3,2.9-2.7,3.3-1.7,2.1-2.3,2.9-2.7,3.3-1.7,2.1-2.3,2.9-2.7,3.3-1.7,2.1-2.3,2.9-2.7,3.3-1.7,2.1-2.3,2.9-2.7,3.3-1.7,2.1-2.3,2.9-2.7,3.3-1.7,2.1-2.3,2.9-2.7,3.3-1.7,2.1-2.3,2.9-2.7,3.3-4.2,5.2-2.3,2.9-1.9,2.3-2.3,2.9-2.7,3.3-4.2,5.2-2.3,2.9-2.9,3.6-2.3,2.9-.4.8h47.8v-.4h.4l2.1-2.7,2.1-2.5,1.7-2.1,2.3-2.9,2.7-3.3,1.7-2.1,2.3-2.9,2.7-3.3,1.7-2.1,2.9-3.8,2.1-2.5,1.5-1.9,2.5-3.1,2.3-2.9,1.9-2.3,2.5-3.1,2.3-2.9,1.9-2.3,2.5-3.1,2.3-2.9,1.9-2.3,2.5-3.1,2.3-2.9,1.9-2.3,2.5-3.1,2.3-2.9,1.9-2.3,2.5-3.1,2.3-2.9,1.9-2.3,2.5-3.1,2.3-2.9,1.9-2.3,2.5-3.1,2.3-2.9,1.9-2.3,2.5-3.1,2.3-2.9,2.3-2.7,2.1-2.7,2.7-3.3,1.7-2.1,2.3-2.9,2.7-3.3,1.7-2.1,2.3-2.9,2.7-3.3,1.7-2.1,2.1-2.7,1.2-1.9h-43.5Z"/>
  <path class="st0" d="M184.5,75.6h80.8l2.3.6,1.7,1.2,1.2,1.5.6,1.5.2,1.9-.6,2.5-2.1,2.9-2.9,3.6-2.3,2.9-2.7,3.3-2.3,2.9-2.7,3.3-2.3,2.9-2.7,3.3-2.3,2.9-2.7,3.3-2.3,2.9-2.7,3.3-2.3,2.9-2.7,3.3-2.3,2.9-2.7,3.3-1.5,1.7-1.7,1.2-1.5.4-1.7.2-34.9.2-2.9,3.8-1.9,2.3-5.8,7.3-1.9,2.3-2.1,2.7-2.9,3.6-.4.6h-.4v.4l-1.9,1.2-1.5.4-4.8.2h-60.3l-2.3-.4-2.1-1.2-1.5-1.7-.8-2.5.2-2.3,1.2-2.5,2.5-2.9,2.1-2.7,2.7-3.3,2.3-2.9,1.9-2.3,2.7-3.3,2.3-2.9,2.7-3.3,2.3-3.1h.4l.4-.8,2.7-3.3,2.3-2.9,2.7-3.3,4.6-5.8,2.7-3.3.8-1.2h.4l.4-.8,2.5-3.3h.4l.4-.8,2.1-2.7,2.5-2.9,1.9-2.1,2.7-2.7,2.3-1.9,3.3-2.5,4.4-2.7,3.6-1.9,5.2-2.1,4.8-1.5,5.2-1,3.6-.4,3.1-.2h0l.3-.2ZM250.3,88.3l-68.3.2-4.2.6-4.8,1.2-4.4,1.7-4.6,2.5-3.1,2.1-3.3,2.7-4,4-1.9,2.3-2.3,2.9-2.9,3.6-1.5,1.9-2.7,3.3-2.3,2.9-2.7,3.3-1.7,2.1-2.3,2.9-2.7,3.3-1.7,2.1-2.3,2.9-2.7,3.3-1.7,2.1-2.3,2.9-2.7,3.3-1.5,1.9v.2h47.8l1.7-1.9,2.3-2.9,2.7-3.3,2.3-2.9,2.7-3.3,2.3-2.9,2.7-3.3,1.7-2.1,1.5-1.2,1.5-.6,1-.2,35.9-.2,1.9-2.3,2.3-2.9,5.4-6.7,2.3-2.9,2.5-3.1,2.3-2.9,1.9-2.3,2.7-3.3,2.1-2.7,2.7-3.3,2.3-2.9,1-1.5-.2-.4h-.8v-.2Z"/>
</svg>