<?xml version="1.0" encoding="UTF-8"?>
<svg id="Capa_1" xmlns="http://www.w3.org/2000/svg" version="1.1" viewBox="0 0 427.49 163.7">
  <!-- Generator: Adobe Illustrator 29.0.0, SVG Export Plug-In . SVG Version: 2.1.0 Build 186)  -->
  <defs>
    <style>
      .st0 {
        fill: #010101;
      }
    </style>
  </defs>
  <path class="st0" d="M185.78.47h138.81l2.71.42,1.88,1.25,1.46,1.67.63,1.46.21,1.67-.42,2.09-.83,1.67-2.71,3.34-2.3,2.92-2.71,3.34-2.3,2.92-2.71,3.34-2.3,2.92-2.71,3.34-2.3,2.92-2.71,3.34-2.3,2.92-2.71,3.34-2.3,2.92-2.71,3.34-2.3,2.92-2.71,3.34-2.3,2.92-1.88,1.67-1.25.63-2.3.42h-98.52l-5.22.21-5.22.63-5.43,1.04-5.64,1.67-3.97,1.46-5.01,2.3-3.55,1.88-3.97,2.5-3.34,2.5-2.09,1.67-2.71,2.3-4.17,4.17-1.88,2.3-2.3,2.71-2.3,2.92-2.71,3.34-2.3,2.92-1.88,2.3-2.3,2.92-2.71,3.34-1.67,2.09-2.3,2.92-2.71,3.34-1.67,1.25-1.46.63-2.09.21-2.3-.63-1.25-.83-1.46-1.67-.83-1.88v-2.71l.83-2.09,2.09-2.71,1.88-2.3,1.67-2.09,2.3-2.92,2.09-2.5,2.09-2.71,1.88-2.3,1.67-2.09,2.3-2.92,2.09-2.5,2.09-2.71,2.5-2.92,1.88-2.09,1.04-1.25h.42l.42-.83.83-.83h.42v-.42l1.67-1.46,2.3-2.09,2.09-1.67,4.17-3.13,2.3-1.46,4.17-2.5,5.22-2.71,6.05-2.5,5.01-1.67,6.68-1.67,6.26-1.04,4.38-.42,5.01-.21,96.44-.21,2.5-3.13,2.3-2.92,1.88-2.3,2.5-3.13,2.3-2.92,1.88-2.3,4.17-5.22,2.3-2.92,2.71-3.34,2.3-2.92,2.71-3.34,1.88-2.5h-24.63l-107.08.21-7.31.63-5.84.83-7.31,1.46-7.1,1.88-7.31,2.5-5.64,2.3-5.43,2.5-4.8,2.5-5.64,3.34-5.01,3.34-3.55,2.71-2.5,1.88-3.13,2.71-2.3,1.88-2.92,2.92-1.04.83-.21.42h-.42v.42h-.42l-.42.83-2.5,2.5-1.46,1.67-2.3,2.92h-.42l-.42.83-2.71,3.34-2.3,2.92-1.88,2.3-2.71,3.34-2.3,2.92-4.17,5.22-2.3,2.92-1.88,2.3-2.5,3.13-2.3,2.92-2.92,3.55-2.3,2.92-2.71,3.34-2.3,2.92-2.71,3.34-2.3,2.92-2.71,3.34-2.3,2.92-2.71,3.34-2.3,2.92-2.71,3.34-1.67,2.09-2.3,2.92-2.71,3.34-2.3,2.92-2.71,3.34-2.3,2.92-2.71,3.34-1.67,2.09-2.3,2.92-.83,1.04h47.59l2.3-2.71,2.09-2.71,2.09-2.5,1.67-2.3h.42l.42-.83,2.09-2.71.42-.63h.42l.42-.83,2.09-2.71,1.88-2.3,1.88-2.5,1.67-1.25,1.67-.63,2.09-.21,2.09.63,1.88,1.25,1.46,2.09.42,1.67v1.67l-.63,1.88-1.46,2.3-1.46,1.67-2.3,2.92-1.88,2.3-2.3,2.92-2.71,3.34-5.84,7.31-2.3,2.92-1.04,1.04-1.46,1.25-1.88.63-4.59.21H7.72l-2.92-.21-2.5-1.25-1.67-1.88-.63-1.25v-3.97l1.46-2.3,2.09-2.5,2.3-2.92,2.71-3.34,2.3-2.92,1.88-2.3,2.3-2.92,2.71-3.34,1.67-2.09,2.3-2.92,2.71-3.34,1.67-2.09,2.3-2.92,2.71-3.34,1.67-2.09,2.3-2.92,2.71-3.34,1.67-2.09,2.3-2.92,2.71-3.34,1.67-2.09,2.3-2.92,2.71-3.34,1.67-2.09,2.3-2.92,2.71-3.34,1.67-2.09,2.3-2.92,2.71-3.34,1.67-2.09,2.3-2.92,2.71-3.34,1.67-2.09,2.3-2.92,2.71-3.34,1.67-2.09,2.3-2.92,2.71-3.34,1.88-2.3,1.88-2.09,1.46-1.67,2.5-2.71,4.38-4.38,1.67-1.46,2.3-2.09,2.3-1.88,2.5-2.09,3.34-2.5,2.3-1.67,5.01-3.34,2.71-1.67,5.01-2.92,6.47-3.34,4.17-1.88,6.89-2.71,7.51-2.5,6.26-1.67,7.93-1.67,6.89-1.04,5.84-.63,3.34-.21,6.68-.21Z"/>
  <path class="st0" d="M357.98.47h63.46l2.5.63,1.67,1.25,1.25,1.46.21.83h.42v4.8l-.83.83-2.09,2.71-2.3,2.92-2.71,3.34-2.3,2.92-2.71,3.34-2.3,2.92-2.71,3.34-2.3,2.92-2.71,3.34-2.3,2.92-2.71,3.34-2.3,2.92-2.71,3.34-2.3,2.92-2.71,3.34-2.3,2.92-2.71,3.34-2.3,2.92-2.71,3.34-2.3,2.92-2.71,3.34-2.3,2.92-2.71,3.34-2.3,2.92-2.71,3.34-2.3,2.92-2.71,3.34-2.3,2.92-2.71,3.34-2.3,2.92-2.71,3.34-2.3,2.92-2.71,3.34-2.3,2.92-2.71,3.34-2.3,2.92-2.71,3.34-2.3,2.92-2.71,3.34-2.3,2.92-2.71,3.34-2.3,2.92-2.71,3.34-2.3,2.92-2.71,3.34-2.3,2.92-2.71,3.34-2.3,2.92-1.88,2.09-1.67,1.04-1.46.42-4.38.21h-60.33l-2.71-.42-1.67-1.04-1.46-1.46-.83-1.67-.21-.83v-2.09l.83-2.3,2.3-2.92,2.71-3.34,1.67-2.09,2.3-2.92,2.71-3.34,1.67-2.09,2.3-2.92,2.71-3.34,1.67-2.09,2.3-2.92,2.71-3.34,1.67-2.09,2.3-2.92,2.71-3.34,1.67-2.09,2.3-2.92,2.71-3.34,1.67-2.09,2.3-2.92,2.71-3.34,1.67-2.09,2.3-2.92,2.71-3.34,1.67-2.09,2.3-2.92,2.71-3.34,1.67-2.09,2.3-2.92,2.71-3.34,1.67-2.09,2.3-2.92,2.71-3.34,1.67-2.09,2.3-2.92,2.71-3.34,1.67-2.09,2.3-2.92,2.71-3.34,1.67-2.09,2.3-2.92,2.71-3.34,1.67-2.09,2.3-2.92,2.71-3.34,1.67-2.09,2.3-2.92,2.71-3.34,1.67-2.09,2.3-2.92,2.71-3.34,1.67-2.09,2.3-2.92,2.71-3.34,2.09-2.71,1.88-1.67,1.46-.63,2.71-.21ZM364.46,13.2l-4.38.21-1.04,1.04-2.71,3.55-2.3,2.71-2.71,3.55-2.09,2.5-1.67,2.09-2.3,2.92-2.71,3.34-1.67,2.09-2.3,2.92-2.71,3.34-1.67,2.09-2.3,2.92-2.71,3.34-1.67,2.09-2.3,2.92-2.71,3.34-1.67,2.09-2.3,2.92-2.71,3.34-1.67,2.09-2.3,2.92-2.71,3.34-1.67,2.09-2.3,2.92-2.71,3.34-1.67,2.09-2.3,2.92-2.71,3.34-1.67,2.09-2.3,2.92-2.71,3.34-1.67,2.09-2.3,2.92-2.71,3.34-1.67,2.09-2.3,2.92-2.71,3.34-4.17,5.22-2.3,2.92-1.88,2.3-2.3,2.92-2.71,3.34-4.17,5.22-2.3,2.92-2.92,3.55-2.3,2.92-.42.83h47.8v-.42h.42l2.09-2.71,2.09-2.5,1.67-2.09,2.3-2.92,2.71-3.34,1.67-2.09,2.3-2.92,2.71-3.34,1.67-2.09,2.92-3.76,2.09-2.5,1.46-1.88,2.5-3.13,2.3-2.92,1.88-2.3,2.5-3.13,2.3-2.92,1.88-2.3,2.5-3.13,2.3-2.92,1.88-2.3,2.5-3.13,2.3-2.92,1.88-2.3,2.5-3.13,2.3-2.92,1.88-2.3,2.5-3.13,2.3-2.92,1.88-2.3,2.5-3.13,2.3-2.92,1.88-2.3,2.5-3.13,2.3-2.92,1.88-2.3,2.5-3.13,2.3-2.92,2.3-2.71,2.09-2.71,2.71-3.34,1.67-2.09,2.3-2.92,2.71-3.34,1.67-2.09,2.3-2.92,2.71-3.34,1.67-2.09,2.09-2.71,1.25-1.88h-43.42Z"/>
  <path class="st0" d="M184.52,75.62h80.78l2.3.63,1.67,1.25,1.25,1.46.63,1.46.21,1.88-.63,2.5-2.09,2.92-2.92,3.55-2.3,2.92-2.71,3.34-2.3,2.92-2.71,3.34-2.3,2.92-2.71,3.34-2.3,2.92-2.71,3.34-2.3,2.92-2.71,3.34-2.3,2.92-2.71,3.34-2.3,2.92-2.71,3.34-1.46,1.67-1.67,1.25-1.46.42-1.67.21-34.86.21-2.92,3.76-1.88,2.3-5.84,7.31-1.88,2.3-2.09,2.71-2.92,3.55-.42.63h-.42v.42l-1.88,1.25-1.46.42-4.8.21h-60.33l-2.3-.42-2.09-1.25-1.46-1.67-.83-2.5.21-2.3,1.25-2.5,2.5-2.92,2.09-2.71,2.71-3.34,2.3-2.92,1.88-2.3,2.71-3.34,2.3-2.92,2.71-3.34,2.3-3.13h.42l.42-.83,2.71-3.34,2.3-2.92,2.71-3.34,4.59-5.84,2.71-3.34.83-1.25h.42l.42-.83,2.5-3.34h.42l.42-.83,2.09-2.71,2.5-2.92,1.88-2.09,2.71-2.71,2.3-1.88,3.34-2.5,4.38-2.71,3.55-1.88,5.22-2.09,4.8-1.46,5.22-1.04,3.55-.42,3.13-.21ZM250.28,88.35l-68.26.21-4.17.63-4.8,1.25-4.38,1.67-4.59,2.5-3.13,2.09-3.34,2.71-3.97,3.97-1.88,2.3-2.3,2.92-2.92,3.55-1.46,1.88-2.71,3.34-2.3,2.92-2.71,3.34-1.67,2.09-2.3,2.92-2.71,3.34-1.67,2.09-2.3,2.92-2.71,3.34-1.67,2.09-2.3,2.92-2.71,3.34-1.46,1.88v.21h47.8l1.67-1.88,2.3-2.92,2.71-3.34,2.3-2.92,2.71-3.34,2.3-2.92,2.71-3.34,1.67-2.09,1.46-1.25,1.46-.63,1.04-.21,35.9-.21,1.88-2.3,2.3-2.92,5.43-6.68,2.3-2.92,2.5-3.13,2.3-2.92,1.88-2.3,2.71-3.34,2.09-2.71,2.71-3.34,2.3-2.92,1.04-1.46-.21-.42h-.83Z"/>
</svg>