<?xml version="1.0" encoding="UTF-8"?>
<svg id="Capa_1" xmlns="http://www.w3.org/2000/svg" version="1.1" viewBox="0 0 525.65 656.47">
  <!-- Generator: Adobe Illustrator 29.0.0, SVG Export Plug-In . SVG Version: 2.1.0 Build 186)  -->
  <defs>
    <style>
      .st0 {
        fill: #ececec;
      }
    </style>
  </defs>
  <g id="AFG">
    <path id="G" class="st0" d="M432,291.76h85.29c4.62,0,8.36-3.83,8.36-8.55v-16.4c0-47.29-2.99-83.36-8.97-108.19-5.98-24.83-18.82-46.28-38.53-64.34s-44.51-27.09-74.39-27.09c-23.89,0-44.29,6.46-61.24,19.33l-.15,90.29c0,4.62-3.76,8.36-8.38,8.35l-41.59-.07c-2.5,24.69-3.75,58.68-3.75,102.04v9.71l37.42.06c4.62,0,8.36,3.76,8.35,8.38l-.16,95.39c0,4.62-3.76,8.36-8.38,8.35l-37.24-.06v49.63c0,39.69.97,69.46,2.91,89.3,1.94,19.85,6.3,39.03,14.55,56.86,12.98,28.04,79.29,86.98,135.28,23,4.54-5.19,12.89-3.11,14.44,3.68l4.2,18.41c.88,3.87,4.26,6.61,8.15,6.61h49.11c4.62,0,8.36-3.83,8.36-8.55v-292.67c0-4.72-3.74-8.55-8.36-8.55h-102.74c-4.62,0-8.36,3.83-8.36,8.55v70.58c0,4.72,3.74,8.55,8.36,8.55h3.87c4.62,0,8.36,3.83,8.36,8.55v59.89c0,26.86-1.33,44.92-4,54.18-2.67,9.27-7.72,13.9-15.15,13.9-6.78,0-11.31-4.1-13.57-12.3-2.27-8.2-3.39-25.25-3.39-51.16V230.44c0-29.47,1.13-47.77,3.39-54.9,2.26-7.13,6.54-10.69,12.84-10.69,7.27,0,11.87,4.16,13.81,12.48s2.91,29,2.91,62.03v43.85c0,4.72,3.74,8.55,8.36,8.55h.03Z"/>
    <path id="F" class="st0" d="M279.99,296.82c-4.62,0-8.36-3.76-8.35-8.38l.16-95.03c0-4.62,3.76-8.36,8.38-8.35l12.24.02c.68-6.7,1.44-12.76,2.31-18.09,4.04-24.95,15.63-47.82,34.77-68.62,4.08-4.44,8.44-8.37,13.04-11.86l.02-10.93c0-4.62-3.73-8.37-8.35-8.38l-141.66-.26c-4.62,0-8.37,3.73-8.38,8.35v2.56l57.98,578.58,20.54.02c4.62,0,8.37-3.73,8.38-8.35l.38-230.81c0-4.62,3.76-8.36,8.38-8.35h8.85v-112.11h-8.69Z"/>
    <path id="A" class="st0" d="M183.21,656.39l.94-578.54-7.04-70.26C176.67,3.28,173.04,0,168.7,0h-102.25c-4.37,0-8.02,3.33-8.42,7.69L.04,647.26c-.45,4.95,3.45,9.21,8.42,9.21h75.08c4.47,0,8.17-3.48,8.44-7.95l6.07-102.1c.27-4.46,3.96-7.95,8.44-7.95h25.78c4.49,0,8.2,3.52,8.44,8l5.41,101.99c.24,4.49,3.95,8,8.44,8l28.68-.08h-.03ZM128.06,422.1h-22.11c-4.85,0-8.71-4.06-8.44-8.9,2.16-38.16,6.03-89.34,11.6-153.55.9-10.43,16.21-10.24,16.86.2,3.51,57.2,7.02,108.25,10.52,153.13.38,4.91-3.5,9.11-8.42,9.11h0Z"/>
  </g>
</svg>