<?xml version="1.0" encoding="UTF-8"?>
<svg id="Capa_1" xmlns="http://www.w3.org/2000/svg" version="1.1" viewBox="0 0 784 801">
  <!-- Generator: Adobe Illustrator 29.0.0, SVG Export Plug-In . SVG Version: 2.1.0 Build 186)  -->
  <path d="M33,0c-.67,4.67,1.28,31.02-.94,32.56-10.44.41-21.87,1.42-32.06-.56V0h33Z"/>
  <path d="M33,800H0v-32c10.2-1.98,21.62-.98,32.06-.56,2.21,1.54.27,27.9.94,32.56Z"/>
  <rect y="650" width="32" height="32"/>
  <rect y="708" width="32" height="32"/>
  <rect y="118" width="32" height="32"/>
  <rect y="472" width="32" height="32"/>
  <rect y="590" width="32" height="32"/>
  <rect y="60" width="32" height="32"/>
  <rect y="532" width="32" height="32"/>
  <rect y="296" width="32" height="32"/>
  <rect y="414" width="32" height="32"/>
  <rect y="178" width="32" height="32"/>
  <rect y="236" width="32" height="32"/>
  <rect y="354" width="32" height="32"/>
  <rect x="60" width="31" height="32"/>
  <rect x="768" y="8" width="16" height="16"/>
  <rect x="60" y="118" width="31" height="32"/>
  <rect x="60" y="236" width="31" height="32"/>
  <polygon points="91 650 91 680.5 89.5 682 60 682 60 650 91 650"/>
  <polygon points="91 532 91 562.5 89.5 564 60 564 60 532 91 532"/>
  <rect x="118" y="591" width="31" height="31"/>
  <polygon points="91 622 60 622 60 591 89.5 591 91 592.5 91 622"/>
  <polygon points="91 504 60 504 60 473 89.5 473 91 474.5 91 504"/>
  <polygon points="149 504 118 504 118 473 147.5 473 149 474.5 149 504"/>
  <polygon points="91 386 60 386 60 355 89.5 355 91 356.5 91 386"/>
  <polygon points="91 740 60 740 60 709 89.5 709 91 710.5 91 740"/>
  <polygon points="149 386 118 386 118 356.5 119.5 355 147.5 355 149 356.5 149 386"/>
  <rect x="118" y="650" width="31" height="30"/>
  <rect x="60" y="60" width="31" height="30"/>
  <rect x="118" y="60" width="31" height="30"/>
  <rect x="118" y="532" width="31" height="30"/>
  <rect x="60" y="414" width="31" height="30"/>
  <rect x="60" y="178" width="31" height="30"/>
  <rect x="118" y="178" width="31" height="30"/>
  <rect x="118" y="238" width="31" height="30"/>
  <rect x="118" y="414" width="31" height="30"/>
  <rect x="118" y="296" width="31" height="30"/>
  <rect x="60" y="296" width="31" height="30"/>
  <polygon points="149 2 149 29.5 147.5 31 118 31 118 2 149 2"/>
  <polygon points="149 120 149 147.5 147.5 149 119.5 149 118 147.5 118 120 149 120"/>
  <rect x="178" y="2" width="27" height="29"/>
  <rect x="178" y="61" width="27" height="29"/>
  <rect x="178" y="120" width="27" height="29"/>
  <rect x="178" y="473" width="27" height="29"/>
  <rect x="178" y="533" width="27" height="29"/>
  <rect x="178" y="415" width="27" height="29"/>
  <rect x="178" y="297" width="27" height="29"/>
  <rect x="178" y="355" width="27" height="29"/>
  <rect x="178" y="591" width="27" height="29"/>
  <rect x="178" y="179" width="27" height="29"/>
  <rect x="236" y="121" width="27" height="28"/>
  <rect x="236" y="179" width="27" height="28"/>
  <rect x="236" y="297" width="27" height="28"/>
  <rect x="178" y="238" width="27" height="28"/>
  <rect x="236" y="415" width="27" height="28"/>
  <rect x="236" y="533" width="27" height="28"/>
  <rect x="236" y="3" width="27" height="28"/>
  <rect x="236" y="61" width="27" height="28"/>
  <rect x="236" y="239" width="27" height="27"/>
  <rect x="236" y="475" width="27" height="27"/>
  <rect x="236" y="357" width="27" height="27"/>
  <polygon points="296 89 296 61 320.5 61 322 62.5 322 87.5 320.5 89 296 89"/>
  <rect x="354" y="357" width="26" height="26"/>
  <rect x="354" y="121" width="26" height="26"/>
  <rect x="296" y="239" width="26" height="26"/>
  <rect x="354" y="3" width="26" height="26"/>
  <rect x="354" y="239" width="26" height="26"/>
  <polygon points="322 181 322 205.5 320.5 207 296 207 296 181 322 181"/>
  <polygon points="322 357 322 381.5 320.5 383 296 383 296 357 322 357"/>
  <polygon points="380 417 380 441.5 378.5 443 354 443 354 417 380 417"/>
  <polygon points="322 147 296 147 296 121 320.5 121 322 122.5 322 147"/>
  <polygon points="322 299 322 323.5 320.5 325 296 325 296 299 322 299"/>
  <polygon points="322 417 322 441.5 320.5 443 296 443 296 417 322 417"/>
  <polygon points="322 29 296 29 296 3 320.5 3 322 4.5 322 29"/>
  <polygon points="322 475 322 499.5 320.5 501 296 501 296 475 322 475"/>
  <rect x="354" y="299" width="26" height="24"/>
  <rect x="354" y="63" width="26" height="24"/>
  <rect x="354" y="181" width="26" height="24"/>
  <rect x="414" y="181" width="22" height="24"/>
  <rect x="414" y="123" width="22" height="24"/>
  <rect x="414" y="359" width="22" height="24"/>
  <rect x="414" y="63" width="22" height="24"/>
  <rect x="414" y="241" width="22" height="24"/>
  <rect x="414" y="299" width="22" height="24"/>
  <path d="M494,300v23h-22v-22c7.37.01,14.74.36,22-1Z"/>
  <rect x="472" y="5" width="22" height="22"/>
  <rect x="472" y="241" width="22" height="22"/>
  <rect x="472" y="183" width="22" height="22"/>
  <rect x="472" y="123" width="22" height="22"/>
  <rect x="472" y="65" width="22" height="22"/>
  <rect x="414" y="5" width="22" height="22"/>
  <rect x="532" y="5" width="21" height="22"/>
  <polygon points="553 263 532 263 532 242 551.5 242 553 243.5 553 263"/>
  <polygon points="553 65 553 84.5 551.5 86 532 86 532 65 553 65"/>
  <polygon points="611 65 611 84.5 609.5 86 590 86 590 65 611 65"/>
  <polygon points="553 145 532 145 532 124 551.5 124 553 125.5 553 145"/>
  <rect x="532" y="183" width="21" height="20"/>
  <rect x="590" y="183" width="21" height="20"/>
  <polygon points="611 144 590 144 590 124 609.5 124 611 125.5 611 144"/>
  <rect x="590" y="7" width="21" height="19"/>
  <rect x="650" y="124" width="17" height="20"/>
  <rect x="650" y="7" width="17" height="19"/>
  <rect x="708" y="66" width="17" height="18"/>
  <rect x="650" y="66" width="17" height="18"/>
  <rect x="708" y="8" width="17" height="18"/>
</svg>