<?xml version="1.0" encoding="UTF-8"?>
<svg id="visual" xmlns="http://www.w3.org/2000/svg" version="1.1" viewBox="0 0 960 540">
  <!-- Generator: Adobe Illustrator 29.0.0, SVG Export Plug-In . SVG Version: 2.1.0 Build 186)  -->
  <defs>
    <style>
      .st0 {
        fill: #0d192b;
      }

      .st1 {
        fill: #1c3251;
      }

      .st2 {
        fill: #0a1524;
      }

      .st3 {
        fill: #111f35;
      }
    </style>
  </defs>
  <rect class="st2" width="960" height="540"/>
  <path class="st3" d="M787.8,67.7c28.4,4.1-14.4,54.1-41.2,85-26.8,30.9-37.7,42.6-62.3,49.2-24.8,6.7-63.5,8.2-5.9,58.1,57.5,49.9,211.4,148.1,207.6,210-3.8,61.8-165,87.3-260,46.3-94.9-41.1-123.4-148.6-189.2-197.7-65.6-49-168.4-39.6-154.2-48.4,14.4-8.8,145.8-36,91.6-74.3C319.7,157.6,79.9,108.2,18.1,70-43.7,31.7,72.8,4.8,192.8,19.6c119.8,14.8,243.4,71.2,355.1,78.5,111.7,7.4,211.4-34.4,239.9-30.3"/>
  <path class="st1" d="M838.1,53.3c28.4,4.1-14.4,54.1-41.2,85-26.8,30.9-37.7,42.6-62.3,49.2-24.8,6.7-63.5,8.2-5.9,58.1,57.5,49.9,211.4,148.1,207.6,210-3.8,61.8-165,87.3-260,46.3-94.9-41.1-123.4-148.6-189.2-197.7-65.6-49-168.4-39.6-154.2-48.4,14.4-8.8,145.8-36,91.6-74.3-54.4-38.3-294.1-87.8-355.9-126C6.6,17.3,123.1-9.6,243.1,5.1c119.8,14.8,243.4,71.2,355.1,78.5,111.7,7.4,211.4-34.4,239.9-30.3"/>
  <path class="st0" d="M818.8,59.3c28.4,4.1-14.4,54.1-41.2,85-26.8,30.9-37.7,42.6-62.3,49.2-24.8,6.7-63.5,8.2-5.9,58.1,57.5,49.9,211.4,148.1,207.6,210s-165,87.3-260,46.3c-94.9-41.1-123.4-148.6-189.2-197.7-65.6-49-168.4-39.6-154.2-48.4,14.4-8.8,145.8-36,91.6-74.3C350.7,149.2,110.9,99.7,49.1,61.5-12.7,23.3,103.8-3.6,223.8,11.1c119.8,14.8,243.4,71.2,355.1,78.5,111.7,7.4,211.4-34.4,239.9-30.3"/>
</svg>