<?xml version="1.0" encoding="UTF-8"?>
<svg id="Capa_1" xmlns="http://www.w3.org/2000/svg" version="1.1" viewBox="0 0 157.15 162.87">
  <!-- Generator: Adobe Illustrator 29.0.0, SVG Export Plug-In . SVG Version: 2.1.0 Build 186)  -->
  <path d="M81.16.94c14.19-2.02,41.01,17.08,50.26,27.37,11.14,12.38,24.17,41.08,15.54,56.88-4.09,7.49-17.6,4.07-24.42,4.19-6.05.1-12.27.99-17.83,1.07-16.23.26-37.06-1.8-52.53-.04-11.39,1.3-11.34,11.83-10.39,21.18,1.81,17.81,19.93,37.85,39.02,29.97,11.46-4.73,6.53-21.08-3.12-16.9-2.4,1.04-9.24,10.02-12.64,3.2-4.63-9.28,9.01-17.51,17.83-16.77,25.81,2.17,22.18,43.2-7.37,47.85C3.33,170.3-24.84,49.68,49.92,25.08c3.95-1.3,11.17-1.89,14.19-3.62,6.32-3.64,4.27-18.71,17.05-20.53h0Z"/>
</svg>