<?xml version="1.0" encoding="UTF-8"?>
<svg id="Capa_1" xmlns="http://www.w3.org/2000/svg" version="1.1" viewBox="0 0 1920 1080">
  <!-- Generator: Adobe Illustrator 29.0.0, SVG Export Plug-In . SVG Version: 2.1.0 Build 186)  -->
  <defs>
    <style>
      .st0 {
        fill: #f7fafb;
      }

      .st1 {
        fill: #81e1ff;
      }

      .st2 {
        fill: #d7e8ef;
      }
    </style>
  </defs>
  <rect class="st1" width="1920" height="1080"/>
  <g>
    <path class="st2" d="M1709.1,195.2c-.8,2.8-2.5,5.3-4.8,7.1.2,3.1-.4,6.2-1.7,9.1-2.4,5.3-7,9.4-12.6,11-5.6,1.6-11.7.7-16.5-2.5-1.1-.7-2.1-1.6-3-2.5-2.3,3.3-5.9,5.7-10,6.5-4,.8-8,0-11.3-1.9-3.2,8.3-10.3,14.7-19.2,16.8-8.9,2.2-18.2-.3-24.9-6.4-7.4,3-15.7,3.4-23.4.9-6.4-2.1-12-6.1-16-11.2-3,2.2-6.6,3.2-10.4,2.8-3.9-.4-7.5-2.3-9.9-5.3-1.7,3.9-4.8,7-8.7,8.7-4.3,1.9-9.1,2-13.4.2-3.6,4-8.6,6.6-14.1,7.2-6,.7-11.9-1.1-16.5-4.8-6.5,5.4-15.7,6.7-23.6,2.9-6.3-2.9-10.7-8.5-12.2-15-5.1,2.6-11.5,2-16.3-1.8-4-3.3-6-8.2-5.5-13.1-1.6-1.2-2.9-2.8-3.7-4.7-.7-1.7-1-3.5-.9-5.2,5.7,11.6,18.2,17.9,30.7,15.9,1.7,4.3,5.1,7.9,9.5,9.8,3.7,1.6,7.7,1.9,11.5.9,5.4,5.2,13.3,6.9,20.5,4.3,5.8-2.2,10.1-6.9,11.9-12.5,4.6,2.9,10.1,4.1,15.5,3.3,5.5-.8,10.5-3.6,14-7.8,3.1,4.1,8.3,6.2,13.5,5.4,4-.6,7.5-3,9.6-6.2,6.9,7.9,17.6,11.5,28,9.1,8.7-2,15.8-7.8,19.5-15.6,3,3.3,7.2,5.4,11.9,5.5,4.9.2,9.5-1.8,12.7-5.3,4.2,4.8,10.5,7.2,16.9,6.3,4.4-.6,8.3-2.7,11.2-5.8,2.3,2.4,5.2,4.1,8.6,4.7,4.6.9,9.4-.2,13.2-3,3.8-2.9,6.1-7.2,6.4-11.9.3-4.7-1.4-9.3-4.8-12.7,2.7-1,5.7-1.1,8.5-.4,3.6,1,6.7,3.4,8.5,6.7,1.8,3.3,2.2,7.2,1.2,10.8Z"/>
    <path class="st0" d="M1695.7,190.8c-.3,4.7-2.7,9.1-6.4,11.9-3.8,2.9-8.6,4-13.2,3-3.3-.7-6.3-2.3-8.6-4.7-2.9,3.1-6.8,5.2-11.2,5.8-6.4.9-12.7-1.5-16.9-6.3-3.2,3.5-7.8,5.5-12.7,5.3-4.6-.1-8.9-2.2-11.9-5.5-3.7,7.8-10.8,13.6-19.5,15.6-10.4,2.4-21.1-1.2-28-9.1-2.1,3.3-5.6,5.6-9.6,6.2-5.2.8-10.4-1.3-13.5-5.4-3.5,4.2-8.5,7-14,7.8-5.5.8-11-.4-15.5-3.3-1.8,5.7-6.1,10.4-11.9,12.5-7.2,2.6-15.1.9-20.5-4.3-3.8,1-7.9.7-11.5-.9-4.4-1.9-7.8-5.4-9.5-9.8-12.5,2-25-4.3-30.7-15.9-2.9,0-5.7-1.4-7.7-3.7-2.5-2.9-3.2-7-1.7-10.6s4.7-6.1,8.6-6.5c2.1-.2,4.2.2,6,1.1,1.8-2.8,4.7-4.7,8.1-5.2,4.1-.6,8.2,1,10.8,4.2,3.7-5.1,9.5-8.4,15.9-9,5.4-.5,10.7.9,15,3.9,1.7-3.2,4.8-5.6,8.6-6.4,3.4-.7,6.8,0,9.6,2,1.4-2.6,3.7-4.8,6.5-6.1,2.5-1.2,5.3-1.7,8-1.4,4.8-12.1,17-19.9,30.4-19,12.6.9,22.9,9.4,26.7,20.9,4-2.7,9.1-3.7,14-2.6,4.6,1.1,8.6,3.9,11.1,7.7,2.1-2.5,4.9-4.5,8.1-5.7,3.4-1.3,7-1.6,10.4-1,4.5-9.1,14.3-14.8,24.9-13.7,10.4,1.1,18.6,8.3,21.4,17.7,6-1.1,12.3.3,17.3,4.1,4.4,3.3,7.4,8.1,8.5,13.4,3.3,3.3,5.1,8,4.8,12.7Z"/>
    <path class="st2" d="M1509.4,206.9c1.2,1.3,2.4,2,3.5,2.5,1.2.5,2.3.7,3.4.7,1.1,0,2.2-.2,3.4-.8,1.1-.5,2.3-1.3,3.5-2.6.4,1.7-.2,3.7-1.5,5.1-1.3,1.4-3.3,2.3-5.3,2.3-2,0-4-.8-5.3-2.2-1.3-1.4-2-3.3-1.7-5Z"/>
    <path class="st2" d="M1661.1,197.5c1.2,1.3,2.4,2,3.5,2.5,1.2.5,2.3.7,3.4.7,1.1,0,2.2-.2,3.4-.8,1.1-.5,2.3-1.3,3.5-2.6.4,1.7-.2,3.7-1.5,5.1-1.3,1.4-3.3,2.3-5.3,2.3-2,0-4-.8-5.3-2.2-1.3-1.4-2-3.3-1.7-5Z"/>
    <path class="st2" d="M1594.4,186.6c2.4,4.1,5.5,7.2,9,9.2,3.5,2.1,7.5,3.1,11.4,3.1,3.9,0,7.8-1.2,11.3-3.3,3.5-2.2,6.5-5.3,8.8-9.4,0,4.8-2.2,9.7-5.9,13.1-3.7,3.5-8.9,5.6-14.1,5.6-5.2,0-10.5-1.9-14.3-5.3-3.8-3.4-6.2-8.2-6.2-13Z"/>
    <path class="st2" d="M1556.3,197.6c1.9,2.3,3.9,3.8,6,4.8,2,1,4.1,1.4,6.2,1.4,2.1,0,4.1-.5,6.2-1.5,2-1,4-2.6,5.9-4.9.5,3-.7,6.3-2.9,8.6-2.3,2.4-5.6,3.8-9,3.8-3.4,0-6.8-1.3-9.1-3.6-2.3-2.3-3.6-5.5-3.1-8.5Z"/>
    <path class="st2" d="M1474.5,207.5c-1.2,2.1-3.3,3.7-5.7,4.6-2.4.9-5,1.1-7.6.5-2.5-.5-4.9-1.8-6.7-3.6-1.8-1.8-3-4.1-3.3-6.5,1.7,1.7,3.4,3,5.2,4,1.8,1,3.6,1.7,5.6,2.2,1.9.4,3.9.5,6,.3,2.1-.2,4.1-.7,6.4-1.5Z"/>
  </g>
  <g>
    <path class="st2" d="M1366.9,389.2c-1.6,1.7-3.7,2.8-6,2.9-.9,3-2.9,5.8-5.7,7.5-3.5,2.3-7.7,2.8-11.6,1.7-2.9,3.2-7,5.4-11.5,5.9-5.1.5-10.1-1.1-13.8-4.4-1.2,1.7-2.6,3.2-4.4,4.4-1.9,1.3-4.1,2.2-6.3,2.7-.4,4.9-2.3,9.6-5.7,13.4-5.6,6.1-14,8.6-21.9,6.8-2.4,3.6-6.2,6.1-10.6,6.8-5.5.8-11-1.3-14.4-5.5-4.9,3.9-11.3,5.6-17.5,4.4-7.4-1.4-13.5-6.5-16.2-13.6-6.6,4.1-14.2,6.2-22.1,6.1-10.9-.2-21.2-4.7-28.8-12.5-2.9,1.9-6.4,2.9-10,2.7-4.2-.2-8.1-2.1-10.9-5-2.6.5-5.2,0-7.6-1.2-3.9-2.2-6.3-6.4-6-10.9,0-.8.2-1.6.4-2.4.8,2.9,2.7,5.5,5.5,7,3.3,1.9,7.2,2,10.6.5,2.4,3.2,6.3,5,10.3,4.9,3.5-.1,6.7-1.7,9-4.3,4,5.2,10.7,7.7,17.2,6.2,5.4-1.2,9.7-4.9,11.8-9.8,2.1,3.5,5.9,5.8,10.2,5.9,3.7.1,7.2-1.4,9.6-4,4.7,5.1,12.3,6.6,18.8,3.4,5.4-2.7,8.6-8.1,8.8-13.8,5.9,8.3,16.1,12.6,26.4,10.8,10.5-1.8,18.6-9.6,21.2-19.6,2.7,3.5,7,5.5,11.5,5,4.4-.4,8.2-3.1,10.2-6.9,1.9,2.9,5.1,4.8,8.6,5.3,2.9.4,5.7-.3,8.1-1.8,2,2,4.8,2.9,7.6,2.5,2.2-.3,4.1-1.4,5.5-3,2.2,1.4,4.9,1.9,7.5,1.3,1.9-.5,3.6-1.6,4.9-3.2,1.2.3,2.4.2,3.6-.2,1.7-.6,3.1-2,3.8-3.7.6-1.4.6-3,0-4.5.6.6,1.1,1.4,1.4,2.1,1.6,3.4,1,7.4-1.5,10.2Z"/>
    <path class="st0" d="M1366.9,381.3c-.7,1.7-2.1,3.1-3.8,3.7-1.2.4-2.4.5-3.6.2-1.2,1.5-2.9,2.6-4.9,3.2-2.6.7-5.3.2-7.5-1.3-1.4,1.6-3.3,2.7-5.5,3-2.8.4-5.6-.6-7.6-2.5-2.4,1.5-5.2,2.2-8.1,1.8-3.5-.4-6.6-2.4-8.6-5.3-2,3.8-5.8,6.4-10.2,6.9-4.5.4-8.9-1.5-11.5-5-2.6,10-10.8,17.8-21.2,19.6-10.3,1.8-20.5-2.5-26.4-10.8-.1,5.7-3.4,11.1-8.8,13.8-6.4,3.2-14.1,1.7-18.8-3.4-2.4,2.6-5.9,4.1-9.6,4-4.2-.1-8-2.4-10.2-5.9-2.1,4.9-6.5,8.6-11.8,9.8-6.5,1.5-13.2-1-17.2-6.2-2.2,2.6-5.5,4.2-9,4.3-4,.1-7.9-1.7-10.3-4.9-3.4,1.5-7.3,1.4-10.6-.5-2.7-1.5-4.7-4.1-5.5-7,1-3.4,3.5-6.3,6.9-7.6,3.7-1.5,7.9-.9,11,1.4,1.1-3.7,3.9-6.7,7.7-8s3.3-.7,4.9-.6c.3-6.7,4.2-13,10.5-16.2,5.1-2.6,10.9-2.7,15.9-.7.7-3,2.4-5.7,5-7.6,1.8-1.4,4-2.2,6.2-2.5,1.4-14.5,12.4-26.6,27.2-28.9,12.9-2,25.3,3.8,32.1,14.2,5.8-3.6,13.1-4.3,19.5-1.4,5,2.2,8.9,6.3,10.9,11.1,6.2-2,13-1.8,19.1.6,6.7,2.7,12,7.8,15,14.1,3.1-.8,6.5-.6,9.7.8,3.8,1.7,6.7,4.9,8.1,8.7,2.4-.7,5-.6,7.5,0,1.5-1.5,3.6-2.5,5.8-2.6,2.9-.2,5.6.9,7.5,3h0c.5,1.5.5,3.1,0,4.5Z"/>
    <path class="st2" d="M1194.7,399.7c1,1.3,2.1,2.2,3.3,2.8,1.2.6,2.4.9,3.6.9,1.2,0,2.5-.3,3.6-.9,1.2-.6,2.2-1.6,3.2-2.9.2,1.7-.5,3.5-1.8,4.8-1.3,1.3-3.2,2.1-5,2.1-1.9,0-3.8-.7-5.1-2-1.3-1.3-2.1-3-1.9-4.7Z"/>
    <path class="st2" d="M1289,382.2c1,1.3,2.1,2.2,3.3,2.8,1.2.6,2.4.9,3.6.9,1.2,0,2.5-.3,3.6-.9,1.2-.6,2.2-1.6,3.2-2.9.2,1.7-.5,3.5-1.8,4.8-1.3,1.3-3.2,2.1-5,2.1-1.9,0-3.8-.7-5.1-2-1.3-1.3-2.1-3-1.9-4.7Z"/>
    <path class="st2" d="M1327.1,383.6c1,1.3,2.1,2.2,3.3,2.8,1.2.6,2.4.9,3.6.9,1.2,0,2.5-.3,3.6-.9,1.2-.6,2.2-1.6,3.2-2.9.2,1.7-.5,3.5-1.8,4.8-1.3,1.3-3.2,2.1-5,2.1-1.9,0-3.8-.7-5.1-2-1.3-1.3-2.1-3-1.9-4.7Z"/>
    <path class="st2" d="M1232.8,385.7c2.1,3,4.5,5.1,7.1,6.5,2.6,1.4,5.4,2.1,8.2,2,2.8,0,5.5-.8,8.1-2.2,2.6-1.5,4.9-3.6,7-6.6.4,3.7-1.2,7.5-4.1,10.3-2.8,2.8-6.9,4.5-11,4.5-4.1,0-8.2-1.5-11.1-4.3-2.9-2.7-4.6-6.6-4.3-10.2Z"/>
  </g>
  <g>
    <path class="st2" d="M721.4,282.6c-2,4.1-6.2,6.7-10.7,6.8-3.4,0-6.5-1.3-8.8-3.6-2,2.5-5.2,3.9-8.5,3.4-2.9-.4-5.5-2.1-6.9-4.5-5.1,2.5-11.1,2.7-16.5.5-.4-.2-.8-.4-1.2-.5-3.8,2.6-8.4,4-13.2,4.2-8.5.2-16.5-3.9-21.2-10.8-2.5,2.3-6,3.3-9.4,2.5-4.3-1.1-7.4-4.8-7.6-9.3,0-1.5.2-2.9.7-4.2.6,2.4,2.3,4.4,4.6,5.4,2.7,1.1,5.7.6,7.8-1.1,2.4,2.3,5.5,3.7,8.8,3.9,3.1.2,6.2-.6,8.8-2.3,4.2,3.1,9.6,4.3,14.7,3,4.5-1.1,8.3-3.9,10.7-7.7,1.7,3.1,4.8,5.1,8.4,5.3,2.5.1,5-.8,6.8-2.3.6,2.3,2.3,4.2,4.8,4.9,2,.5,4,0,5.6-1.1,1.1,1.5,2.7,2.5,4.5,3,2.2.6,4.5.3,6.5-.9,1.9-1.1,3.3-3,3.9-5.2.5-2.2.2-4.5-1-6.4,2.9.6,5.5,2.1,7.3,4.6,2.8,3.6,3.2,8.5,1.2,12.6Z"/>
    <path class="st0" d="M713.9,271.8c-.5,2.2-1.9,4.1-3.9,5.2-2,1.1-4.3,1.5-6.5.9-1.8-.5-3.4-1.6-4.5-3-1.6,1.2-3.6,1.6-5.6,1.1-2.4-.6-4.2-2.5-4.8-4.9-1.9,1.6-4.3,2.4-6.8,2.3-3.6-.1-6.8-2.2-8.4-5.3-2.4,3.8-6.2,6.6-10.7,7.7-5.1,1.2-10.5,0-14.7-3-2.6,1.7-5.7,2.5-8.8,2.3-3.3-.2-6.4-1.6-8.8-3.9-2.2,1.7-5.2,2.2-7.8,1.1-2.4-1-4.1-3-4.6-5.4,1-2.6,3.2-4.8,5.9-5.8,1.9-.7,3.8-.8,5.7-.3.2-.8.6-1.6,1-2.3,1.2-1.9,3.2-3.3,5.5-3.8,2-.4,4.1,0,5.9.9,1.6-4.3,4.9-7.9,9.2-9.9,4.8-2.2,10.2-2.2,14.9-.1,2.8-4.2,7.8-6.6,13-5.8,5.5.8,9.8,4.9,11,10.2,5.2-1.6,10.9-.7,15.3,2.6,4.3,3.1,6.9,7.8,7.3,13,1.2,1.9,1.6,4.2,1,6.4Z"/>
    <path class="st2" d="M641.1,268.7c1,1.3,2.1,2.2,3.3,2.8,1.2.6,2.4.9,3.6.9,1.2,0,2.5-.3,3.6-.9,1.2-.6,2.2-1.6,3.2-2.9.2,1.7-.5,3.5-1.8,4.8-1.3,1.3-3.2,2.1-5,2.1-1.9,0-3.8-.7-5.1-2-1.3-1.3-2.1-3-1.9-4.7Z"/>
    <path class="st2" d="M695,270.7c1,1.3,2.1,2.2,3.3,2.8,1.2.6,2.4.9,3.6.9,1.2,0,2.5-.3,3.6-.9,1.2-.6,2.2-1.6,3.2-2.9.2,1.7-.5,3.5-1.8,4.8-1.3,1.3-3.2,2.1-5,2.1-1.9,0-3.8-.7-5.1-2-1.3-1.3-2.1-3-1.9-4.7Z"/>
    <path class="st2" d="M686,262.6c-.8,2.3-2.6,4.2-4.7,5.5-2.2,1.3-4.8,2-7.3,1.9-2.6,0-5.1-.9-7.2-2.3-2.1-1.4-3.7-3.4-4.4-5.8,2,1.3,3.9,2.3,5.9,3,1.9.7,3.9,1,5.9,1.1,2,0,4-.2,5.9-.8,2-.6,3.9-1.5,6-2.7Z"/>
  </g>
  <g>
    <path class="st2" d="M111.3,508.7c0,2.4-1,4.7-2.7,6.4-1.1,1.1-2.4,1.8-3.8,2.2-1.8,5.7-6.7,10-12.9,10.8-5.6.7-11.1-1.8-14.3-6.1-2.7,2.5-6.6,3.4-10.2,2.3-2.9,3.6-7.3,5.8-12.1,5.6-5.1-.2-9.6-3-12.1-7.3-2.9,1.7-6.4,2-9.6.9-2.9-1-5.2-3.2-6.5-5.9-2,.5-4.1.3-6-.8-2.5-1.4-3.9-4.1-3.9-6.8.8,2.6,2.8,4.5,5.4,5.1,2.3.5,4.6,0,6.4-1.6,2.3,3.6,6.6,5.5,10.9,4.8,3.9-.7,7.1-3.4,8.4-7.1,2.7,5.2,8.8,7.9,14.6,6,4.5-1.5,7.6-5.3,8.2-9.7,1.4,2.1,3.4,3.8,5.8,4.8,3.2,1.3,6.8,1.1,9.9-.4,1.6,2.8,4.9,4.2,8.1,3.4,2.5-.6,4.4-2.5,5.2-4.9,2.3,1.4,5.3,1.3,7.5-.3,1.8-1.3,2.7-3.4,2.7-5.4.6,1.3,1,2.7,1,4.1Z"/>
    <path class="st0" d="M110.3,504.6c0,2.1-.9,4.1-2.7,5.4-2.2,1.7-5.2,1.7-7.5.3-.8,2.3-2.7,4.2-5.2,4.9-3.2.8-6.5-.6-8.1-3.4-3.1,1.5-6.7,1.7-9.9.4-2.4-1-4.4-2.7-5.8-4.8-.7,4.4-3.7,8.2-8.2,9.7-5.7,1.9-11.9-.8-14.6-6-1.3,3.7-4.5,6.4-8.4,7.1-4.3.7-8.6-1.2-10.9-4.8-1.8,1.5-4.1,2.1-6.4,1.6-2.6-.6-4.7-2.5-5.4-5.1-.8-.4-1.5-.9-2.2-1.6-1.7-1.8-2.3-4.4-1.5-6.8.8-2.4,2.7-4.1,5.2-4.7,1.7-.3,3.4,0,4.8.7.3-2.2,1.6-4.3,3.4-5.6,2.6-1.9,5.9-2.1,8.7-.9,1-1.4,2.4-2.6,4.1-3.3,2.9-1.2,6.2-.9,8.7.8,2.9-5.4,8.5-8.9,14.8-9,6.3,0,11.9,3.3,15,8.5,2-1.4,4.6-2,7.2-1.5,2.6.5,4.8,2.1,6.2,4.4,3.3-1.3,7.2-.6,9.9,2,2,1.8,3,4.4,3,6.9,1.6.4,3,1.2,4.2,2.4s1.2,1.5,1.7,2.3Z"/>
    <path class="st2" d="M80,507.6c1,1.3,2.1,2.2,3.3,2.8,1.2.6,2.4.9,3.6.9,1.2,0,2.5-.3,3.6-.9,1.2-.6,2.2-1.6,3.2-2.9.2,1.7-.5,3.5-1.8,4.8-1.3,1.3-3.2,2.1-5,2.1-1.9,0-3.8-.7-5.1-2-1.3-1.3-2.1-3-1.9-4.7Z"/>
    <path class="st2" d="M61.7,507.7c-.8,2.3-2.6,4.2-4.7,5.5-2.2,1.3-4.8,2-7.3,1.9-2.6,0-5.1-.9-7.2-2.3-2.1-1.4-3.7-3.4-4.4-5.8,2,1.3,3.9,2.3,5.9,3,1.9.7,3.9,1,5.9,1.1,2,0,4-.2,5.9-.8,2-.6,3.9-1.5,6-2.7Z"/>
  </g>
  <g>
    <path class="st2" d="M264.8,721.3c-.4,2.9-2.3,5.4-5,6.5-1.4.6-3,.7-4.5.5-1,1.8-2.8,3.1-4.9,3.5-2.3.4-4.5-.2-6.2-1.7-2.2,3-5.6,4.9-9.4,5.1-3.9.2-7.6-1.3-10.2-4.1-3.3,6-9.4,9.8-16.3,10.1-6.8.2-13.2-3.1-16.9-8.8-2.4.6-4.9.3-7.2-.8-3-1.4-5.2-4-6-7.1,1.4,2.7,4.2,4.3,7.2,4.3,2.4,0,4.6-1.2,6.1-3,2.7,3.1,6.9,4.7,11.1,4,3.9-.6,7.2-3.2,8.9-6.7,1.3,1.4,3.2,2.2,5.2,2.1,2-.2,3.7-1.3,4.7-2.9,2.1,3.2,6.1,4.9,10,3.9,3.4-.8,5.9-3.4,6.8-6.6,1.1,1.3,2.7,2.1,4.5,2,1.7,0,3.2-.8,4.3-2,2.3,3.5,6.7,5.2,10.8,4.1,3.1-.8,5.4-3,6.5-5.8.3,1.1.4,2.2.3,3.4Z"/>
    <path class="st0" d="M264.5,717.9c-1.1,2.8-3.5,5-6.5,5.8-4.2,1.1-8.5-.6-10.8-4.1-1.1,1.2-2.6,1.9-4.3,2-1.8,0-3.4-.8-4.5-2-.9,3.2-3.4,5.8-6.8,6.6-3.9,1-7.9-.7-10-3.9-1,1.6-2.7,2.7-4.7,2.9-2,.2-3.9-.6-5.2-2.1-1.7,3.5-5,6-8.9,6.7-4.2.7-8.4-.9-11.1-4-1.5,1.8-3.7,2.9-6.1,3-3,0-5.8-1.6-7.2-4.3-.8,0-1.6-.2-2.4-.6-1.7-.9-2.9-2.5-3.1-4.4-.2-1.9.5-3.8,2-5,.5-.4,1-.7,1.6-.9-.3-2.2.4-4.6,2-6.3,1.7-1.9,4.1-2.8,6.4-2.6-.5-3.6.3-7.3,2.2-10.5,2.4-3.9,6.3-6.5,10.8-7.2,4.5-.8,9.1.5,12.6,3.3,1.7,1.3,3,3,4,4.8,3-1.8,6.8-1.9,10-.1,2.4,1.3,4.1,3.5,4.8,6,3.9-1.9,8.6-2,12.6,0,3.2,1.6,5.6,4.4,6.7,7.6,1.7-.5,3.5-.4,5.1.6,1.1.7,2,1.8,2.4,2.9,2-.2,4,.4,5.6,1.6,1.4,1.1,2.4,2.5,2.9,4.2Z"/>
    <path class="st2" d="M214.7,717.7c1,1.3,2.1,2.2,3.3,2.8,1.2.6,2.4.9,3.6.9,1.2,0,2.5-.3,3.6-.9,1.2-.6,2.2-1.6,3.2-2.9.2,1.7-.5,3.5-1.8,4.8-1.3,1.3-3.2,2.1-5,2.1-1.9,0-3.8-.7-5.1-2-1.3-1.3-2.1-3-1.9-4.7Z"/>
    <path class="st2" d="M243.6,717.6c1.3,1.5,2.7,2.1,4.1,2.1,1.4,0,2.8-.6,4-2.2.2,1-.2,2.1-1,2.9-.8.8-1.9,1.3-3,1.3-1.1,0-2.3-.4-3-1.2-.8-.8-1.2-1.8-1.1-2.9Z"/>
    <path class="st2" d="M200.7,722.9c-.6,1.7-1.8,3.1-3.4,4.1-1.6,1-3.5,1.5-5.3,1.4-1.9,0-3.7-.6-5.3-1.7-1.5-1-2.7-2.5-3.2-4.2,1.5.9,2.9,1.7,4.3,2.1,1.4.5,2.8.7,4.3.8,1.4,0,2.9-.1,4.3-.5,1.4-.4,2.9-1,4.4-1.9Z"/>
  </g>
  <g>
    <path class="st2" d="M638.4,213.2c-2.8,4.2-7.4,7-12.5,7.3-2.9.2-5.8-.4-8.4-1.6-.8,1.4-1.8,2.6-3.1,3.8-3.9,3.6-9.1,5-14.1,4.3-.2.8-.4,1.6-.7,2.3-1.9,5.1-6,9.2-11.1,11.2s-10.9,1.6-15.8-.9c-4.2-2.2-7.4-5.9-9.1-10.2-14,2.5-28.4-4.4-34.9-17.5-5.1,2.8-11.1,3.6-17,2.3-7.5-1.8-13.7-7-16.6-14-1.4-.3-2.8-.9-4-1.8-2.3-1.8-3.6-4.5-3.7-7.4s1.2-5.7,3.4-7.5c1.8-1.5,4-2.3,6.2-2.2-2.8,3-2.8,7.6,0,10.6.8.9,1.8,1.6,2.9,2.1.8,6.4,5.1,11.9,11.3,13.9,5.9,2,12.3.4,16.7-3.7,3.4,3.5,7.9,5.8,12.7,6.5,4.4.6,8.9-.2,12.8-2.2.6,4.8,3.8,9,8.5,10.6,4.4,1.5,9.3.5,12.7-2.6,4.6,3.5,10.7,4.6,16.3,3,5.3-1.6,9.5-5.4,11.6-10.3,4,2.4,9,2.9,13.5,1.2,2.7-1,4.9-2.7,6.6-4.8,3.8,1.4,8.1.2,10.7-3,2.7-3.3,2.9-7.9.6-11.4,2.8,2,4.8,4.7,6,8,1.7,4.8,1,10.1-1.8,14.4Z"/>
    <path class="st0" d="M633.7,202.2c-2.6,3.2-6.9,4.3-10.7,3-1.7,2.1-4,3.8-6.6,4.8-4.5,1.7-9.4,1.2-13.5-1.2-2.1,4.9-6.3,8.7-11.6,10.3-5.7,1.7-11.7.5-16.3-3-3.4,3.1-8.2,4.2-12.7,2.6-4.7-1.6-8-5.8-8.5-10.6-3.9,2-8.4,2.8-12.8,2.2-4.9-.7-9.4-3-12.7-6.5-4.4,4.2-10.8,5.7-16.7,3.7-6.2-2.1-10.6-7.6-11.3-13.9-1.1-.4-2.1-1.1-2.9-2.1-2.7-3-2.7-7.6,0-10.6,1.8-4.1,5.4-7.3,9.9-8.4,2.8-.7,5.6-.6,8.2.3,3.2-6.7,9.2-11.7,16.6-13.6,3.5-.9,7.1-1,10.5-.3,4.4-12.4,16.4-20.7,29.9-20.1,11.6.5,21.7,7.5,26.3,17.6,4.1-.7,8.3,0,11.9,2.2,3.8,2.2,6.6,5.6,8,9.6,6.2-.2,12.1,3.2,15,8.9,2.2,4.4,2.4,9.4.6,13.7,2.3,3.5,2.1,8.1-.6,11.4Z"/>
    <path class="st2" d="M615.5,199.8c1.2,1.3,2.4,2,3.5,2.5,1.2.5,2.3.7,3.4.7,1.1,0,2.2-.2,3.4-.8,1.1-.5,2.3-1.3,3.5-2.6.4,1.7-.2,3.7-1.5,5.1-1.3,1.4-3.3,2.3-5.3,2.3-2,0-4-.8-5.3-2.2-1.3-1.4-2-3.3-1.7-5Z"/>
    <path class="st2" d="M541.6,198.1c-.8,2.3-2.6,4.2-4.7,5.5-2.2,1.3-4.8,2-7.3,1.9-2.6,0-5.1-.9-7.2-2.3-2.1-1.4-3.7-3.4-4.4-5.8,2,1.3,3.9,2.3,5.9,3,1.9.7,3.9,1,5.9,1.1,2,0,4-.2,5.9-.8,2-.6,3.9-1.5,6-2.7Z"/>
    <path class="st2" d="M562.8,207.3c1.9,3.1,4.3,5.2,6.9,6.3,2.6,1.1,5.3,1.3,7.9.6,2.5-.7,4.8-2.2,6.5-4.4,1.7-2.3,2.8-5.2,2.8-8.9,2.4,2.8,2.9,7.3,1.4,11.1-.7,1.9-2,3.7-3.6,5.1-1.6,1.4-3.5,2.4-5.6,3-4.1,1.1-8.7.2-11.9-2.4-3.2-2.5-5-6.6-4.4-10.3Z"/>
  </g>
  <g>
    <path class="st2" d="M409.1,797c-.3,2.6-1.7,4.9-3.9,6.4s-4.9,1.9-7.4,1.3c-2.1-.5-3.9-1.8-5.1-3.6-1,1.2-2.5,2.1-4.2,2.4-2.5.4-5-.7-6.5-2.6-1.9,3-5.2,5-8.9,5.2-3.9.2-7.6-1.6-9.9-4.6-2.9,3.2-7,5.2-11.6,5.5-5.8.3-11.2-2.3-14.5-6.8-1.6,2.2-3.9,4-6.6,5-4.7,1.8-9.8,1-13.7-1.9-2.4,5.5-7.1,9.8-13.2,11.5-8,2.3-16.5-.5-21.6-6.8-2.1,1.8-4.7,3.1-7.5,3.6-4,.8-8,0-11.4-2-3.3,2.6-7.5,4-11.7,3.8-4.1-.1-8-1.7-11.1-4.3-3.7,2.2-8,3-12.2,2.4-3.4-.5-6.6-1.9-9.2-4.1-2.4,1.6-5.6,2-8.3.8-3.4-1.4-5.6-4.6-5.6-8.3,0-.3,0-.6,0-1,1.1,2.2,3.3,3.8,5.8,4,2,.2,3.9-.5,5.3-1.8,2.8,1.8,6.3,2.2,9.5,1,3.4-1.3,5.9-4.3,6.7-7.8,2.8,1.8,6.3,2.1,9.4.8,3.8-1.7,6.2-5.5,6-9.7,2.5.3,5.1-.2,7.4-1.5,2.4-1.4,4.4-3.5,5.4-6,2.3,6.5,8.7,10.9,15.8,10.3,5.2-.4,9.6-3.4,12.1-7.6,1.8,2.5,4.6,4.2,7.8,4.6,3.4.4,6.7-.7,9.2-3,2.9,5.4,8.9,8.5,15.1,7.5,4.2-.6,7.7-3,9.9-6.4,2.6,3.4,6.7,5.5,11.1,5.6,3.8.1,7.4-1.2,10.1-3.6,2.7,5.3,7.8,9.1,13.7,10.1,5.2.8,10.5-.6,14.6-3.9,4.3,3.5,10.3,4,15.2,1.6,1.2,1.8,3.2,2.9,5.5,3.1,3.2.3,6.3-1.6,7.5-4.6.9,1.6,1.3,3.6,1.1,5.5Z"/>
    <path class="st0" d="M408,791.5c-1.2,3-4.3,4.9-7.5,4.6-2.2-.2-4.2-1.4-5.5-3.1-4.9,2.5-10.8,1.9-15.2-1.6-4,3.3-9.3,4.7-14.6,3.9-6-.9-11.1-4.7-13.7-10.1-2.8,2.4-6.4,3.7-10.1,3.6-4.4-.2-8.4-2.2-11.1-5.6-2.2,3.3-5.7,5.7-9.9,6.4-6.2,1-12.2-2.1-15.1-7.5-2.4,2.2-5.7,3.4-9.2,3-3.2-.4-6-2.1-7.8-4.6-2.5,4.2-6.9,7.2-12.1,7.6-7.1.6-13.6-3.8-15.8-10.3-1.1,2.5-3,4.7-5.4,6-2.3,1.2-4.8,1.8-7.4,1.5.2,4.1-2.1,8-6,9.7-3.1,1.4-6.7,1-9.4-.8-.7,3.5-3.2,6.5-6.7,7.8-3.2,1.2-6.7.8-9.5-1-1.4,1.2-3.3,1.9-5.3,1.8-2.6-.2-4.8-1.8-5.8-4,.3-3.2,2.4-6.1,5.5-7.3,1.6-.7,3.3-.8,4.9-.6.1-1.1.5-2.3,1.2-3.3,1.8-2.5,5.1-3.4,7.9-2.4,1-1.6,2.4-3.1,4.1-4.1,2.6-1.6,5.7-2.1,8.7-1.6.3-2,1.2-3.9,2.8-5.3.9-.8,2-1.4,3.1-1.7-.2-7.7,3.5-15,10.1-19.4,4.3-2.8,9.3-4,14.1-3.6,0-5.1,1.8-10,5-14,4.1-5.1,10.2-8.3,16.8-8.6,6.6-.3,13,2.2,17.6,6.9,3.1,3.1,5.1,7.1,6,11.3,5.4-1.1,11.1-.2,16,2.6,4.9,2.8,8.5,7.1,10.4,12.2,3.8-1.7,8.1-1.9,12.1-.2,4,1.7,7,4.9,8.4,8.8,6-3.4,13.1-4.4,20-2.6,7.9,2,14.3,7.5,17.6,14.8,3.2-1.2,7-.3,9.3,2.4,2,2.4,2.5,5.6,1.5,8.3Z"/>
    <path class="st2" d="M253.1,773.8c1,1.3,2.1,2.2,3.3,2.8,1.2.6,2.4.9,3.6.9,1.2,0,2.5-.3,3.6-.9,1.2-.6,2.2-1.6,3.2-2.9.2,1.7-.5,3.5-1.8,4.8-1.3,1.3-3.2,2.1-5,2.1-1.9,0-3.8-.7-5.1-2-1.3-1.3-2.1-3-1.9-4.7Z"/>
    <path class="st2" d="M320.3,776.2c-1.1,2.6-3.1,4.8-5.6,6.2-2.5,1.5-5.5,2.2-8.4,2.1-3,0-5.9-1-8.3-2.6-2.4-1.6-4.4-3.9-5.3-6.5,2.3,1.6,4.5,2.9,6.8,3.7,2.3.9,4.6,1.3,7,1.4,2.4,0,4.7-.3,7-1,2.3-.7,4.6-1.9,6.9-3.4Z"/>
    <path class="st2" d="M336.8,773.9c2.5,3.1,5.3,5.5,8.3,7.2,3,1.7,6.2,2.6,9.5,2.8,3.3.2,6.6-.3,9.8-1.5,3.2-1.2,6.2-3.2,9.2-6-.7,4-3.3,7.7-6.9,10.1-3.5,2.5-8,3.7-12.4,3.4-4.4-.3-8.7-2.1-11.9-5-3.2-2.9-5.3-6.9-5.5-10.9Z"/>
  </g>
  <g>
    <path class="st2" d="M1799.6,721c-.4,6.5-5,12-11.4,13.4-5.3,1.2-10.7-.7-14.1-4.7-1.9,1.8-4.2,3.1-6.9,3.6-4.2.8-8.4-.3-11.6-2.9-3.5,4-8.3,6.7-13.7,7.5-6.5.9-13-1.1-17.8-5.3-1.8,1.9-4.2,3.4-6.9,4.1-4.5,1.2-9.2.1-12.7-2.7-3.1,4.3-7.9,7.2-13.3,8-4.2.6-8.4-.2-12.1-2.2-2.6,2.9-6,4.9-9.9,5.8-5,1.2-10.3.2-14.6-2.5-3.3,6-8.3,11-14.6,14.3-8.4,4.4-18.1,5.1-27,2.1-4.4,6.8-11.4,11.6-19.6,13.1-9.5,1.8-19.2-1.1-26.1-7.6-9.3,7.3-21.4,10.3-33.2,8.1-12.1-2.3-22.4-9.9-28.2-20.5-6,3.2-12.9,4.6-19.8,3.9-8.4-.9-16.1-4.8-21.7-10.8-2.6,2.8-6.2,4.6-10.2,4.8-5.7.4-11.1-2.4-14.2-7.2-2.3-3.8-2.9-8.2-1.8-12.4,1.8,5.1,6.2,8.8,11.6,9.6,5.4.8,10.7-1.4,13.9-5.7,2.4,4,6.7,6.6,11.5,6.7,4.5.1,8.6-1.9,11.3-5.4,2.7,2.9,6.9,4.3,10.9,3.3,3.4-.8,6-3.1,7.4-6.1,7.9,11,21.9,16.2,35.3,12.7,11.6-3,20.4-11.9,23.7-22.9,3,7.2,9.9,12.4,18.1,12.9,9.2.6,17.6-5,20.8-13.2,2.9,9.7,11.5,16.7,21.8,17.4,9.4.7,18.2-4.1,22.9-11.9,3.3,5,9.1,7.9,15.2,7.5,5.9-.4,11.1-3.9,13.8-9,3.5,3.2,8.3,4.7,13.1,3.9,4.4-.8,8.2-3.4,10.4-7,3.2,3.2,8.1,4.4,12.4,2.6,4.2-1.7,6.9-5.6,7.2-9.9,9.9,7.9,24,8.2,34.3.8,3.1,4.7,8.5,7.5,14.2,7.4,4.8,0,9.3-2.3,12.4-5.8,3.1,2.7,7.5,3.6,11.5,2.2,3-1.1,5.4-3.3,6.7-6.1.7,1.9,1.1,4,1,6.1Z"/>
    <path class="st0" d="M1798.6,714.9c-1.3,2.8-3.6,5.1-6.7,6.1-4,1.4-8.4.5-11.5-2.2-3.1,3.6-7.5,5.7-12.4,5.8-5.7.1-11.1-2.7-14.2-7.4-10.3,7.4-24.4,7.1-34.3-.8-.3,4.3-3,8.2-7.2,9.9-4.4,1.7-9.2.6-12.4-2.6-2.3,3.7-6.1,6.3-10.4,7-4.8.8-9.6-.6-13.1-3.9-2.7,5.1-7.9,8.6-13.8,9-6.1.4-11.9-2.5-15.2-7.5-4.7,7.9-13.5,12.6-22.9,11.9-10.2-.8-18.8-7.7-21.8-17.4-3.3,8.3-11.6,13.8-20.8,13.2-8.2-.5-15.1-5.7-18.1-12.9-3.2,11-12.1,19.9-23.7,22.9-13.4,3.5-27.4-1.8-35.3-12.7-1.4,3-4.1,5.3-7.4,6.1-4.1,1-8.2-.3-10.9-3.3-2.7,3.4-6.8,5.5-11.3,5.4-4.8-.1-9.1-2.7-11.5-6.7-3.2,4.3-8.5,6.5-13.9,5.7-5.4-.8-9.8-4.6-11.6-9.6.3-1.2.8-2.4,1.5-3.5,2.7-4.7,7.6-7.6,13-7.7,0-3.3,1.5-6.6,4.2-8.8,3.5-2.8,8.2-3.2,12-1.3,1.3-2,3.3-3.5,5.6-4,.5-.1,1-.2,1.6-.2-.1-1-.1-1.9,0-2.9.3-4.2,2.2-8.1,5.4-10.8,3.1-2.5,7-3.8,11-3.5-.4-4.5,1.2-9.1,4.5-12.4,2.5-2.5,5.6-4,8.9-4.5,4.5-15.8,18.6-27.5,35.5-28.4,15.9-.9,30.4,7.7,37.4,21.4,3.9-2.4,8.8-3,13.3-1.5,5.8,1.9,10,6.9,10.8,12.9,7.8-3.4,16.7-3.8,24.8-.8,7.2,2.7,13.2,7.8,17,14.3,5.4-4.4,12.6-6.2,19.6-4.5,6.5,1.6,11.8,5.8,14.7,11.5,3.8-4.4,9.4-7.1,15.4-7.3,5.4-.2,10.5,1.7,14.5,5.1,3.3-12.2,14.6-20.9,27.6-20.5,12.5.4,22.9,9,26,20.7,4.5-.3,9,.8,12.9,3.2,3.3,2,5.9,4.9,7.6,8.2,2.2-.3,4.6-.1,6.9.6,4.2,1.4,7.3,4.6,8.8,8.5Z"/>
    <path class="st2" d="M1593.2,717c1.4,2,3,3.4,4.8,4.4,1.8,1,3.7,1.4,5.5,1.4,1.9,0,3.8-.5,5.5-1.5,1.7-1,3.3-2.5,4.7-4.5.2,2.5-.9,5.1-2.8,7-1.9,1.9-4.6,3-7.4,3-2.8,0-5.5-1-7.5-2.9-2-1.8-3.1-4.4-2.9-6.9Z"/>
    <path class="st2" d="M1554.7,719c1.3,1.4,2.5,2.3,3.8,2.9,1.3.6,2.6.8,3.8.8,1.3,0,2.5-.3,3.8-.9,1.3-.6,2.5-1.5,3.7-3,.4,1.9-.4,4-1.8,5.5-1.4,1.5-3.6,2.4-5.7,2.4-2.1,0-4.3-.8-5.8-2.3-1.5-1.5-2.3-3.5-1.9-5.4Z"/>
    <path class="st2" d="M1491.7,723.4c2.5,3.1,5.3,5.5,8.3,7.2,3,1.7,6.2,2.6,9.5,2.8,3.3.2,6.6-.3,9.8-1.5,3.2-1.2,6.2-3.2,9.2-6-.7,4-3.3,7.7-6.9,10.1-3.5,2.5-8,3.7-12.4,3.4-4.4-.3-8.7-2.1-11.9-5-3.2-2.9-5.3-6.9-5.5-10.9Z"/>
    <path class="st2" d="M1658.8,718.8c3,2.7,6,4.6,9.3,5.8,3.2,1.2,6.5,1.6,9.8,1.3,3.3-.3,6.5-1.3,9.4-3,3-1.7,5.7-4.1,8.1-7.3-.1,4.1-2.1,8.1-5.3,11.1-3.1,3-7.4,4.9-11.8,5.2-4.4.4-8.9-.7-12.5-3.1-3.6-2.4-6.3-6-7.1-10Z"/>
    <path class="st2" d="M1740.5,710.9c2.1,2,4.3,3.4,6.6,4.3,2.3.9,4.7,1.2,7.1,1,2.4-.2,4.7-.9,6.8-2.2,2.1-1.3,4.1-3,5.8-5.4-.1,2.9-1.6,5.7-3.8,7.8-2.2,2.1-5.3,3.4-8.4,3.7-3.1.3-6.3-.5-8.9-2.2-2.6-1.7-4.5-4.2-5.1-7.1Z"/>
  </g>
  <g>
    <path class="st2" d="M1208,978.6c-1.3,3.6-4.4,6.2-8.2,6.8-2.2.3-4.5,0-6.5-1.1-.9,2.6-3.1,4.7-6,5.3-3.6.6-7.1-1.3-8.5-4.5-2.5,3-6,5-10,5.5-4.8.7-9.5-.9-13-4.1-3.2,5.5-8.6,9.5-15,11-7.8,1.8-15.9-.6-21.4-6-2.7,5.9-8.2,10.2-14.8,11.3-7.8,1.3-15.5-2-19.9-8.3-3.2,2.6-7.4,3.7-11.6,3-5.1-.9-9.3-4.5-11-9.3-1.8,1.2-3.8,2-6.1,2.2-2.7.3-5.3-.2-7.6-1.5-4.6,5-11.2,8.1-18.3,8.1-7.2,0-13.9-3-18.6-8.1-2.7,1.3-6,1.2-8.6-.5-2.7-1.8-4.1-4.9-3.9-8,1.4,2.9,4.2,4.7,7.4,4.7,2.3,0,4.5-.9,6.1-2.6,4.9,4.6,11.9,6.2,18.4,4.1,5.3-1.7,9.4-5.7,11.4-10.6,1.8,3,4.9,5.1,8.6,5.6,4.1.5,8-1.2,10.5-4.2,3.3,6.3,10.7,9.5,17.7,7.4,6.3-1.9,10.4-7.5,10.8-13.7,2.2,2.4,5.3,3.9,8.6,4.3,3.7.4,7.3-.6,10.2-2.8,4.1,3.5,9.9,4.5,14.9,2.4,4.4-1.9,7.5-5.7,8.5-10.2,2.6,4.6,7.4,7.7,12.9,8.1,5.3.3,10.4-2,13.6-6.1,1.1,3.1,3.8,5.4,7.1,5.9,2.5.4,5-.3,6.9-1.8,2,2.7,5.4,4.1,8.8,3.6,1.8-.3,3.4-1.1,4.7-2.3,1.7,2,4.2,3.3,7,3.5,5.5.4,10.3-3.8,10.7-9.3.8.5,1.6,1.1,2.3,1.9,2.5,2.8,3.3,6.9,2,10.4Z"/>
    <path class="st0" d="M1203.6,966.3c-.4,5.5-5.1,9.7-10.7,9.3-2.8-.2-5.3-1.5-7-3.5-1.3,1.2-2.9,2-4.7,2.3-3.4.5-6.8-.9-8.8-3.6-1.9,1.5-4.4,2.2-6.9,1.8-3.3-.5-6-2.8-7.1-5.9-3.2,4.1-8.2,6.4-13.6,6.1-5.5-.4-10.3-3.5-12.9-8.1-1,4.5-4.1,8.4-8.5,10.2-5.1,2.1-10.9,1.1-14.9-2.4-2.9,2.2-6.5,3.2-10.2,2.8-3.3-.4-6.4-1.9-8.6-4.3-.3,6.2-4.5,11.8-10.8,13.7-7,2.1-14.4-1.1-17.7-7.4-2.5,3.1-6.5,4.7-10.5,4.2-3.6-.4-6.8-2.6-8.6-5.6-2,5-6.1,8.9-11.4,10.6-6.5,2.1-13.5.5-18.4-4.1-1.5,1.6-3.8,2.6-6.1,2.6-3.2,0-6-1.9-7.4-4.7-.7-.2-1.3-.6-1.9-1.1-1.7-1.4-2.7-3.6-2.4-5.9s1.6-4.2,3.6-5.3c1.6-.9,3.5-1,5.2-.4.8-2.7,2.8-5,5.7-5.9,1.8-.6,3.8-.5,5.5,0,2.2-5.8,7-10.3,13-12.3,5.3-1.8,11-1.3,15.9,1,.9-2,2.5-3.7,4.5-4.8,1.6-.8,3.4-1.2,5.2-1.1,1.1-9.1,7.4-16.9,16.4-19.7,7.9-2.4,16.2-.5,22.2,4.6,3.1-9.5,11.3-16.8,21.5-18.6,9.9-1.8,19.8,2,26.1,9.3,6.5-3.9,14.9-3.5,21,1.3,5.3,4.2,7.8,10.8,6.9,17.2,3.2-1,6.7-.4,9.4,1.6,2.8,2.1,4.4,5.5,4.3,8.9,5.2-1.8,11-1,15.7,2.4,4.8,3.5,7.3,9.1,7,14.7Z"/>
    <path class="st2" d="M1030.7,971.8c2,1.5,3.9,2.4,5.8,3,1.9.6,3.7.7,5.5.6,1.8-.2,3.6-.6,5.3-1.5,1.8-.9,3.4-2.1,5.2-3.9.2,2.5-.9,5.1-2.8,7-1.9,1.9-4.5,3.2-7.3,3.4-2.8.2-5.6-.5-7.8-2.1-2.2-1.6-3.7-3.9-4-6.4Z"/>
    <path class="st2" d="M1068,961.9c3,2.7,6,4.6,9.3,5.8,3.2,1.2,6.5,1.6,9.8,1.3,3.3-.3,6.5-1.3,9.4-3,3-1.7,5.7-4.1,8.1-7.3-.1,4.1-2.1,8.1-5.3,11.1-3.1,3-7.4,4.9-11.8,5.2-4.4.4-8.9-.7-12.5-3.1-3.6-2.4-6.3-6-7.1-10Z"/>
    <path class="st2" d="M1123.5,961c1.4,1.2,2.8,2.1,4.3,2.6,1.5.5,3,.7,4.5.6,1.5-.1,3-.6,4.3-1.4,1.4-.8,2.6-1.9,3.8-3.3,0,1.9-.9,3.8-2.4,5.2-1.5,1.4-3.4,2.3-5.5,2.5-2.1.2-4.2-.4-5.8-1.5-1.7-1.1-2.9-2.8-3.2-4.7Z"/>
    <path class="st2" d="M1177.1,968.4c1.4,1.2,2.8,2.1,4.3,2.6,1.5.5,3,.7,4.5.6,1.5-.1,3-.6,4.3-1.4,1.4-.8,2.6-1.9,3.8-3.3,0,1.9-.9,3.8-2.4,5.2-1.5,1.4-3.4,2.3-5.5,2.5-2.1.2-4.2-.4-5.8-1.5-1.7-1.1-2.9-2.8-3.2-4.7Z"/>
  </g>
  <g>
    <path class="st2" d="M209.3,447.4c-3.6,4.3-9.4,6.1-14.8,4.6-3.6-1.1-6.6-3.5-8.4-6.6-2.6,3.7-6.6,6.5-11.1,7.7-5.5,1.4-11.2.4-15.8-2.6-2,3.2-5.2,5.7-9.1,6.8-4.8,1.2-9.7,0-13.4-3-3.4,7.8-10.4,13.8-19.2,15.5-11.6,2.4-23.2-3.3-28.7-13.4-3.5,4-8.8,6.1-14.3,5.2-6.9-1-12.2-6.3-13.3-13-4.6,2.7-10.2,3.6-15.7,2.4-7.6-1.7-13.6-7.3-15.9-14.6-3.3,1.4-7,1.7-10.6.7-5.7-1.6-10-6-11.4-11.7-.5-1.9-.6-3.9-.3-5.8,1.8,5.4,6.1,9.7,11.6,11.4,5.4,1.7,11.2.6,15.8-2.7,3.7,5,9.6,8.2,16,8.5,6.4.3,12.5-2.4,16.7-7.2,2.6,4.5,7.3,7.6,12.7,7.9,4.7.3,9.2-1.6,12.3-4.9,4.5,6.6,11.6,11.2,19.7,12.3,9,1.3,18.1-1.8,24.5-8.1,3.3,3.6,7.7,6.1,12.5,7,5.3,1,10.7,0,15.4-2.5,3.8,2.6,8.4,3.7,13,3.2,4.1-.5,7.9-2.3,10.8-5.1,3.2,4.2,8.6,6.3,13.5,5.2,5.1-1.2,9.2-5.6,10.1-11.2,1.8,4.7,1,10.1-2.3,14.1Z"/>
    <path class="st0" d="M211.6,433.4c-.9,5.6-5,10.1-10.1,11.2-5,1.1-10.3-1-13.5-5.2-2.9,2.8-6.7,4.6-10.8,5.1-4.6.6-9.2-.6-13-3.2-4.6,2.6-10.1,3.5-15.4,2.5-4.9-.9-9.3-3.4-12.5-7-6.4,6.4-15.4,9.5-24.5,8.1-8.1-1.2-15.2-5.7-19.7-12.3-3.1,3.3-7.6,5.2-12.3,4.9-5.4-.3-10.1-3.4-12.7-7.9-4.1,4.8-10.3,7.4-16.7,7.2-6.4-.3-12.2-3.4-16-8.5-4.5,3.3-10.4,4.4-15.8,2.7-5.5-1.7-9.7-6-11.6-11.4.4-3.7,2.2-7.3,5-9.9,3.8-3.5,9-5,14.1-4.1.2-2,.9-3.9,2.2-5.6,1.8-2.3,4.4-3.9,7.4-4.3,2.6-.3,5.3.3,7.5,1.8,2.3-4,6.3-6.8,11-7.4,3.1-.4,6.1.2,8.8,1.6,5.1-14,19-23.2,34.2-21.9,14.3,1.2,26,11.3,29.6,24.7,5.7-.8,11.6.8,16.1,4.7,4,3.5,6.5,8.3,7,13.4,5-3.1,11.1-4,17-2.2,5.3,1.6,9.5,5.2,12.1,9.8,3.9-3.2,9.2-4.4,14.3-3.1,4.5,1.2,8.2,4.2,10.2,8.2,3.2,1.2,5.9,3.6,7.5,6.8.2.4.4.9.6,1.3Z"/>
    <path class="st2" d="M130.7,433.2c1,1.3,2.1,2.2,3.3,2.8,1.2.6,2.4.9,3.6.9,1.2,0,2.5-.3,3.6-.9,1.2-.6,2.2-1.6,3.2-2.9.2,1.7-.5,3.5-1.8,4.8-1.3,1.3-3.2,2.1-5,2.1-1.9,0-3.8-.7-5.1-2-1.3-1.3-2.1-3-1.9-4.7Z"/>
    <path class="st2" d="M47.4,423.8c-.8,2.3-2.6,4.2-4.7,5.5-2.2,1.3-4.8,2-7.3,1.9-2.6,0-5.1-.9-7.2-2.3-2.1-1.4-3.7-3.4-4.4-5.8,2,1.3,3.9,2.3,5.9,3,1.9.7,3.9,1,5.9,1.1,2,0,4-.2,5.9-.8,2-.6,3.9-1.5,6-2.7Z"/>
    <path class="st2" d="M75.5,422.7c2.5,3.1,5.3,5.5,8.3,7.2,3,1.7,6.2,2.6,9.5,2.8,3.3.2,6.6-.3,9.8-1.5,3.2-1.2,6.2-3.2,9.2-6-.7,4-3.3,7.7-6.9,10.1-3.5,2.5-8,3.7-12.4,3.4-4.4-.3-8.7-2.1-11.9-5-3.2-2.9-5.3-6.9-5.5-10.9Z"/>
    <path class="st2" d="M156.5,434.2c1.2,4.5,4.5,6.7,7.7,6.8,3.3.1,6.7-1.9,8.2-6.3,1,2.2.5,5-1.2,7.1-1.6,2.1-4.4,3.4-7.1,3.2-2.7,0-5.4-1.5-6.9-3.7-1.5-2.2-1.8-5-.7-7.1Z"/>
  </g>
  <g>
    <path class="st2" d="M1142.1,690.8c-2.8,4.2-7.4,7-12.5,7.3-2.9.2-5.8-.4-8.4-1.6-.8,1.4-1.8,2.6-3.1,3.8-3.9,3.6-9.1,5-14.1,4.3-.2.8-.4,1.6-.7,2.3-1.9,5.1-6,9.2-11.1,11.2s-10.9,1.6-15.8-.9c-4.2-2.2-7.4-5.8-9.1-10.2-14,2.5-28.4-4.4-34.9-17.5-5.1,2.8-11.1,3.6-17,2.3-7.5-1.8-13.7-7-16.6-14-1.4-.3-2.8-.9-4-1.8-2.3-1.8-3.6-4.5-3.7-7.4s1.2-5.7,3.4-7.5c1.8-1.5,4-2.3,6.2-2.2-2.8,3-2.8,7.6,0,10.6.8.9,1.8,1.6,2.9,2,.8,6.4,5.1,11.9,11.3,13.9,5.9,2,12.3.5,16.7-3.7,3.4,3.5,7.9,5.8,12.7,6.5,4.4.6,8.9-.2,12.8-2.2.6,4.8,3.8,9,8.5,10.6,4.4,1.5,9.3.5,12.7-2.6,4.6,3.5,10.7,4.6,16.3,3,5.3-1.6,9.5-5.4,11.6-10.3,4,2.4,9,2.9,13.5,1.2,2.7-1,4.9-2.7,6.6-4.8,3.8,1.4,8.1.2,10.7-3,2.7-3.3,2.9-7.9.6-11.4,2.8,2,4.8,4.7,6,8,1.7,4.8,1,10.1-1.8,14.4Z"/>
    <path class="st0" d="M1137.3,679.8c-2.6,3.1-6.9,4.3-10.7,3-1.7,2.1-4,3.8-6.6,4.8-4.5,1.7-9.4,1.2-13.5-1.2-2.1,4.9-6.3,8.7-11.6,10.3-5.7,1.7-11.7.5-16.3-3-3.4,3.1-8.2,4.2-12.7,2.6-4.7-1.6-8-5.8-8.5-10.6-3.9,2-8.4,2.8-12.8,2.2-4.9-.7-9.4-3-12.7-6.5-4.4,4.2-10.8,5.7-16.7,3.7-6.2-2.1-10.6-7.5-11.3-13.9-1.1-.4-2.1-1.1-2.9-2-2.7-3-2.7-7.6,0-10.6,1.8-4.1,5.4-7.3,9.9-8.4,2.8-.7,5.6-.6,8.2.3,3.2-6.7,9.2-11.7,16.6-13.6,3.5-.9,7.1-1,10.5-.3,4.4-12.4,16.4-20.7,29.9-20.1,11.6.5,21.7,7.5,26.3,17.6,4.1-.7,8.3,0,11.9,2.2,3.8,2.2,6.6,5.6,8,9.6,6.2-.2,12.1,3.2,15,8.9,2.2,4.4,2.4,9.4.6,13.7,2.3,3.5,2.1,8.1-.6,11.4Z"/>
    <path class="st2" d="M1119.2,677.4c1.2,1.3,2.4,2,3.5,2.5,1.2.5,2.3.7,3.4.7,1.1,0,2.2-.2,3.4-.8,1.1-.5,2.3-1.3,3.5-2.6.4,1.7-.2,3.7-1.5,5.1-1.3,1.4-3.3,2.3-5.3,2.3-2,0-4-.8-5.3-2.2-1.3-1.4-2-3.3-1.7-5Z"/>
    <path class="st2" d="M1045.3,675.8c-.8,2.3-2.6,4.2-4.7,5.5-2.2,1.3-4.8,2-7.3,1.9-2.6,0-5.1-.9-7.2-2.3-2.1-1.4-3.7-3.4-4.4-5.8,2,1.3,3.9,2.3,5.9,3,1.9.7,3.9,1,5.9,1.1,2,0,4-.2,5.9-.8,2-.6,3.9-1.5,6-2.7Z"/>
    <path class="st2" d="M1066.5,684.9c1.9,3.1,4.3,5.2,6.9,6.3,2.6,1.1,5.3,1.3,7.9.6,2.5-.7,4.8-2.2,6.5-4.4,1.7-2.3,2.8-5.2,2.8-8.9,2.4,2.8,2.9,7.3,1.4,11.1-.7,1.9-2,3.7-3.6,5.1-1.6,1.4-3.5,2.4-5.6,3-4.1,1.1-8.7.2-11.9-2.4-3.2-2.5-5-6.6-4.4-10.3Z"/>
  </g>
  <g>
    <path class="st2" d="M928.7,598.8c-.8,2.8-2.5,5.3-4.8,7.1.2,3.1-.4,6.2-1.7,9.1-2.4,5.3-7,9.4-12.6,11-5.6,1.6-11.7.7-16.5-2.5-1.1-.7-2.1-1.6-3-2.5-2.3,3.3-5.9,5.7-10,6.5-4,.8-8,0-11.3-1.9-3.2,8.3-10.3,14.7-19.2,16.8-8.9,2.2-18.2-.3-24.9-6.4-7.4,3-15.7,3.4-23.4.9-6.4-2.1-12-6.1-16-11.2-3,2.2-6.6,3.2-10.4,2.8-3.9-.4-7.5-2.3-9.9-5.3-1.7,3.9-4.8,7-8.7,8.7-4.3,1.9-9.1,2-13.4.2-3.6,4-8.6,6.6-14.1,7.2-6,.7-11.9-1.1-16.5-4.8-6.5,5.4-15.7,6.7-23.6,3-6.3-2.9-10.7-8.5-12.2-15-5.1,2.5-11.5,2-16.3-1.8-4-3.3-6-8.2-5.5-13.1-1.6-1.2-2.9-2.8-3.7-4.7-.7-1.7-1-3.5-.9-5.2,5.7,11.6,18.2,17.9,30.7,15.9,1.7,4.3,5.1,7.9,9.5,9.8,3.7,1.6,7.7,1.9,11.5.9,5.4,5.2,13.3,6.9,20.5,4.3,5.8-2.2,10.1-6.9,11.9-12.5,4.6,2.9,10.1,4.1,15.5,3.3,5.5-.8,10.5-3.6,14-7.8,3.1,4.1,8.3,6.2,13.5,5.4,4-.6,7.5-3,9.6-6.2,6.9,7.9,17.6,11.5,28,9.1,8.7-2,15.8-7.8,19.5-15.6,3,3.3,7.2,5.4,11.9,5.5,4.9.2,9.5-1.8,12.7-5.3,4.2,4.8,10.5,7.2,16.9,6.3,4.4-.6,8.3-2.7,11.2-5.8,2.3,2.4,5.2,4,8.6,4.7,4.6,1,9.4-.2,13.2-3,3.8-2.9,6.1-7.2,6.4-11.9.3-4.7-1.4-9.3-4.8-12.7,2.7-1,5.7-1.1,8.5-.4,3.6,1,6.7,3.4,8.5,6.7,1.8,3.3,2.2,7.2,1.2,10.8Z"/>
    <path class="st0" d="M915.3,594.4c-.3,4.7-2.7,9.1-6.4,11.9-3.8,2.9-8.6,4-13.2,3-3.3-.7-6.3-2.3-8.6-4.7-2.9,3.1-6.8,5.2-11.2,5.8-6.4.9-12.7-1.5-16.9-6.3-3.2,3.5-7.8,5.5-12.7,5.3-4.6-.1-8.9-2.2-11.9-5.5-3.7,7.8-10.8,13.6-19.5,15.6-10.4,2.4-21.1-1.2-28-9.1-2.1,3.3-5.6,5.6-9.6,6.2-5.2.8-10.4-1.3-13.5-5.4-3.5,4.2-8.5,7-14,7.8-5.5.8-11-.4-15.5-3.3-1.8,5.7-6.1,10.4-11.9,12.5-7.2,2.6-15.1.9-20.5-4.3-3.8,1-7.9.7-11.5-.9-4.4-1.9-7.8-5.4-9.5-9.8-12.5,2-25-4.3-30.7-15.9-2.9,0-5.7-1.4-7.7-3.7-2.5-2.9-3.2-7-1.7-10.6s4.7-6.1,8.6-6.5c2.1-.2,4.2.2,6,1.2,1.8-2.8,4.7-4.7,8.1-5.2,4.1-.6,8.2,1,10.8,4.2,3.7-5.1,9.5-8.4,15.9-9,5.4-.5,10.7.9,15,3.9,1.7-3.2,4.8-5.6,8.6-6.4,3.4-.7,6.8,0,9.6,2,1.4-2.6,3.7-4.8,6.5-6.1,2.5-1.2,5.3-1.7,8-1.4,4.8-12.1,17-19.9,30.4-19,12.6.9,22.9,9.4,26.7,20.9,4-2.7,9.1-3.7,14-2.6,4.6,1,8.6,3.9,11.1,7.7,2.1-2.5,4.9-4.5,8.1-5.7,3.4-1.3,7-1.6,10.4-1,4.5-9,14.3-14.8,24.9-13.7,10.4,1.1,18.6,8.3,21.4,17.7,6-1.1,12.3.3,17.3,4.1,4.4,3.3,7.4,8.1,8.5,13.4,3.3,3.4,5.1,8,4.8,12.7Z"/>
    <path class="st2" d="M729,610.5c1.2,1.3,2.4,2,3.5,2.5,1.2.5,2.3.7,3.4.7,1.1,0,2.2-.2,3.4-.8,1.1-.5,2.3-1.3,3.5-2.6.4,1.7-.2,3.7-1.5,5.1-1.3,1.4-3.3,2.3-5.3,2.3-2,0-4-.8-5.3-2.2-1.3-1.4-2-3.3-1.7-5Z"/>
    <path class="st2" d="M880.7,601.1c1.2,1.3,2.4,2,3.5,2.5,1.2.5,2.3.7,3.4.7,1.1,0,2.2-.2,3.4-.8,1.1-.5,2.3-1.3,3.5-2.6.4,1.7-.2,3.7-1.5,5.1-1.3,1.4-3.3,2.3-5.3,2.3-2,0-4-.8-5.3-2.2-1.3-1.4-2-3.3-1.7-5Z"/>
    <path class="st2" d="M814,590.2c2.4,4.1,5.5,7.2,9,9.2,3.5,2.1,7.5,3.1,11.4,3.1,3.9,0,7.8-1.2,11.3-3.3,3.5-2.2,6.5-5.3,8.8-9.4,0,4.8-2.2,9.7-5.9,13.1-3.7,3.5-8.9,5.6-14.1,5.6-5.2,0-10.5-1.9-14.3-5.3-3.8-3.4-6.2-8.2-6.2-13Z"/>
    <path class="st2" d="M775.9,601.2c1.9,2.3,3.9,3.8,6,4.8,2,1,4.1,1.4,6.2,1.4,2.1,0,4.1-.5,6.2-1.5,2-1,4-2.6,5.9-4.9.5,3-.7,6.3-2.9,8.6-2.3,2.4-5.6,3.8-9,3.8-3.4,0-6.8-1.3-9.1-3.6-2.3-2.3-3.6-5.5-3.1-8.5Z"/>
    <path class="st2" d="M694.1,611.1c-1.2,2.1-3.3,3.7-5.7,4.6-2.4.9-5,1.1-7.6.5-2.5-.5-4.9-1.8-6.7-3.6-1.8-1.8-3-4.1-3.3-6.5,1.7,1.7,3.4,3,5.2,4,1.8,1,3.6,1.7,5.6,2.2,1.9.4,3.9.5,6,.3,2.1-.2,4.1-.7,6.4-1.5Z"/>
  </g>
  <g>
    <path class="st2" d="M1172.6,341.4c0,2.4-1,4.7-2.7,6.4-1.1,1.1-2.4,1.8-3.8,2.2-1.8,5.7-6.7,10-12.8,10.8-5.6.7-11.1-1.8-14.3-6.1-2.7,2.5-6.6,3.4-10.2,2.3-2.9,3.6-7.3,5.8-12.1,5.6-5.1-.2-9.7-3-12.1-7.3-2.9,1.7-6.4,2-9.6.9-2.9-1-5.2-3.2-6.5-5.9-2,.5-4.1.3-6-.8-2.5-1.4-3.9-4.1-3.9-6.8.8,2.6,2.8,4.5,5.4,5.1,2.3.5,4.6,0,6.4-1.6,2.3,3.6,6.6,5.5,10.9,4.8,3.9-.7,7.1-3.4,8.4-7.1,2.7,5.2,8.8,7.9,14.6,6,4.5-1.5,7.6-5.3,8.2-9.7,1.4,2.1,3.4,3.8,5.8,4.8,3.2,1.3,6.8,1.1,9.9-.4,1.7,2.8,4.9,4.2,8.1,3.4,2.5-.6,4.4-2.5,5.2-4.9,2.3,1.4,5.3,1.3,7.5-.3,1.8-1.3,2.7-3.4,2.7-5.4.6,1.3,1,2.7,1,4.1Z"/>
    <path class="st0" d="M1171.6,337.2c0,2.1-.9,4.1-2.7,5.4-2.2,1.7-5.2,1.7-7.5.3-.8,2.3-2.7,4.2-5.2,4.9-3.2.8-6.5-.6-8.1-3.4-3.1,1.5-6.7,1.7-9.9.4-2.4-1-4.4-2.7-5.8-4.8-.7,4.4-3.7,8.2-8.2,9.7-5.7,1.9-11.9-.8-14.6-6-1.3,3.7-4.5,6.4-8.4,7.1-4.3.7-8.6-1.2-10.9-4.8-1.8,1.5-4.1,2.1-6.4,1.6-2.6-.6-4.7-2.5-5.4-5.1-.8-.4-1.5-.9-2.2-1.6-1.7-1.8-2.3-4.4-1.5-6.8.8-2.4,2.7-4.1,5.2-4.7,1.7-.3,3.4,0,4.8.7.3-2.2,1.6-4.3,3.5-5.6,2.6-1.9,5.9-2.1,8.7-.9,1-1.4,2.4-2.6,4.1-3.3,2.9-1.2,6.2-.9,8.7.8,2.9-5.4,8.5-8.9,14.8-9,6.3,0,11.9,3.3,15,8.5,2-1.4,4.6-2,7.2-1.5,2.6.5,4.8,2.1,6.2,4.4,3.3-1.3,7.2-.6,9.9,2,2,1.8,3,4.4,3,6.9,1.6.4,3,1.2,4.2,2.4s1.2,1.5,1.7,2.3Z"/>
    <path class="st2" d="M1141.3,340.2c1,1.3,2.1,2.2,3.3,2.8,1.2.6,2.4.9,3.6.9,1.2,0,2.5-.3,3.6-.9,1.2-.6,2.2-1.6,3.2-2.9.2,1.7-.5,3.5-1.8,4.8-1.3,1.3-3.2,2.1-5,2.1-1.9,0-3.8-.7-5.1-2-1.3-1.3-2.1-3-1.9-4.7Z"/>
    <path class="st2" d="M1123,340.3c-.8,2.3-2.6,4.2-4.7,5.5-2.2,1.3-4.8,2-7.3,1.9-2.6,0-5.1-.9-7.2-2.3-2.1-1.4-3.7-3.4-4.4-5.8,2,1.3,3.9,2.3,5.9,3,1.9.7,3.9,1,5.9,1.1,2,0,4-.2,5.9-.8,2-.6,3.9-1.5,6-2.7Z"/>
  </g>
</svg>