<?xml version="1.0" encoding="UTF-8"?>
<svg id="Capa_1" xmlns="http://www.w3.org/2000/svg" version="1.1" viewBox="0 0 157.15 162.87">
  <!-- Generator: Adobe Illustrator 29.0.0, SVG Export Plug-In . SVG Version: 2.1.0 Build 186)  -->
  <path d="M89.38,54.33l.62,2.04,6.88,3.92c.55.17,2.05-8.69,8.49-5.5,3.93,1.95.4,8.85,3,11.99.63.76,15.91,9.77,16.94,10.08,7.69,2.36,15.17-11.48,15.05-18.02-.07-4.08-3.17-11.1-6.12-13.94s-8.41-3.12-6.72-8.87c2.13-7.22,10.62-1.35,13.84,1.74,13.18,12.66,11.54,36.2-4.03,45.99,29.33,22.37,4.23,65.89-29.97,51.46-.01,17.41-16.78,28.83-33.36,26.86-6.04-.72-21-6.99-17.09-14.88,3.11-6.27,10.51,2.03,13.59,3.4,14.43,6.4,30.15-6.86,26.71-22.22l-17.57-9.98c-5.1-.24-9.08,6.66-14.21,4.31-1.62-.74-3.15-2.9-2.89-4.74.51-3.63,5.62-4.58,4.86-6.22l-6.5-4.5c-2.01-.25-1.31.06-1.49,1.47-.51,4.12,1.53,10.14-4.59,10.48-9.61.53-3.29-12.6-5.89-17.96l-19-11.66c-13.07,5.34-17.39,21.65-7.53,32.19,2.9,3.1,8.48,4.27,6.87,9.74-1.83,6.2-10.67,1.05-13.71-1.9-12.52-12.14-10.94-36.24,3.87-45.85-28.49-22.88-4.21-66.24,29.98-51.45-.31-22.17,28.52-36.02,45.88-22.39,5.58,4.38,5.81,12.34-1.19,11.24-3.43-.54-6.99-6.28-14.47-6.57-11.23-.44-23.99,11.81-20.06,23.06.38,1.08,17.97,11.31,19.33,11.29,3.6-.04,10.84-9.89,15.9-5.57,4.54,4.82-.19,9.61-5.41,10.93v.03ZM48.24,43.48c-19.37-13.72-41.92,11.26-26.33,28.83,9.71,10.94,15.99-1.64,26.28-5.22l.05-23.62h0ZM67.38,54.33l-7.97-4.01v9.99l7.35-3.91.62-2.06h0ZM98.15,72.5l-19.43-10.96c-1.15-.1-14.91,7.64-16.67,8.92-1.46,1.06-2.24,1.33-2.63,3.36-.43,2.27-.27,20.25.47,21.47l18.99,10.63c3.67-3.05,18.67-9.02,19.47-13.16.37-1.95.32-19.38-.19-20.26h-.01ZM48.4,79.3l-7.97,4.49,7.97,4.49v-8.98ZM107.36,88.28c.96.99,8.97-3.97,8.97-4.49-1.21-1.29-7.73-5.75-8.97-4.49v8.98ZM107.56,123.05c.21.37,6.53,3.77,7.51,3.97,25.39,5.34,35.31-28.76,11.26-37.21-4.39,4.27-18.23,7.98-19.03,13.91-.29,2.12-.23,18.49.26,19.33ZM98.35,107.27l-8.99,4.01,7.51,5.97c2.85,1.15.96-8.52,1.48-9.97h0Z"/>
  <path d="M45.14,120.47c13.56-1.22,20.34,18.92,6.27,25.26-19.08,8.6-26.73-23.43-6.27-25.26ZM48.4,131.24l-4.55.94c-1.77,4.29.56,5.42,4.46,3.96l.09-4.9h0Z"/>
  <path d="M107.09,21.57c19.86-3.42,22.1,29.12-.18,25.68-13.87-2.14-13.05-23.4.18-25.68ZM108.88,31.34c-2.46.7-2.35,6.96,1.8,5.84,4.67-1.25,1.69-6.83-1.8-5.84Z"/>
</svg>