<?xml version="1.0" encoding="UTF-8"?>
<svg id="Capa_1" xmlns="http://www.w3.org/2000/svg" version="1.1" xmlns:xlink="http://www.w3.org/1999/xlink" viewBox="0 0 1920 1080">
  <!-- Generator: Adobe Illustrator 29.0.0, SVG Export Plug-In . SVG Version: 2.1.0 Build 186)  -->
  <defs>
    <style>
      .st0 {
        fill: #fff;
      }

      .st1 {
        fill: none;
      }

      .st2 {
        display: none;
        fill: url(#Degradado_sin_nombre);
      }

      .st3 {
        clip-path: url(#clippath);
      }
    </style>
    <linearGradient id="Degradado_sin_nombre" data-name="Degradado sin nombre" x1="960" y1="0" x2="960" y2="1080" gradientTransform="translate(0 1080) scale(1 -1)" gradientUnits="userSpaceOnUse">
      <stop offset="0" stop-color="#81e1ff"/>
      <stop offset=".3" stop-color="#2f555b"/>
      <stop offset=".7" stop-color="#0f1b1e"/>
      <stop offset="1" stop-color="#000"/>
    </linearGradient>
    <clipPath id="clippath">
      <rect class="st1" width="1920" height="1080"/>
    </clipPath>
  </defs>
  <rect class="st2" width="1920" height="1080"/>
  <g class="st3">
    <g>
      <g>
        <path class="st0" d="M1806.5,210c-.7-1.2-.8-1.2-2.1-.7,1.2-.7,1.2-.8.7-2.1.7,1.2.8,1.2,2.1.7-1.2.7-1.2.8-.7,2.1Z"/>
        <path class="st0" d="M1805.7,343.8c-1.2-.5-1.3-.4-2,.7.5-1.2.4-1.3-.7-2,1.2.5,1.3.4,2-.7-.5,1.2-.4,1.3.7,2Z"/>
        <path class="st0" d="M1748.4,34.7c-2.6.4-2.7.6-2.8,3.2-.4-2.6-.6-2.7-3.2-2.8,2.6-.4,2.7-.6,2.8-3.2.4,2.6.6,2.7,3.2,2.8Z"/>
        <path class="st0" d="M1709.6-7.8c-.7,1.4-.6,1.5.6,2.4-1.4-.7-1.5-.6-2.4.6.7-1.4.6-1.5-.6-2.4,1.4.7,1.5.6,2.4-.6Z"/>
        <path class="st0" d="M1679.7,121.9c-.5-2-.7-2.1-2.7-1.9,2-.5,2.1-.7,1.9-2.7.5,2,.7,2.1,2.7,1.9-2,.5-2.1.7-1.9,2.7Z"/>
        <path class="st0" d="M1668.5,135.7c1.5.5,1.6.4,2.3-.9-.5,1.5-.4,1.6.9,2.4-1.5-.5-1.6-.4-2.3.9.5-1.5.4-1.6-.9-2.4Z"/>
        <path class="st0" d="M1640.5,349.6c-2.6-.4-2.8-.2-3.7,2.3.4-2.6.2-2.8-2.3-3.6,2.6.4,2.8.2,3.7-2.3-.4,2.6-.2,2.8,2.3,3.6Z"/>
        <path class="st0" d="M1633.4,34.5c1.6,2.2,1.8,2.2,4.2,1.1-2.2,1.6-2.2,1.8-1.1,4.2-1.6-2.2-1.8-2.2-4.2-1.1,2.2-1.6,2.2-1.8,1.1-4.2Z"/>
        <path class="st0" d="M1577.4,302.8c2.3,0,2.5-.2,2.9-2.5,0,2.3.2,2.5,2.5,2.9-2.3,0-2.5.2-2.9,2.5,0-2.3-.2-2.5-2.5-2.9Z"/>
        <path class="st0" d="M1562.7,109.3c0-2.7-.2-2.9-2.9-3.4,2.7,0,2.9-.2,3.4-2.9,0,2.7.2,2.9,2.9,3.4-2.7,0-2.9.2-3.4,2.9Z"/>
        <path class="st0" d="M1511.4,353.7c.9-2.3.8-2.5-1.2-3.8,2.3.9,2.5.8,3.8-1.2-.9,2.3-.8,2.5,1.2,3.8-2.3-.9-2.5-.8-3.8,1.2Z"/>
        <path class="st0" d="M1471.5,79.6c-.8-1.3-.9-1.4-2.3-.9,1.3-.8,1.4-.9.9-2.3.8,1.3.9,1.4,2.3.9-1.3.8-1.4.9-.9,2.3Z"/>
        <path class="st0" d="M1432.4,59c-1.5.5-1.6.6-1.4,2.2-.5-1.5-.6-1.6-2.2-1.4,1.5-.5,1.6-.6,1.4-2.2.5,1.5.6,1.6,2.2,1.4Z"/>
        <path class="st0" d="M1384.5,337.7c-1.4,1.2-1.4,1.4-.5,3-1.2-1.4-1.4-1.4-3-.5,1.4-1.2,1.4-1.4.5-3,1.2,1.4,1.4,1.4,3,.5Z"/>
        <path class="st0" d="M1362.2,68.7c.5-1.8.4-1.9-1.2-2.7,1.8.5,1.9.4,2.7-1.2-.5,1.8-.4,1.9,1.2,2.7-1.8-.5-1.9-.4-2.7,1.2Z"/>
        <path class="st0" d="M1308.9,271.1c.4-1.2.4-1.3-.7-1.9,1.2.4,1.3.4,1.9-.7-.4,1.2-.4,1.3.7,1.9-1.2-.4-1.3-.4-1.9.7Z"/>
        <path class="st0" d="M1307.5,175.8c-.6,1.4-.6,1.6.8,2.4-1.4-.6-1.6-.6-2.4.8.6-1.4.6-1.6-.8-2.4,1.4.6,1.6.6,2.4-.8Z"/>
        <path class="st0" d="M1275.1,21.6c-.9-1.5-1.1-1.6-2.8-.9,1.5-1,1.6-1.1.9-2.8.9,1.5,1.1,1.6,2.8.9-1.5,1-1.6,1.1-.9,2.8Z"/>
        <path class="st0" d="M1233,194.6c-.9-.3-1-.2-1.5.7.3-.9.2-1-.7-1.5.9.3,1,.2,1.5-.7-.3.9-.2,1,.7,1.5Z"/>
        <path class="st0" d="M1209.4,269.1c-.2,1.5-.2,1.7,1.3,2.2-1.5-.2-1.7-.1-2.2,1.3.2-1.5.2-1.7-1.3-2.2,1.5.2,1.7.1,2.2-1.3Z"/>
        <path class="st0" d="M1170.4-17.8c-1.1-2.4-1.3-2.5-3.9-1.8,2.4-1.1,2.5-1.4,1.8-3.9,1.1,2.4,1.3,2.5,3.9,1.8-2.4,1.1-2.5,1.4-1.8,3.9Z"/>
        <path class="st0" d="M1116.2,197.4c-1.7,0-1.8,0-2.2,1.8,0-1.7,0-1.8-1.8-2.2,1.7,0,1.8,0,2.2-1.8,0,1.7,0,1.8,1.8,2.2Z"/>
        <path class="st0" d="M1061.2,296.8c-.3-1.4-.4-1.5-1.8-1.5,1.4-.3,1.5-.4,1.5-1.8.3,1.4.4,1.5,1.8,1.5-1.4.3-1.5.4-1.5,1.8Z"/>
        <path class="st0" d="M1012,205c.9-2.5.8-2.7-1.4-4,2.5.9,2.7.8,4-1.4-.9,2.5-.8,2.7,1.4,4-2.5-.9-2.7-.8-4,1.4Z"/>
        <path class="st0" d="M986,36.3c.7-1.9.6-2.1-1.2-3.1,1.9.7,2.1.6,3.1-1.2-.7,1.9-.6,2.1,1.2,3.1-1.9-.7-2.1-.6-3.1,1.2Z"/>
        <path class="st0" d="M948.7,111.9c1.2,1.4,1.3,1.4,2.9.5-1.4,1.2-1.4,1.3-.5,2.9-1.2-1.4-1.3-1.4-2.9-.5,1.4-1.2,1.4-1.3.5-2.9Z"/>
        <path class="st0" d="M939.2-17.4c-1.2-.2-1.3-.2-1.7.9.2-1.2.2-1.3-.9-1.7,1.2.2,1.3.2,1.7-.9-.2,1.2-.2,1.3.9,1.7Z"/>
        <path class="st0" d="M911.6,239.7c1.3.8,1.5.8,2.5-.4-.8,1.3-.8,1.5.4,2.5-1.3-.8-1.5-.8-2.5.4.8-1.3.8-1.5-.4-2.5Z"/>
        <path class="st0" d="M876,168.6c-2.3-1.1-2.6-1.1-4.1,1,1.2-2.3,1.1-2.6-1-4.1,2.3,1.1,2.6,1.1,4.1-1-1.2,2.3-1.1,2.6,1,4.1Z"/>
        <path class="st0" d="M838.6,101.7c-.5.8-.5.9.2,1.5-.8-.5-.9-.5-1.5.2.5-.8.5-.9-.2-1.5.8.5.9.5,1.5-.2Z"/>
        <path class="st0" d="M804.1-6.8c-.8,1.9-.7,2.1,1.1,3.2-1.9-.8-2.1-.7-3.2,1.1.8-1.9.7-2.1-1.1-3.2,1.9.8,2.1.7,3.2-1.1Z"/>
        <path class="st0" d="M784,164.9c-1.3-.6-1.4-.6-2.2.6.6-1.3.6-1.4-.6-2.2,1.3.6,1.4.6,2.2-.6-.6,1.3-.6,1.4.6,2.2Z"/>
        <path class="st0" d="M766.8,115c-.3.9-.3,1,.5,1.5-.9-.3-1-.3-1.5.5.3-.9.3-1-.5-1.5.9.3,1,.3,1.5-.5Z"/>
        <path class="st0" d="M718.3,141.1c.8.8.9.8,1.8.1-.8.8-.8.9-.1,1.8-.8-.8-.9-.8-1.8-.1.8-.8.8-.9.1-1.8Z"/>
        <path class="st0" d="M668.1,63.7c1.1-.9,1.2-1,.5-2.3.9,1.1,1,1.2,2.3.5-1.1.9-1.2,1-.5,2.3-.9-1.1-1-1.2-2.3-.5Z"/>
        <path class="st0" d="M626.8,207c1.1,2.1,1.3,2.2,3.5,1.5-2.1,1.1-2.2,1.3-1.5,3.5-1.1-2.1-1.3-2.2-3.5-1.5,2.1-1.1,2.2-1.3,1.5-3.5Z"/>
        <path class="st0" d="M593,95.9c.2-2.1,0-2.3-2-2.8,2.1.2,2.3,0,2.8-2-.2,2.1,0,2.3,2,2.8-2.1-.2-2.3,0-2.8,2Z"/>
        <path class="st0" d="M586.8,34.5c1.3.3,1.4.2,1.9-1-.3,1.3-.2,1.4,1,1.9-1.3-.3-1.4-.2-1.9,1,.3-1.3.2-1.4-1-1.9Z"/>
        <path class="st0" d="M546.9,25.7c0-2.8-.2-3-3-3.4,2.8,0,3-.2,3.4-3,0,2.8.2,3,3,3.4-2.8,0-3,.2-3.4,3Z"/>
        <path class="st0" d="M533.8,253.2c.7,1.8.8,1.9,2.7,1.6-1.8.6-1.9.8-1.6,2.7-.7-1.8-.8-1.9-2.7-1.6,1.8-.6,1.9-.8,1.6-2.7Z"/>
        <path class="st0" d="M501.1,307.5c0-1.3,0-1.4-1.3-1.7,1.3,0,1.4,0,1.7-1.3,0,1.3,0,1.4,1.3,1.7-1.3,0-1.4,0-1.7,1.3Z"/>
        <path class="st0" d="M462.2,58.6c-2.3.4-2.5.5-2.5,2.9-.4-2.3-.5-2.5-2.9-2.5,2.3-.4,2.5-.5,2.5-2.9.4,2.3.5,2.5,2.9,2.5Z"/>
        <path class="st0" d="M442.6,160.6c.3-1.7.2-1.8-1.5-2.4,1.7.3,1.8.2,2.4-1.4-.3,1.7-.2,1.8,1.5,2.4-1.7-.3-1.8-.2-2.4,1.4Z"/>
        <path class="st0" d="M438,174.2c.6,1.4.8,1.5,2.3,1.1-1.4.6-1.5.8-1.1,2.3-.6-1.4-.8-1.5-2.3-1.1,1.4-.6,1.5-.8,1.1-2.3Z"/>
        <path class="st0" d="M408.9,6.9c-.6-1.5-.7-1.6-2.3-1.3,1.5-.6,1.6-.7,1.3-2.3.6,1.5.7,1.6,2.3,1.3-1.5.6-1.6.7-1.3,2.3Z"/>
        <path class="st0" d="M387.8,211.3c-1,.3-1,.4-.9,1.4-.3-1-.4-1-1.4-.9,1-.3,1-.4.9-1.4.3,1,.4,1,1.4.9Z"/>
        <path class="st0" d="M362.6-1.5c.9-.3.9-.4.8-1.3.3.9.4.9,1.3.8-.9.3-.9.4-.8,1.3-.3-.9-.4-.9-1.3-.8Z"/>
        <path class="st0" d="M319.9,96.4c-.4,1.9-.3,2.1,1.6,2.8-1.9-.4-2.1-.3-2.8,1.6.4-1.9.3-2.1-1.6-2.8,1.9.4,2.1.3,2.8-1.6Z"/>
        <path class="st0" d="M273.3,227.2c-1.9.7-2,.9-1.6,2.9-.7-1.9-.9-2-2.9-1.6,1.9-.7,2-.9,1.6-2.9.7,1.9.9,2,2.9,1.6Z"/>
        <path class="st0" d="M264.9,226.1c-2.6.7-2.7.9-2.5,3.6-.7-2.6-1-2.7-3.6-2.4,2.6-.7,2.7-.9,2.5-3.6.7,2.6,1,2.7,3.6,2.4Z"/>
        <path class="st0" d="M250.5,184.3c.8-.8.8-.9.2-1.8.8.8.9.8,1.8.2-.8.8-.8.9-.2,1.8-.8-.8-.9-.8-1.8-.2Z"/>
        <path class="st0" d="M238.4,57.1c-1.2,1.1-1.2,1.3-.3,2.6-1.1-1.2-1.3-1.2-2.6-.3,1.2-1.1,1.2-1.3.3-2.6,1.1,1.2,1.3,1.2,2.6.3Z"/>
        <path class="st0" d="M197.5,144.8c-1.4-1-1.6-1-2.9.2,1-1.4,1-1.6-.2-2.9,1.4,1,1.6,1,2.9-.2-1,1.4-1,1.6.2,2.9Z"/>
        <path class="st0" d="M162.1,222.6c-.5.9-.5,1,.2,1.6-.9-.5-1-.5-1.6.2.5-.9.5-1-.2-1.6.9.5,1,.5,1.6-.2Z"/>
        <path class="st0" d="M157.5,250.1c-.6-2.1-.8-2.2-2.9-2,2.1-.6,2.2-.8,2-2.9.6,2.1.8,2.2,2.9,2-2.1.6-2.2.8-2,2.9Z"/>
        <path class="st0" d="M134.7,266.9c-.7-.9-.9-.9-1.8-.3.9-.7.9-.9.3-1.8.7.9.9.9,1.8.3-.9.7-.9.9-.3,1.8Z"/>
        <path class="st0" d="M92.6,56.4c1-.6,1.1-.7.7-1.9.6,1,.7,1.1,1.9.7-1,.6-1.1.7-.7,1.9-.6-1-.7-1.1-1.9-.7Z"/>
      </g>
      <g>
        <path class="st0" d="M1812.2,611.4c-.3-.9-.3-.9-1.3-.8.9-.3.9-.3.8-1.3.3.9.3.9,1.3.8-.9.3-.9.3-.8,1.3Z"/>
        <path class="st0" d="M1787.7,641.2c-1-.2-1.1-.2-1.5.8.2-1,.2-1.1-.8-1.5,1,.2,1.1.2,1.5-.8-.2,1-.2,1.1.8,1.5Z"/>
        <path class="st0" d="M1750,660.6c-1.5-1-1.7-1-2.9.3,1-1.5,1-1.7-.3-2.9,1.5,1,1.7,1,2.9-.3-1,1.5-1,1.7.3,2.9Z"/>
        <path class="st0" d="M1743.9,501.7c.6-1.5.5-1.7-.9-2.5,1.5.5,1.7.5,2.5-.9-.6,1.5-.5,1.7.9,2.5-1.5-.5-1.7-.5-2.5.9Z"/>
        <path class="st0" d="M1734.6,399.6c1.7-.5,1.8-.6,1.7-2.4.5,1.7.6,1.8,2.4,1.7-1.7.5-1.8.6-1.7,2.4-.5-1.7-.6-1.8-2.4-1.7Z"/>
        <path class="st0" d="M1715.8,378c0,.9,0,1,.9,1.2-.9,0-1,0-1.2.9,0-.9,0-1-.9-1.2.9,0,1,0,1.2-.9Z"/>
        <path class="st0" d="M1710.4,413.6c-.7-2.5-.9-2.6-3.5-2.3,2.4-.7,2.6-.9,2.3-3.5.7,2.5.9,2.6,3.5,2.3-2.4.7-2.6.9-2.3,3.5Z"/>
        <path class="st0" d="M1676.1,482.2c.3,1.7.4,1.8,2.2,1.8-1.7.3-1.8.4-1.8,2.2-.3-1.7-.4-1.8-2.2-1.8,1.7-.3,1.8-.4,1.8-2.2Z"/>
        <path class="st0" d="M1642.1,458.5c-.9-1-1-1-2.1-.3,1-.9,1-1,.3-2.1.9,1,1,1,2.1.3-1,.9-1,1-.3,2.1Z"/>
        <path class="st0" d="M1631.8,518.1c-1.2.9-1.2,1.1-.5,2.4-.9-1.2-1.1-1.2-2.4-.5,1.2-.9,1.2-1.1.5-2.4.9,1.2,1.1,1.2,2.4.5Z"/>
        <path class="st0" d="M1588.7,295.5c1.8,1.6,2.1,1.6,4,.1-1.6,1.8-1.6,2.1-.1,4-1.8-1.6-2.1-1.6-4-.1,1.6-1.8,1.6-2.1.1-4Z"/>
        <path class="st0" d="M1566.8,683.8c-1.4-2-1.7-2.1-3.9-1,2-1.4,2.1-1.7,1-3.9,1.4,2,1.7,2.1,3.9,1-2,1.4-2.1,1.7-1,3.9Z"/>
        <path class="st0" d="M1517.3,460.4c.9-1.1.9-1.3,0-2.4,1.2.9,1.3.9,2.4-.1-.9,1.1-.9,1.3,0,2.4-1.2-.9-1.3-.9-2.4.1Z"/>
        <path class="st0" d="M1474.9,643c-.8.5-.8.6-.4,1.5-.5-.8-.6-.8-1.4-.4.8-.5.8-.6.4-1.5.5.8.6.8,1.4.4Z"/>
        <path class="st0" d="M1424.5,467.4c1,.4,1.1.4,1.7-.5-.4,1-.4,1.1.5,1.7-1-.4-1.1-.4-1.7.5.4-1,.4-1.1-.5-1.7Z"/>
        <path class="st0" d="M1395.6,603.7c-1.4.7-1.5.8-1.1,2.4-.7-1.4-.8-1.5-2.4-1.1,1.4-.7,1.5-.8,1.1-2.4.7,1.4.8,1.5,2.4,1.1Z"/>
        <path class="st0" d="M1357.5,395.5c0,1.2,0,1.3,1.2,1.6-1.2,0-1.3,0-1.6,1.2,0-1.2,0-1.3-1.2-1.6,1.2,0,1.3,0,1.6-1.2Z"/>
        <path class="st0" d="M1310.4,384.4c0,2.4.2,2.6,2.6,2.9-2.4,0-2.6.2-2.9,2.6,0-2.4-.2-2.6-2.6-2.9,2.4,0,2.6-.2,2.9-2.6Z"/>
        <path class="st0" d="M1272.6,342.4c-1.3-2.3-1.5-2.4-4-1.5,2.3-1.3,2.4-1.5,1.5-4,1.3,2.3,1.5,2.4,4,1.5-2.3,1.3-2.4,1.5-1.5,4Z"/>
        <path class="st0" d="M1230.9,663.5c2.1,1.7,2.3,1.7,4.3,0-1.7,2.1-1.7,2.3,0,4.3-2.1-1.7-2.3-1.7-4.3,0,1.7-2.1,1.7-2.3,0-4.3Z"/>
        <path class="st0" d="M1214.6,530.8c.5-1.8.4-2-1.3-2.8,1.8.5,2,.4,2.8-1.3-.5,1.8-.4,2,1.3,2.8-1.8-.5-2-.4-2.8,1.3Z"/>
        <path class="st0" d="M1185.2,556c-1.9,0-2,.2-2.3,2.1,0-1.9-.2-2-2.1-2.3,1.9,0,2-.2,2.3-2.1,0,1.9.2,2,2.1,2.3Z"/>
        <path class="st0" d="M1175.9,583.6c-1.8-1.7-2-1.7-3.9-.2,1.7-1.8,1.7-2,.2-4,1.8,1.7,2,1.7,3.9.2-1.7,1.8-1.7,2-.2,4Z"/>
        <path class="st0" d="M1141.3,630.3c0,1.5,0,1.7,1.6,2-1.5,0-1.7,0-2,1.6,0-1.5,0-1.7-1.6-2,1.5,0,1.7,0,2-1.6Z"/>
        <path class="st0" d="M1096.5,459.6c1.7-.3,1.8-.5,1.7-2.2.3,1.7.5,1.8,2.2,1.7-1.7.3-1.8.5-1.7,2.2-.3-1.7-.5-1.8-2.2-1.7Z"/>
        <path class="st0" d="M1062.7,661.4c-1.1,1.6-1.1,1.8.3,3.2-1.6-1.1-1.8-1.1-3.2.3,1.1-1.6,1.1-1.8-.3-3.2,1.6,1.1,1.8,1.1,3.2-.3Z"/>
        <path class="st0" d="M1032.2,521c0-2.2-.1-2.3-2.3-2.7,2.2,0,2.3-.1,2.7-2.3,0,2.2.1,2.3,2.3,2.7-2.2,0-2.3.1-2.7,2.3Z"/>
        <path class="st0" d="M1020.4,515.2c1.2,0,1.3,0,1.5-1.2,0,1.2,0,1.3,1.2,1.5-1.2,0-1.3,0-1.5,1.2,0-1.2,0-1.3-1.2-1.5Z"/>
        <path class="st0" d="M974.5,646.7c-.6,1.2-.6,1.3.5,2.1-1.2-.6-1.3-.6-2.1.5.6-1.2.6-1.3-.5-2.1,1.2.6,1.3.6,2.1-.5Z"/>
        <path class="st0" d="M941.8,673.4c2.2.8,2.5.7,3.7-1.4-.8,2.2-.7,2.5,1.4,3.7-2.2-.8-2.5-.7-3.7,1.4.8-2.2.7-2.5-1.4-3.7Z"/>
        <path class="st0" d="M938.5,659.3c1.9-.3,2-.4,2-2.3.3,1.9.4,2,2.3,2-1.9.3-2,.4-2,2.3-.3-1.9-.4-2-2.3-2Z"/>
        <path class="st0" d="M888.5,513.6c.8-1.6.7-1.8-.7-2.8,1.6.8,1.8.7,2.8-.7-.8,1.6-.7,1.8.7,2.8-1.6-.8-1.8-.7-2.8.7Z"/>
        <path class="st0" d="M865.6,567.7c-1.5-1.3-1.7-1.3-3.2,0,1.3-1.5,1.3-1.7,0-3.2,1.5,1.3,1.7,1.3,3.2,0-1.3,1.5-1.3,1.7,0,3.2Z"/>
        <path class="st0" d="M856.5,494.4c-2.3.4-2.4.6-2.4,3-.4-2.3-.6-2.4-3-2.4,2.3-.4,2.4-.6,2.4-3,.4,2.3.6,2.4,3,2.4Z"/>
        <path class="st0" d="M809.1,532.6c.2-2.4,0-2.6-2.3-3.2,2.4.2,2.6,0,3.2-2.3-.2,2.4,0,2.6,2.3,3.2-2.4-.2-2.6,0-3.2,2.3Z"/>
        <path class="st0" d="M767.4,512.5c0,1.1,0,1.2,1,1.4-1.1,0-1.2,0-1.4,1,0-1.1,0-1.2-1-1.4,1.1,0,1.2,0,1.4-1Z"/>
        <path class="st0" d="M747.6,689.3c1.1-.6,1.1-.7.7-1.9.6,1.1.7,1.1,1.9.7-1.1.6-1.1.7-.7,1.9-.6-1.1-.7-1.1-1.9-.7Z"/>
        <path class="st0" d="M730.3,442.9c1.2-2,1.1-2.3-.7-3.8,2,1.2,2.3,1.1,3.8-.7-1.2,2-1.1,2.3.7,3.8-2-1.2-2.3-1.1-3.8.7Z"/>
        <path class="st0" d="M697.9,688.2c2.2,0,2.4-.1,2.8-2.3,0,2.2.1,2.4,2.3,2.8-2.2,0-2.4.1-2.8,2.3,0-2.2-.1-2.4-2.3-2.8Z"/>
        <path class="st0" d="M662.1,387.4c2.5-1.1,2.6-1.4,1.9-4,1.1,2.5,1.4,2.6,4,1.9-2.5,1.1-2.6,1.4-1.9,4-1.1-2.5-1.4-2.6-4-1.9Z"/>
        <path class="st0" d="M625.8,466.8c-.3-1.4-.4-1.5-1.8-1.5,1.4-.3,1.5-.4,1.5-1.8.3,1.4.4,1.5,1.8,1.5-1.4.3-1.5.4-1.5,1.8Z"/>
        <path class="st0" d="M573.1,508c2.4.6,2.6.5,3.7-1.7-.6,2.4-.5,2.6,1.7,3.6-2.4-.6-2.6-.5-3.7,1.7.6-2.4.5-2.6-1.7-3.6Z"/>
        <path class="st0" d="M541.7,359.3c1.4-.6,1.5-.7,1.2-2.2.6,1.4.7,1.5,2.2,1.2-1.4.6-1.5.7-1.2,2.2-.6-1.4-.7-1.5-2.2-1.2Z"/>
        <path class="st0" d="M515.3,447.1c1.5.7,1.7.6,2.6-.8-.7,1.5-.6,1.7.8,2.6-1.5-.7-1.7-.6-2.6.8.7-1.5.6-1.7-.8-2.6Z"/>
        <path class="st0" d="M513.4,671.7c0,1.1,0,1.2,1.2,1.3-1.1,0-1.2,0-1.3,1.2,0-1.1,0-1.2-1.2-1.3,1.1,0,1.2,0,1.3-1.2Z"/>
        <path class="st0" d="M502.8,580.8c0-1.2-.1-1.3-1.3-1.4,1.2,0,1.3-.2,1.4-1.3,0,1.2.1,1.3,1.3,1.4-1.2,0-1.3.2-1.4,1.3Z"/>
        <path class="st0" d="M483.1,567.8c-.7-2-.9-2.2-3.1-1.8,2-.7,2.1-.9,1.8-3.1.7,2,.9,2.2,3.1,1.8-2,.7-2.1.9-1.8,3.1Z"/>
        <path class="st0" d="M462.9,479.9c0,2.1.2,2.2,2.3,2.5-2.1,0-2.2.2-2.5,2.3,0-2.1-.2-2.2-2.3-2.5,2.1,0,2.2-.2,2.5-2.3Z"/>
        <path class="st0" d="M457.5,515c1.7-1.6,1.8-1.8.5-3.8,1.6,1.7,1.8,1.8,3.8.5-1.7,1.6-1.8,1.8-.5,3.8-1.6-1.7-1.8-1.8-3.8-.5h0Z"/>
        <path class="st0" d="M407.4,443.7c2.6.4,2.9.3,3.7-2.3-.4,2.6-.3,2.9,2.3,3.7-2.6-.4-2.9-.3-3.7,2.3.4-2.6.3-2.9-2.3-3.7Z"/>
        <path class="st0" d="M361.3,657.4c-2,1-2.1,1.2-1.5,3.4-1-2-1.2-2.1-3.4-1.5,2-1,2.1-1.2,1.5-3.4,1,2,1.2,2.1,3.4,1.5Z"/>
        <path class="st0" d="M339.7,676.8c.6-2.3.5-2.5-1.7-3.5,2.3.6,2.5.5,3.5-1.7-.6,2.3-.5,2.5,1.7,3.5-2.3-.6-2.5-.5-3.5,1.7Z"/>
        <path class="st0" d="M336.9,419c1.3,1.7,1.5,1.8,3.4.8-1.7,1.3-1.8,1.5-.8,3.4-1.3-1.7-1.5-1.8-3.4-.8,1.7-1.3,1.8-1.5.8-3.4Z"/>
        <path class="st0" d="M326.1,587.6c.5-1,.5-1.1-.4-1.8,1,.5,1.1.5,1.8-.4-.5,1-.5,1.1.4,1.8-1-.5-1.1-.5-1.8.4Z"/>
        <path class="st0" d="M279.1,480.9c1.4,0,1.5-.1,1.7-1.5,0,1.4.1,1.5,1.5,1.7-1.4,0-1.5.1-1.7,1.5,0-1.4-.1-1.5-1.5-1.7Z"/>
        <path class="st0" d="M282.6,431.1c-2,0-2.1,0-2.5,2,0-2,0-2.1-2-2.5,2,0,2.1,0,2.5-2,0,2,0,2.1,2,2.5Z"/>
        <path class="st0" d="M238.5,636.8c1.1-1.5,1.1-1.6-.2-2.9,1.4,1.1,1.6,1.1,2.9-.2-1.1,1.5-1.1,1.6.2,2.9-1.4-1.1-1.6-1.1-2.9.2Z"/>
        <path class="st0" d="M249.7,351.6c-.7-.6-.8-.6-1.5,0,.6-.7.6-.8,0-1.5.7.6.8.6,1.5,0-.6.7-.6.8,0,1.5Z"/>
        <path class="st0" d="M205.3,573.9c1.2,1.3,1.3,1.3,2.8.3-1.3,1.2-1.3,1.3-.4,2.8-1.2-1.3-1.3-1.3-2.8-.3,1.3-1.2,1.3-1.3.4-2.8Z"/>
        <path class="st0" d="M195.2,515.7c1.8,0,1.9-.1,2.2-1.8,0,1.8.1,1.9,1.9,2.2-1.8,0-1.9.1-2.2,1.8,0-1.8-.1-1.9-1.9-2.2Z"/>
        <path class="st0" d="M167.2,634.9c-1.2-1.2-1.4-1.2-2.8-.2,1.2-1.2,1.2-1.4.2-2.8,1.2,1.2,1.4,1.2,2.8.2-1.2,1.2-1.2,1.4-.2,2.8Z"/>
        <path class="st0" d="M183.7,327.8c.9,2.6,1.1,2.8,3.9,2.3-2.6.9-2.8,1.1-2.3,3.9-.9-2.6-1.1-2.8-3.9-2.3,2.6-.9,2.8-1.1,2.3-3.9Z"/>
        <path class="st0" d="M113.5,636.1c.8-.5.8-.6.5-1.4.5.8.6.8,1.4.5-.8.5-.8.6-.5,1.4-.5-.8-.6-.8-1.4-.5Z"/>
        <path class="st0" d="M125.2,498.9c-1.3.4-1.4.5-1.3,1.9-.4-1.3-.5-1.4-1.9-1.3,1.3-.4,1.4-.5,1.3-1.9.4,1.3.5,1.4,1.9,1.3Z"/>
      </g>
      <g>
        <path class="st0" d="M1754.1,895.6c-1,1.4-.9,1.5.2,2.7-1.4-1-1.5-.9-2.7.2,1-1.4.9-1.5-.2-2.7,1.4,1,1.5.9,2.7-.2Z"/>
        <path class="st0" d="M1741.5,906.2c-1.2-2.3-1.5-2.4-3.9-1.5,2.3-1.2,2.4-1.5,1.5-4,1.2,2.3,1.5,2.4,3.9,1.5-2.3,1.2-2.4,1.5-1.5,4Z"/>
        <path class="st0" d="M1702.9,889c2.1.7,2.3.6,3.4-1.3-.7,2.1-.6,2.3,1.3,3.4-2.1-.7-2.3-.6-3.4,1.3.7-2.1.6-2.3-1.3-3.4Z"/>
        <path class="st0" d="M1598.8,1052.3c1.9-1.6,2-1.9.7-4.1,1.6,1.9,1.9,2,4.1.7-1.9,1.6-2,1.9-.7,4.1-1.6-1.9-1.9-2-4.1-.7Z"/>
        <path class="st0" d="M1592.8,944.8c1.6,1.3,1.8,1.3,3.4,0-1.3,1.6-1.3,1.8,0,3.4-1.6-1.3-1.8-1.3-3.4,0,1.3-1.6,1.3-1.8,0-3.4Z"/>
        <path class="st0" d="M1582,919.4c-1.2-.2-1.3-.2-1.7,1,.2-1.2.2-1.3-1-1.7,1.2.2,1.3.2,1.7-1-.2,1.2-.2,1.3,1,1.7Z"/>
        <path class="st0" d="M1606.7,693.5c-.8,1.4-.8,1.6.4,2.7-1.4-.8-1.6-.8-2.7.5.8-1.4.8-1.6-.4-2.7,1.4.8,1.6.8,2.7-.5Z"/>
        <path class="st0" d="M1550.8,919.1c-.8-2.6-1-2.7-3.7-2.3,2.6-.8,2.7-1,2.3-3.7.8,2.6,1,2.7,3.7,2.3-2.6.8-2.7,1-2.3,3.7Z"/>
        <path class="st0" d="M1562.7,770.3c1-1,1-1.1.2-2.2,1,1,1.1,1,2.2.2-1,1-1,1.1-.2,2.2-1-1-1.1-1-2.2-.2Z"/>
        <path class="st0" d="M1510,766.9c2.2-1.7,2.2-1.9,1-4.4,1.7,2.2,1.9,2.2,4.4,1-2.2,1.7-2.2,1.9-1,4.4-1.7-2.2-1.9-2.2-4.4-1Z"/>
        <path class="st0" d="M1510.6,738.7c-.7-1.4-.8-1.4-2.3-1,1.4-.7,1.4-.8,1-2.3.7,1.4.8,1.4,2.3,1-1.4.7-1.4.8-1,2.3Z"/>
        <path class="st0" d="M1481.1,959.3c-1.3-.3-1.4-.2-1.9,1,.3-1.3.2-1.4-1-1.9,1.3.3,1.4.2,1.9-1-.3,1.3-.2,1.4,1,1.9Z"/>
        <path class="st0" d="M1475.7,882.3c-1,1.4-1,1.6.2,2.9-1.4-1-1.6-1-2.9.2,1-1.4,1-1.6-.2-2.9,1.4,1,1.6,1,2.9-.2Z"/>
        <path class="st0" d="M1457.7,713.1c-2.5-.3-2.7-.2-3.5,2.2.3-2.5.2-2.7-2.2-3.5,2.5.3,2.7.2,3.5-2.2-.3,2.5-.2,2.7,2.2,3.5Z"/>
        <path class="st0" d="M1412.8,930.7c1.4,1.7,1.7,1.7,3.6.6-1.7,1.5-1.7,1.7-.6,3.6-1.4-1.7-1.7-1.7-3.6-.6,1.7-1.5,1.7-1.7.6-3.6Z"/>
        <path class="st0" d="M1375.6,806.8c1.6,1.8,1.9,1.8,3.9.6-1.8,1.6-1.8,1.9-.6,3.9-1.6-1.8-1.9-1.8-3.9-.6,1.8-1.6,1.8-1.9.6-3.9Z"/>
        <path class="st0" d="M1344.7,1022.8c2.3,0,2.5-.2,2.9-2.5,0,2.3.2,2.5,2.5,2.9-2.3,0-2.5.2-2.9,2.5,0-2.3-.2-2.5-2.5-2.9Z"/>
        <path class="st0" d="M1313.5,964.3c1.9,2,2.1,2,4.4.5-2,1.9-2,2.1-.5,4.4-1.9-2-2.1-2-4.4-.5,2-1.9,2-2.1.5-4.4Z"/>
        <path class="st0" d="M1305.3,968c2.1-.1,2.3-.3,2.5-2.4.1,2.1.3,2.3,2.4,2.5-2.1.1-2.3.3-2.5,2.4-.1-2.1-.3-2.3-2.4-2.5Z"/>
        <path class="st0" d="M1283.7,685.6c-1.3-.6-1.4-.5-2.2.7.6-1.3.5-1.4-.7-2.2,1.3.6,1.4.5,2.2-.7-.6,1.3-.5,1.4.7,2.2Z"/>
        <path class="st0" d="M1255.3,925.5c.8.5.8.5,1.5-.2-.5.8-.5.8.2,1.5-.8-.5-.8-.5-1.5.2.5-.8.5-.8-.2-1.5Z"/>
        <path class="st0" d="M1246,744.2c1,1.6,1.2,1.7,3,1-1.6,1-1.7,1.2-.9,3-1-1.6-1.2-1.7-3-1,1.6-1,1.7-1.2.9-3Z"/>
        <path class="st0" d="M1242.8,663.5c2.3,0,2.5-.1,2.9-2.4,0,2.3.1,2.5,2.4,2.9-2.3,0-2.5.1-2.9,2.4,0-2.3-.1-2.5-2.4-2.9Z"/>
        <path class="st0" d="M1225.7,669.4c.6,1.3.8,1.4,2.2,1-1.3.6-1.4.8-1,2.2-.6-1.3-.8-1.4-2.2-1,1.3-.6,1.4-.8,1-2.2Z"/>
        <path class="st0" d="M1178.9,925c1.7-2.2,1.6-2.5-.2-4.4,2.2,1.7,2.4,1.6,4.4-.2-1.7,2.2-1.6,2.5.2,4.4-2.2-1.7-2.4-1.6-4.4.2Z"/>
        <path class="st0" d="M1157,919.8c.4-1.4.4-1.5-.9-2.2,1.4.4,1.5.4,2.2-.9-.4,1.4-.4,1.5.9,2.2-1.4-.4-1.5-.4-2.2.9Z"/>
        <path class="st0" d="M1118.6,795c.7-1,.7-1.1-.2-2,1,.7,1.1.7,2-.2-.7,1-.7,1.1.2,2-1-.7-1.1-.7-2,.2Z"/>
        <path class="st0" d="M1073.1,699.6c.9-2.3.9-2.5-1.2-3.8,2.3.9,2.5.9,3.8-1.2-.9,2.3-.9,2.5,1.2,3.8-2.3-.9-2.5-.9-3.8,1.2Z"/>
        <path class="st0" d="M1042.8,754.5c0,1,0,1.1,1.1,1.3-1,0-1.1,0-1.3,1,0-1,0-1.1-1.1-1.3,1,0,1.1,0,1.3-1Z"/>
        <path class="st0" d="M1026.4,783.3c-1.2-.8-1.3-.8-2.3.2.8-1.2.8-1.3-.2-2.3,1.1.8,1.3.8,2.3-.2-.8,1.2-.8,1.3.2,2.3Z"/>
        <path class="st0" d="M1014.8,669.4c-1,.3-1.1.4-1,1.5-.3-1-.4-1.1-1.5-1,1-.3,1.1-.4,1-1.5.3,1,.4,1.1,1.5,1Z"/>
        <path class="st0" d="M1015.6,792.7c-.9-2.6-1.1-2.7-3.8-2.3,2.6-.9,2.7-1.1,2.3-3.8.9,2.6,1.1,2.7,3.8,2.3-2.6.9-2.7,1.1-2.3,3.8Z"/>
        <path class="st0" d="M1006.6,997.9c-.5.7-.5.8,0,1.5-.7-.5-.8-.5-1.5,0,.5-.7.5-.8,0-1.5.7.5.8.5,1.5,0Z"/>
        <path class="st0" d="M980,810.6c-1.9,2-1.9,2.3-.2,4.5-2-1.9-2.3-1.9-4.5-.2,1.9-2,1.9-2.3.2-4.5,2,1.9,2.3,1.9,4.5.2Z"/>
        <path class="st0" d="M947.4,1044.9c.3-2.8.2-3-2.5-3.8,2.8.3,3,.2,3.8-2.5-.3,2.8-.2,3,2.5,3.8-2.8-.3-3-.2-3.8,2.5Z"/>
        <path class="st0" d="M917.2,1057.3c-1.8-1-2-.9-3.2.6,1-1.8,1-2-.6-3.2,1.8,1,2,.9,3.2-.6-1,1.8-1,2,.6,3.2Z"/>
        <path class="st0" d="M854.1,779.5c1.4,1.7,1.6,1.7,3.5.6-1.7,1.4-1.7,1.6-.6,3.5-1.4-1.7-1.6-1.7-3.5-.6,1.7-1.4,1.7-1.6.6-3.5Z"/>
        <path class="st0" d="M836,985.2c-1.6,1.9-1.6,2.2,0,4.1-1.9-1.6-2.2-1.6-4.1,0,1.6-1.9,1.6-2.2,0-4.1,1.9,1.6,2.2,1.6,4.1,0Z"/>
        <path class="st0" d="M809.9,804.5c1.5-1.2,1.5-1.4.5-3.1,1.2,1.5,1.4,1.5,3.1.5-1.5,1.2-1.5,1.4-.5,3.1-1.2-1.5-1.4-1.5-3.1-.5Z"/>
        <path class="st0" d="M764.3,880.4c-.3-1-.4-1-1.4-.8,1-.3,1-.4.8-1.4.3,1,.4,1,1.4.8-1,.3-1,.4-.8,1.4Z"/>
        <path class="st0" d="M718.8,768.8c.4-2.8.2-3-2.4-3.8,2.8.4,3,.2,3.8-2.4-.4,2.8-.2,3,2.4,3.8-2.8-.4-3-.2-3.8,2.4Z"/>
        <path class="st0" d="M691.5,757.6c.9,1.6,1.1,1.6,2.8,1-1.6.9-1.6,1.1-1,2.8-.9-1.6-1.1-1.6-2.8-1,1.6-.9,1.6-1.1,1-2.8Z"/>
        <path class="st0" d="M657.3,700.6c2.2-1.7,2.2-2,.9-4.4,1.7,2.2,2,2.2,4.4.9-2.2,1.7-2.2,2-.9,4.4-1.7-2.2-2-2.2-4.4-.9Z"/>
        <path class="st0" d="M620.5,757.8c2,1,2.2,1,3.6-.8-1,2-1,2.2.8,3.6-2-1-2.2-1-3.6.8,1-2,1-2.2-.8-3.6Z"/>
        <path class="st0" d="M581.7,915.8c1.2,2,1.4,2.1,3.5,1.3-2,1.2-2.1,1.4-1.3,3.5-1.2-2-1.4-2.1-3.5-1.3,2-1.2,2.1-1.4,1.3-3.5Z"/>
        <path class="st0" d="M541.3,709.2c1.4,1.8,1.6,1.9,3.7.8-1.8,1.4-1.9,1.6-.8,3.7-1.4-1.8-1.6-1.9-3.7-.8,1.8-1.4,1.9-1.6.8-3.7Z"/>
        <path class="st0" d="M500.7,779.1c-1,.7-1,.8-.5,1.9-.7-1-.8-1-1.9-.5,1-.7,1-.8.5-1.9.7,1,.8,1,1.9.5Z"/>
        <path class="st0" d="M492.4,712.5c1.8-1.2,1.9-1.4,1.1-3.4,1.1,1.8,1.4,1.9,3.4,1.1-1.8,1.2-1.9,1.4-1.1,3.4-1.1-1.8-1.4-1.9-3.4-1.1Z"/>
        <path class="st0" d="M445.7,894.2c1.1,0,1.2-.1,1.3-1.2,0,1.1.1,1.2,1.2,1.3-1.1,0-1.2.1-1.3,1.2,0-1.1-.1-1.2-1.2-1.3Z"/>
        <path class="st0" d="M397.5,970.9c1.2-1.3,1.2-1.5.2-2.9,1.3,1.2,1.5,1.2,2.9.2-1.2,1.3-1.2,1.5-.2,2.9-1.3-1.2-1.5-1.2-2.9-.2Z"/>
        <path class="st0" d="M387.4,689.1c-.5,1.3-.4,1.5.8,2.2-1.4-.5-1.5-.4-2.2.8.5-1.3.4-1.5-.8-2.2,1.4.5,1.5.4,2.2-.8Z"/>
        <path class="st0" d="M325.3,843.1c-2.2,1.5-2.3,1.8-1.1,4.2-1.5-2.2-1.8-2.3-4.2-1.1,2.2-1.5,2.3-1.8,1.1-4.2,1.5,2.2,1.8,2.3,4.2,1.1Z"/>
        <path class="st0" d="M331.5,697.9c-1.1-2.2-1.3-2.3-3.6-1.6,2.2-1.1,2.3-1.3,1.6-3.6,1.1,2.2,1.3,2.3,3.6,1.6-2.2,1.1-2.3,1.3-1.6,3.6Z"/>
        <path class="st0" d="M283,995.8c1.1,1.5,1.3,1.6,3.1.7-1.5,1.2-1.6,1.3-.7,3.1-1.1-1.5-1.3-1.6-3.1-.7,1.5-1.2,1.6-1.3.7-3.1Z"/>
        <path class="st0" d="M284.5,739.8c.6-1.9.5-2.1-1.2-3,1.9.6,2.1.5,3-1.2-.6,1.9-.5,2.1,1.2,3-1.9-.6-2.1-.5-3,1.2Z"/>
        <path class="st0" d="M253.7,695c.6-1.9.5-2-1.2-3,1.9.6,2.1.5,3-1.2-.6,1.9-.5,2,1.2,3-1.9-.6-2.1-.5-3,1.2h0Z"/>
        <path class="st0" d="M187.3,1004.8c1.1-1.4,1.1-1.5,0-2.9,1.4,1.1,1.5,1.1,2.9,0-1.1,1.4-1.1,1.5,0,2.9-1.4-1.1-1.5-1.1-2.9,0Z"/>
        <path class="st0" d="M181.8,1028.2c.4-1.5.3-1.6-1.1-2.2,1.5.4,1.6.3,2.2-1.1-.4,1.5-.3,1.6,1.1,2.2-1.5-.4-1.6-.3-2.2,1.1Z"/>
        <path class="st0" d="M188.3,840.5c2.2-1,2.4-1.3,1.7-3.7,1,2.2,1.3,2.3,3.6,1.7-2.2,1-2.4,1.3-1.7,3.7-1-2.2-1.3-2.3-3.6-1.7Z"/>
        <path class="st0" d="M163.7,863.3c-.6,2.4-.5,2.6,1.8,3.6-2.4-.6-2.6-.5-3.6,1.8.6-2.4.5-2.6-1.8-3.6,2.4.6,2.6.5,3.6-1.8Z"/>
        <path class="st0" d="M152.4,682.4c1.7-.4,1.8-.5,1.8-2.3.4,1.7.5,1.8,2.3,1.8-1.7.4-1.8.5-1.8,2.3-.4-1.7-.5-1.8-2.3-1.8Z"/>
        <path class="st0" d="M151.8,674c0-1.4-.2-1.5-1.6-1.7,1.4,0,1.5-.2,1.7-1.6,0,1.4.2,1.5,1.6,1.7-1.4,0-1.5.2-1.7,1.6Z"/>
        <path class="st0" d="M98.5,951c-.1,1.8,0,1.9,1.7,2.4-1.8-.1-1.9,0-2.4,1.7.1-1.8,0-1.9-1.7-2.4,1.8.1,1.9,0,2.4-1.7Z"/>
        <path class="st0" d="M95.8,904.8c.8-.4.9-.5.6-1.4.4.8.5.9,1.4.6-.8.4-.9.5-.6,1.4-.4-.8-.5-.9-1.4-.6Z"/>
      </g>
      <g>
        <path class="st0" d="M1786.8,277.3c-1.2,1.3-1.2,1.5-.2,2.9-1.3-1.2-1.4-1.2-2.9-.2,1.2-1.3,1.2-1.5.2-2.9,1.3,1.2,1.4,1.2,2.9.2Z"/>
        <path class="st0" d="M1778.4,442.7c1.2,1.2,1.4,1.2,2.8.3-1.2,1.2-1.2,1.4-.3,2.8-1.2-1.2-1.4-1.2-2.8-.3,1.2-1.2,1.2-1.4.3-2.8Z"/>
        <path class="st0" d="M1751.7,419.7c-1.9-1.2-2.2-1.1-3.7.6,1.2-2,1.1-2.2-.6-3.7,1.9,1.2,2.2,1.1,3.7-.6-1.2,2-1.1,2.2.6,3.7Z"/>
        <path class="st0" d="M1729.6,312.1c-1.5-1.2-1.6-1.2-3.1,0,1.2-1.5,1.2-1.6,0-3.1,1.5,1.2,1.6,1.2,3.1,0-1.2,1.5-1.2,1.6,0,3.1Z"/>
        <path class="st0" d="M1698.1,174.1c-.4,2-.3,2.2,1.6,3-2-.4-2.2-.3-3,1.6.4-2,.3-2.2-1.6-3,2,.4,2.2.3,3-1.6Z"/>
        <path class="st0" d="M1666.6,195.1c.7-1,.7-1.2-.2-2.1,1,.7,1.2.7,2.1-.2-.7,1-.7,1.2.2,2.1-1-.7-1.2-.7-2.1.2Z"/>
        <path class="st0" d="M1667.7,395.7c-.6,1.4-.5,1.6.8,2.4-1.4-.5-1.6-.5-2.4.8.6-1.4.5-1.6-.8-2.4,1.4.5,1.6.5,2.4-.8Z"/>
        <path class="st0" d="M1661.5,457.5c-.3-1.5-.4-1.6-2-1.5,1.5-.3,1.6-.5,1.6-2,.3,1.5.4,1.6,2,1.5-1.5.3-1.6.5-1.6,2Z"/>
        <path class="st0" d="M1632.2,427.5c-.5-1-.6-1-1.6-.7,1-.5,1-.6.7-1.6.5,1,.6,1,1.6.7-1,.5-1,.6-.7,1.6Z"/>
        <path class="st0" d="M1604,407.7c-1.6-2-1.8-2-4.1-.9,2-1.6,2.1-1.8.8-4.1,1.6,2,1.8,2,4.1.9-2,1.6-2.1,1.8-.8,4.1Z"/>
        <path class="st0" d="M1575.5,215.6c-1.8,1.6-1.9,1.9-.6,4-1.7-1.8-1.9-1.9-4-.6,1.8-1.6,1.9-1.9.6-4,1.7,1.8,1.9,1.9,4,.6Z"/>
        <path class="st0" d="M1563.2,440.9c1.7,2.1,2,2.1,4.3.8-2.1,1.7-2.1,2-.8,4.3-1.7-2.1-2-2.1-4.3-.8,2.1-1.7,2.1-2,.8-4.3Z"/>
        <path class="st0" d="M1517,138.6c1.4,1.1,1.6,1.1,2.9-.1-1.1,1.4-1.1,1.6.1,2.9-1.4-1.1-1.6-1.1-2.9.1,1.1-1.4,1.1-1.6-.1-2.9Z"/>
        <path class="st0" d="M1507,162.5c-.8,1.9-.8,2.1.9,3.2-1.9-.8-2.1-.8-3.2.9.8-1.9.8-2.1-.9-3.2,1.9.8,2.1.8,3.2-.9Z"/>
        <path class="st0" d="M1469.6,413.1c1,1.2,1.1,1.3,2.5.5-1.2,1-1.3,1.1-.5,2.5-1-1.2-1.1-1.3-2.5-.5,1.2-1,1.3-1.1.5-2.5Z"/>
        <path class="st0" d="M1454.4,477.7c.4.9.5.9,1.4.6-.9.4-.9.5-.6,1.4-.4-.9-.5-.9-1.4-.6.9-.4.9-.5.6-1.4Z"/>
        <path class="st0" d="M1415.7,252.6c1.6,1.8,1.8,1.8,3.9.6-1.8,1.6-1.8,1.8-.6,3.9-1.6-1.8-1.8-1.8-3.9-.6,1.8-1.6,1.8-1.8.6-3.9h0Z"/>
        <path class="st0" d="M1376.3,254c-2.1-1.1-2.3-1.1-3.8.8,1.2-2.1,1.1-2.3-.8-3.8,2.1,1.1,2.3,1.1,3.8-.8-1.2,2.1-1.1,2.3.8,3.8Z"/>
        <path class="st0" d="M1350.1,416c-2.6-.2-2.8,0-3.5,2.5.2-2.6,0-2.8-2.5-3.5,2.6.2,2.8,0,3.5-2.5-.2,2.6,0,2.8,2.5,3.5Z"/>
        <path class="st0" d="M1328.8,153.4c1.1-2.1,1-2.3-.8-3.7,2.1,1.1,2.3,1,3.7-.8-1.1,2.1-1,2.3.8,3.7-2.1-1.1-2.3-1-3.7.8Z"/>
        <path class="st0" d="M1320.2,315.7c1.1,1.1,1.2,1.1,2.5.3-1.1,1.1-1.1,1.2-.3,2.5-1.1-1.1-1.2-1.1-2.5-.3,1.1-1.1,1.1-1.2.3-2.5Z"/>
        <path class="st0" d="M1305.6,169.4c1.7,0,1.8-.1,2.1-1.8,0,1.7.1,1.8,1.8,2.1-1.7,0-1.8.1-2.1,1.8,0-1.7-.1-1.8-1.8-2.1Z"/>
        <path class="st0" d="M1297.1,479c-2.5,0-2.7,0-3.2,2.5,0-2.5,0-2.7-2.5-3.2,2.5,0,2.7,0,3.2-2.5,0,2.5,0,2.7,2.5,3.2Z"/>
        <path class="st0" d="M1268.2,477.9c2.4.8,2.6.7,3.8-1.5-.8,2.4-.7,2.6,1.5,3.8-2.4-.8-2.6-.7-3.8,1.5.8-2.4.7-2.6-1.5-3.8Z"/>
        <path class="st0" d="M1239.2,361.6c-.6,1-.6,1.1.3,1.9-1-.6-1.1-.6-1.9.3.6-1,.6-1.1-.3-1.9,1,.6,1.1.6,1.9-.3Z"/>
        <path class="st0" d="M1191.8,441.1c0,1.3.2,1.4,1.5,1.6-1.3,0-1.4.1-1.6,1.5,0-1.3-.2-1.4-1.5-1.6,1.3,0,1.4-.1,1.6-1.5Z"/>
        <path class="st0" d="M1175.4,403.2c-1.3-.5-1.4-.5-2.2.7.5-1.3.5-1.4-.7-2.1,1.3.5,1.4.5,2.2-.7-.5,1.3-.5,1.4.7,2.1Z"/>
        <path class="st0" d="M1122.9,220.3c-1-.8-1.1-.8-2.1,0,.8-1,.8-1.1,0-2.1,1,.8,1.1.8,2.1,0-.8,1-.8,1.1,0,2.1Z"/>
        <path class="st0" d="M1078.7,268.9c0,1.7.1,1.8,1.8,2.1-1.7,0-1.8.1-2.1,1.8,0-1.7-.1-1.8-1.8-2.1,1.7,0,1.8-.1,2.1-1.8Z"/>
        <path class="st0" d="M1073.2,233.8c-.9,0-.9.1-1.1,1,0-.9,0-.9-1-1.1.9,0,.9-.1,1.1-1,0,.9,0,.9,1,1.1Z"/>
        <path class="st0" d="M1032.4,413.8c-.5,1.2-.4,1.4.7,2.1-1.2-.5-1.4-.5-2.1.7.5-1.2.4-1.4-.7-2.1,1.2.5,1.4.5,2.1-.7Z"/>
        <path class="st0" d="M986.9,412.2c-.6,1-.6,1.1.3,1.8-1-.6-1.1-.6-1.8.3.6-1,.6-1.1-.3-1.8,1,.6,1.1.6,1.8-.3Z"/>
        <path class="st0" d="M945.7,500.5c2.1-1.8,2.1-2,.7-4.4,1.8,2.1,2,2.1,4.4.7-2.1,1.8-2.1,2-.7,4.4-1.8-2.1-2-2.1-4.4-.7Z"/>
        <path class="st0" d="M924.7,195.8c2-.2,2.1-.4,2.2-2.4.2,2,.4,2.1,2.4,2.2-2,.2-2.1.4-2.2,2.4-.2-2-.4-2.1-2.4-2.2Z"/>
        <path class="st0" d="M885.7,437.6c-.5.7-.4.8.2,1.4-.7-.5-.8-.4-1.4.2.5-.7.4-.8-.2-1.4.7.5.8.4,1.4-.2Z"/>
        <path class="st0" d="M844.9,404.3c-.8,1.4-.8,1.5.4,2.6-1.3-.8-1.5-.8-2.6.4.8-1.4.8-1.5-.4-2.6,1.3.8,1.5.8,2.6-.4Z"/>
        <path class="st0" d="M801.4,467.6c-.6-1.7-.8-1.8-2.6-1.5,1.7-.6,1.8-.8,1.5-2.6.6,1.7.8,1.8,2.6,1.5-1.7.6-1.8.8-1.5,2.6Z"/>
        <path class="st0" d="M748.3,383.9c1.1,1,1.3,1,2.5,0-1,1.1-1,1.3,0,2.5-1.1-1-1.3-1-2.5,0,1-1.1,1-1.3,0-2.5Z"/>
        <path class="st0" d="M711.6,427.3c-2.2-.9-2.5-.8-3.7,1.2.9-2.2.8-2.5-1.2-3.7,2.2.9,2.5.8,3.7-1.2-.9,2.2-.8,2.5,1.2,3.7Z"/>
        <path class="st0" d="M677.8,400.6c-.8-.5-.9-.5-1.5.2.5-.8.5-.9-.2-1.5.8.5.9.5,1.5-.2-.5.8-.5.9.2,1.5Z"/>
        <path class="st0" d="M649.9,351.7c0-1.1-.1-1.2-1.2-1.4,1.1,0,1.2-.1,1.4-1.2,0,1.1.1,1.2,1.2,1.4-1.1,0-1.2.1-1.4,1.2Z"/>
        <path class="st0" d="M610.4,400c1,2.1,1.3,2.2,3.5,1.5-2.1,1-2.2,1.3-1.5,3.5-1-2.1-1.3-2.2-3.5-1.5,2.1-1,2.2-1.3,1.5-3.5Z"/>
        <path class="st0" d="M562.9,404.6c-2.3-.8-2.6-.7-3.8,1.5.8-2.4.7-2.6-1.5-3.8,2.3.8,2.6.7,3.8-1.5-.8,2.4-.7,2.6,1.5,3.8Z"/>
        <path class="st0" d="M552.2,499.8c-1.9-1.1-2.2-1-3.5.7,1.1-1.9,1-2.2-.7-3.5,1.9,1.1,2.2,1,3.5-.7-1.1,1.9-1,2.2.7,3.5Z"/>
        <path class="st0" d="M520.7,173.5c.2,2.4.4,2.6,2.8,2.8-2.4.2-2.6.4-2.8,2.8-.2-2.4-.4-2.6-2.8-2.8,2.4-.2,2.6-.4,2.8-2.8Z"/>
        <path class="st0" d="M482.5,351.3c-1.9.2-2,.3-2.1,2.2-.2-1.9-.3-2-2.2-2.1,1.9-.2,2-.3,2.1-2.2.2,1.9.3,2,2.2,2.1Z"/>
        <path class="st0" d="M455.7,346.2c.4,2.4.6,2.6,3,2.6-2.4.4-2.6.6-2.6,3-.4-2.4-.6-2.6-3-2.6,2.4-.4,2.6-.6,2.6-3Z"/>
        <path class="st0" d="M440.2,394.3c-.8,1.4-.8,1.5.4,2.6-1.4-.8-1.5-.8-2.6.4.8-1.4.8-1.5-.4-2.6,1.4.8,1.5.8,2.6-.4Z"/>
        <path class="st0" d="M395.9,208.4c.9-1.6.8-1.8-.6-2.9,1.6.9,1.8.8,2.9-.6-.9,1.6-.8,1.8.6,2.9-1.6-.9-1.8-.8-2.9.6Z"/>
        <path class="st0" d="M355.5,377.6c1.2-2.1,1.2-2.4-.7-3.9,2.1,1.2,2.4,1.2,3.9-.7-1.2,2.1-1.2,2.4.7,3.9-2.1-1.2-2.4-1.2-3.9.7Z"/>
        <path class="st0" d="M325.7,271.2c-.6-.9-.8-.9-1.7-.4.9-.6.9-.8.4-1.7.6.9.8.9,1.7.4-.9.6-.9.8-.4,1.7Z"/>
        <path class="st0" d="M293,447c1.3-.7,1.4-.8,1-2.2.7,1.3.8,1.4,2.2,1-1.3.7-1.4.8-1,2.2-.7-1.3-.8-1.4-2.2-1Z"/>
        <path class="st0" d="M279.3,482.8c-1,1.1-1.1,1.3-.1,2.5-1.1-1-1.3-1.1-2.5-.1,1-1.1,1.1-1.3.1-2.5,1.1,1,1.3,1.1,2.5.1Z"/>
        <path class="st0" d="M232.9,200.4c-2,1.7-2,2-.7,4.3-1.7-2-2-2-4.3-.7,2-1.7,2-2,.7-4.3,1.7,2,2,2,4.3.7Z"/>
        <path class="st0" d="M224.9,551.7c.9,0,1,0,1.1-.9,0,.9,0,1,.9,1.2-.9,0-1,0-1.1.9,0-.9,0-1-.9-1.2Z"/>
        <path class="st0" d="M183.1,376.4c1-2.1.9-2.4-1-3.7,2.1,1,2.4.9,3.7-1-1,2.1-.9,2.4,1,3.7-2.1-1-2.4-.9-3.7,1Z"/>
        <path class="st0" d="M170.4,325.7c-1.7-2-1.9-2.1-4.2-.8,2-1.7,2.1-1.9.8-4.2,1.7,2,1.9,2.1,4.2.8-2,1.7-2.1,1.9-.8,4.2Z"/>
        <path class="st0" d="M138,334.9c-1.1.4-1.1.5-.9,1.6-.4-1.1-.5-1.1-1.6-.9,1.1-.4,1.1-.5.9-1.6.4,1.1.5,1.1,1.6.9Z"/>
        <path class="st0" d="M98.3,517.2c1.4.5,1.6.5,2.3-.9-.5,1.4-.4,1.5.9,2.3-1.4-.5-1.6-.5-2.3.9.5-1.4.4-1.5-.9-2.3Z"/>
      </g>
      <g>
        <path class="st0" d="M1044.7,147.6c-2.3-.2-2.5,0-3.1,2.2.2-2.3,0-2.5-2.2-3.1,2.3.2,2.5,0,3.1-2.2-.2,2.3,0,2.5,2.2,3.1Z"/>
        <path class="st0" d="M887.4,356.7c-.3.9-.2.9.5,1.4-.9-.3-.9-.2-1.4.5.3-.9.2-.9-.5-1.4.9.3.9.2,1.4-.5Z"/>
        <path class="st0" d="M827.9,411.5c1.8,1.4,2,1.3,3.6-.2-1.3,1.8-1.3,2,.2,3.6-1.8-1.4-2-1.3-3.6.2,1.3-1.8,1.3-2-.2-3.6Z"/>
        <path class="st0" d="M884.8,229.9c-1.4-.9-1.6-.8-2.7.4.9-1.4.8-1.6-.4-2.7,1.4.9,1.6.8,2.7-.4-.9,1.4-.8,1.6.4,2.7Z"/>
        <path class="st0" d="M791.6,280.8c1.8-.5,1.9-.6,1.8-2.5.5,1.8.6,1.9,2.5,1.8-1.8.5-1.9.6-1.8,2.5-.5-1.8-.6-1.9-2.5-1.8Z"/>
        <path class="st0" d="M787,271.5c-1.1-1.3-1.3-1.3-2.8-.5,1.3-1.1,1.3-1.3.5-2.8,1.1,1.3,1.3,1.3,2.8.5-1.3,1.1-1.3,1.3-.5,2.8Z"/>
        <path class="st0" d="M873.9,98.8c1.5-2,1.5-2.3-.2-4.2,2,1.6,2.3,1.5,4.2-.2-1.5,2-1.5,2.3.2,4.2-2-1.6-2.3-1.5-4.2.2Z"/>
        <path class="st0" d="M688.5,317.9c1.6.5,1.8.4,2.5-1.1-.5,1.6-.4,1.8,1.1,2.5-1.6-.5-1.8-.4-2.5,1.1.5-1.6.4-1.8-1.1-2.5Z"/>
        <path class="st0" d="M803.1,104.9c.5-.8.5-.9-.3-1.6.8.5.9.5,1.6-.3-.5.8-.5.9.3,1.6-.8-.5-.9-.5-1.6.3Z"/>
        <path class="st0" d="M630.5,269.4c.9-2,.8-2.2-1-3.4,2,.9,2.2.8,3.4-1-.9,2-.8,2.2,1,3.4-2-.9-2.2-.8-3.4,1Z"/>
        <path class="st0" d="M692.9,153.8c.8.4.9.4,1.4-.3-.4.8-.4.9.3,1.4-.8-.4-.9-.4-1.4.3.4-.8.4-.9-.3-1.4Z"/>
      </g>
      <path class="st0" d="M1172,11.8c-1.7,0-1.8.2-2.1,1.9,0-1.7-.2-1.8-1.9-2.1,1.7,0,1.8-.2,2.1-1.9,0,1.7.2,1.8,1.9,2.1Z"/>
      <g>
        <path class="st0" d="M1174.3,216.6c.4,2.6.6,2.8,3.2,2.8-2.6.4-2.8.6-2.8,3.2-.4-2.6-.6-2.8-3.2-2.8,2.6-.4,2.8-.6,2.8-3.2Z"/>
        <path class="st0" d="M1116.6,192.9c-1.1,2.2-1.1,2.4.9,3.9-2.2-1.1-2.4-1.1-3.9.9,1.1-2.2,1.1-2.4-.9-3.9,2.2,1.1,2.4,1.1,3.9-.9Z"/>
        <path class="st0" d="M1179.6,49.6c.1,2.4.3,2.6,2.7,2.9-2.4.1-2.6.3-2.9,2.7-.1-2.4-.3-2.6-2.7-2.9,2.4-.1,2.6-.3,2.9-2.7Z"/>
      </g>
      <g>
        <path class="st0" d="M-137.8,864.6c-1.8-.9-2-.8-3.2.8.9-1.8.8-2-.8-3.2,1.8.9,2,.8,3.2-.8-.9,1.8-.8,2,.8,3.2Z"/>
        <path class="st0" d="M-83.4,829.1c-1.5.3-1.6.5-1.5,2-.3-1.5-.4-1.6-2-1.5,1.5-.3,1.6-.5,1.5-2,.3,1.5.4,1.6,2,1.5Z"/>
        <path class="st0" d="M-96.6,804.4c2,.8,2.2.8,3.4-1.1-.8,2-.8,2.2,1.1,3.4-2-.8-2.2-.8-3.4,1.1.8-2,.8-2.2-1.1-3.4Z"/>
        <path class="st0" d="M131.6,804.2c.4,1.8.6,1.9,2.4,1.8-1.8.4-1.9.6-1.8,2.4-.4-1.8-.6-1.9-2.4-1.8,1.8-.4,1.9-.6,1.8-2.4Z"/>
        <path class="st0" d="M-135.4,734.2c-.4,2.3-.3,2.5,2,3.3-2.3-.4-2.6-.3-3.3,2,.4-2.3.3-2.5-2-3.3,2.3.4,2.6.3,3.3-2Z"/>
        <path class="st0" d="M86.2,697.6c.4,1.7.5,1.8,2.3,1.8-1.7.4-1.8.5-1.8,2.3-.4-1.7-.5-1.8-2.3-1.8,1.7-.4,1.8-.5,1.8-2.3Z"/>
        <path class="st0" d="M-100.1,684c-1.1-.3-1.2-.3-1.7.7.3-1.1.3-1.2-.7-1.7,1.1.3,1.2.3,1.7-.7-.3,1.1-.3,1.2.7,1.7Z"/>
        <path class="st0" d="M65.5,638.5c.5,2.5.7,2.7,3.2,2.7-2.5.5-2.7.7-2.7,3.2-.5-2.5-.7-2.7-3.2-2.7,2.5-.5,2.7-.7,2.7-3.2Z"/>
        <path class="st0" d="M-185.1,575.2c.4,2.7.6,2.9,3.4,3-2.7.4-2.9.6-3,3.4-.4-2.7-.6-2.9-3.4-3,2.7-.4,2.9-.6,3-3.4Z"/>
        <path class="st0" d="M.3,582.7c1.2-1.6,1.2-1.8-.2-3.3,1.6,1.2,1.8,1.2,3.3-.2-1.2,1.6-1.2,1.8.2,3.3-1.6-1.2-1.8-1.2-3.3.2Z"/>
        <path class="st0" d="M160.1,565.2c-1.8-.5-1.9-.4-2.7,1.2.5-1.8.4-1.9-1.2-2.7,1.8.5,1.9.4,2.7-1.2-.5,1.8-.4,1.9,1.2,2.7Z"/>
        <path class="st0" d="M17.8,506.6c.4-1.7.3-1.9-1.3-2.5,1.7.4,1.9.3,2.5-1.3-.4,1.7-.3,1.9,1.3,2.5-1.7-.4-1.9-.3-2.5,1.3Z"/>
        <path class="st0" d="M105.8,508.5c-1.1-1.2-1.3-1.2-2.6-.3,1.2-1.1,1.2-1.3.3-2.6,1.1,1.2,1.3,1.2,2.6.3-1.2,1.1-1.2,1.3-.3,2.6Z"/>
        <path class="st0" d="M-104,492.2c1.8-.6,1.9-.8,1.6-2.6.6,1.8.8,1.9,2.6,1.5-1.8.6-1.9.8-1.6,2.6-.6-1.8-.8-1.9-2.6-1.5Z"/>
        <path class="st0" d="M146.1,478.3c.3,2.5.5,2.7,3.1,2.9-2.6.3-2.7.5-2.9,3-.3-2.5-.5-2.7-3.1-2.9,2.6-.3,2.7-.5,2.9-3Z"/>
        <path class="st0" d="M-73.6,467.9c-.1-1.4-.2-1.5-1.6-1.7,1.4-.1,1.5-.2,1.7-1.6.1,1.4.2,1.5,1.6,1.7-1.4.1-1.5.2-1.7,1.6Z"/>
        <path class="st0" d="M82.9,455.4c-.8,2.3-.7,2.5,1.4,3.7-2.3-.8-2.5-.7-3.7,1.4.8-2.3.7-2.5-1.4-3.7,2.3.8,2.5.7,3.7-1.4Z"/>
        <path class="st0" d="M168.5,444.1c.8-1.2.8-1.4-.2-2.4,1.2.8,1.4.8,2.4-.2-.8,1.2-.8,1.4.2,2.4-1.2-.8-1.4-.8-2.4.2Z"/>
        <path class="st0" d="M-121.6,423.3c-1.1-2.4-1.4-2.6-4-1.9,2.4-1.1,2.6-1.4,1.8-4,1.1,2.4,1.4,2.6,4,1.9-2.4,1.1-2.6,1.4-1.8,4Z"/>
        <path class="st0" d="M194.6,423.9c1,.2,1.1.2,1.5-.7-.2,1-.2,1,.7,1.5-1-.2-1.1-.2-1.5.7.2-1,.2-1-.7-1.5Z"/>
        <path class="st0" d="M131.7,368.3c-.8.3-.9.4-.7,1.3-.3-.8-.4-.9-1.3-.7.8-.3.9-.4.7-1.3.3.8.4.9,1.3.7Z"/>
        <path class="st0" d="M139.2,323.5c-1.4-.7-1.6-.6-2.5.7.7-1.5.6-1.6-.7-2.5,1.4.7,1.6.6,2.5-.7-.7,1.5-.6,1.6.7,2.5Z"/>
        <path class="st0" d="M26.3,269.6c.8.7.9.7,1.8,0-.7.8-.7.9,0,1.8-.8-.7-.9-.7-1.8,0,.7-.8.7-.9,0-1.8Z"/>
        <path class="st0" d="M-24.8,225.1c2.1,1,2.4.9,3.7-1-1,2.1-.9,2.4,1,3.7-2.1-1-2.4-.9-3.7,1,1-2.1.9-2.4-1-3.7Z"/>
        <path class="st0" d="M-118.4,191.2c-.9-1.2-1.1-1.2-2.4-.5,1.2-.9,1.2-1.1.5-2.4.9,1.2,1.1,1.2,2.4.5-1.2.9-1.2,1.1-.5,2.4Z"/>
        <path class="st0" d="M-35.3,169.9c.3.9.4,1,1.4.8-.9.4-1,.4-.8,1.4-.3-.9-.4-1-1.4-.8.9-.4,1-.4.8-1.4Z"/>
        <path class="st0" d="M94.3,132.8c-.9-1-1.1-1-2.3-.3,1-.9,1-1.1.3-2.3.9,1,1.1,1,2.3.3-1,.9-1,1.1-.3,2.3Z"/>
        <path class="st0" d="M220.9,126.4c-1.2,1.2-1.3,1.4-.3,2.8-1.2-1.2-1.4-1.3-2.8-.3,1.2-1.2,1.3-1.4.3-2.8,1.2,1.2,1.4,1.3,2.8.3Z"/>
        <path class="st0" d="M-10.1,23.8c2.3,1.2,2.5,1.1,4.1-.9-1.2,2.3-1.1,2.5.9,4.1-2.3-1.2-2.5-1.1-4.1.9,1.2-2.3,1.1-2.5-.9-4.1Z"/>
      </g>
      <g>
        <path class="st0" d="M2108.6,868.2c-.8.5-.8.6-.5,1.4-.5-.8-.6-.8-1.4-.5.8-.5.8-.6.5-1.4.5.8.6.8,1.4.5Z"/>
        <path class="st0" d="M1859.3,857.2c1.5,0,1.6-.1,1.9-1.6,0,1.5.1,1.6,1.6,1.9-1.5,0-1.6.1-1.9,1.6,0-1.5-.1-1.6-1.6-1.9Z"/>
        <path class="st0" d="M2134.2,790.2c.7-1.7.6-1.9-.9-2.8,1.7.7,1.9.6,2.8-.9-.7,1.7-.6,1.9.9,2.8-1.7-.7-1.9-.6-2.8.9Z"/>
        <path class="st0" d="M2111.6,750.2c0,1.2,0,1.3,1.3,1.6-1.2,0-1.4,0-1.6,1.3,0-1.2,0-1.3-1.3-1.6,1.2,0,1.4,0,1.6-1.3Z"/>
        <path class="st0" d="M1994.7,724.2c1,.6,1.1.6,1.9-.3-.6,1-.6,1.1.3,2-1-.6-1.1-.6-1.9.3.6-1,.6-1.1-.3-2Z"/>
        <path class="st0" d="M1995.9,705.8c.5,2.1.7,2.2,2.8,2-2.1.5-2.2.7-2,2.8-.5-2.1-.7-2.2-2.8-2,2.1-.5,2.2-.7,2-2.8Z"/>
        <path class="st0" d="M2086.1,662c2.2-.8,2.3-1,1.9-3.3.8,2.2,1.1,2.3,3.3,1.8-2.2.8-2.3,1-1.9,3.3-.8-2.2-1.1-2.3-3.3-1.8Z"/>
        <path class="st0" d="M2103.4,624.1c-1,.2-1.1.2-1.1,1.3-.2-1-.2-1.1-1.3-1.1,1-.2,1.1-.2,1.1-1.3.2,1,.2,1.1,1.3,1.1Z"/>
        <path class="st0" d="M1755.2,617.2c1.2-1,1.2-1.2.4-2.5,1,1.2,1.2,1.2,2.5.4-1.2,1-1.2,1.2-.4,2.5-1-1.2-1.2-1.2-2.5-.4Z"/>
        <path class="st0" d="M1933.7,567.4c1-.9,1-1,.3-2.1.9,1,1,1,2.1.3-1,.9-1,1-.3,2.1-.9-1-1-1-2.1-.3Z"/>
        <path class="st0" d="M2032.3,553.4c-1.7,2.1-1.7,2.4,0,4.5-2.1-1.7-2.4-1.7-4.5,0,1.7-2.1,1.7-2.4,0-4.5,2.1,1.7,2.4,1.7,4.5,0Z"/>
        <path class="st0" d="M1782,531.9c-.2-2.2-.4-2.4-2.6-2.5,2.2-.2,2.4-.4,2.5-2.6.2,2.2.4,2.4,2.6,2.5-2.2.2-2.4.4-2.5,2.6Z"/>
        <path class="st0" d="M1859.3,507.9c-1.3-1.5-1.4-1.5-3.1-.5,1.4-1.3,1.5-1.5.5-3.1,1.3,1.5,1.4,1.5,3.1.5-1.4,1.3-1.5,1.5-.5,3.1Z"/>
        <path class="st0" d="M1858.9,500.2c1.1,1.7,1.3,1.7,3.2.9-1.7,1.1-1.7,1.3-.9,3.2-1.1-1.7-1.3-1.7-3.2-.9,1.7-1.1,1.7-1.3.9-3.2Z"/>
        <path class="st0" d="M1980.4,458.6c.6,1.2.7,1.3,2.1.9-1.2.6-1.3.7-.9,2-.6-1.2-.7-1.3-2.1-.9,1.2-.6,1.3-.7.9-2Z"/>
        <path class="st0" d="M1936.4,449.1c-1.3-.3-1.4-.3-1.9.9.3-1.3.3-1.4-.9-1.9,1.3.3,1.4.3,1.9-.9-.3,1.3-.3,1.4.9,1.9Z"/>
        <path class="st0" d="M1846.4,443.2c1.5,1.3,1.7,1.3,3.2,0-1.3,1.5-1.3,1.7,0,3.2-1.5-1.3-1.7-1.3-3.2,0,1.3-1.5,1.3-1.7,0-3.2Z"/>
        <path class="st0" d="M2070.9,426.4c-2.3-.5-2.5-.4-3.4,1.8.5-2.3.4-2.5-1.8-3.4,2.3.5,2.5.4,3.4-1.8-.5,2.3-.4,2.5,1.8,3.4Z"/>
        <path class="st0" d="M1943.7,405.8c1.2-2.4,1.2-2.6-1-4.3,2.4,1.2,2.6,1.2,4.3-1-1.2,2.4-1.2,2.6,1,4.3-2.4-1.2-2.6-1.2-4.3,1Z"/>
        <path class="st0" d="M1754.5,362.1c-1.1-.8-1.3-.8-2.2.2.8-1.1.8-1.3-.2-2.2,1.1.8,1.3.8,2.2-.2-.8,1.1-.8,1.3.2,2.2Z"/>
        <path class="st0" d="M1896.6,354.6c-1.2-1.9-1.4-2-3.5-1.1,1.9-1.2,2-1.5,1.1-3.5,1.2,1.9,1.4,2,3.5,1.1-1.9,1.2-2,1.5-1.1,3.5Z"/>
        <path class="st0" d="M1875.5,337.7c-.2,1-.1,1.1.9,1.5-1.1-.2-1.1-.1-1.5.9.2-1,.1-1.1-.9-1.5,1.1.2,1.1.1,1.5-.9Z"/>
        <path class="st0" d="M2096.5,307.1c-.5.7-.4.8.2,1.4-.7-.5-.8-.5-1.4.2.5-.7.4-.8-.2-1.4.7.5.8.5,1.4-.2Z"/>
        <path class="st0" d="M1959.4,254.2c-1.1,0-1.2,0-1.4,1.1,0-1.1,0-1.2-1.1-1.4,1.1,0,1.2,0,1.4-1.1,0,1.1,0,1.2,1.1,1.4Z"/>
        <path class="st0" d="M1939.7,250.8c-.9.3-1,.4-.8,1.4-.3-.9-.4-1-1.4-.8.9-.3,1-.4.8-1.4.3.9.4,1,1.4.8Z"/>
      </g>
      <g>
        <path class="st0" d="M1997,965.7c-2.5-.5-2.7-.4-3.7,2,.5-2.5.4-2.7-2-3.7,2.5.5,2.7.4,3.7-2-.5,2.5-.4,2.7,2,3.7Z"/>
        <path class="st0" d="M1942,958.5c-2.1,1.6-2.2,1.8-1,4.2-1.6-2.1-1.8-2.2-4.2-1,2.1-1.6,2.2-1.8,1-4.2,1.6,2.1,1.8,2.2,4.2,1Z"/>
        <path class="st0" d="M1972.5,943.4c.5-1,.5-1.1-.4-1.8,1,.5,1.1.5,1.8-.4-.5,1-.5,1.1.4,1.8-1-.5-1.1-.5-1.8.4Z"/>
        <path class="st0" d="M1976.3,891.6c-1.3.8-1.4,1-.8,2.4-.8-1.3-.9-1.4-2.4-.8,1.3-.8,1.4-1,.8-2.4.8,1.3.9,1.4,2.4.8Z"/>
        <path class="st0" d="M1902.8,851c.1,2.7.3,2.8,3,3.2-2.7.1-2.8.3-3.2,3-.1-2.7-.3-2.8-3-3.2,2.7-.1,2.8-.3,3.2-3Z"/>
        <path class="st0" d="M1857.8,843.4c-1.5-2-1.8-2.1-4-1,2-1.5,2.1-1.8,1-4,1.5,2,1.8,2.1,4,1-2,1.5-2.1,1.8-1,4Z"/>
        <path class="st0" d="M1931.7,784.6c-1,1.4-1,1.6.2,2.9-1.4-1-1.6-1-2.9.2,1-1.4,1-1.6-.2-2.9,1.4,1,1.6,1,2.9-.2Z"/>
        <path class="st0" d="M1816.4,761.4c-.6-1.6-.8-1.7-2.5-1.3,1.6-.6,1.7-.8,1.3-2.5.6,1.6.8,1.7,2.5,1.3-1.6.6-1.7.8-1.3,2.5Z"/>
        <path class="st0" d="M1867.2,716.8c.2,2.7.4,2.9,3.1,3.2-2.7.2-2.9.4-3.2,3.1-.2-2.7-.4-2.9-3.1-3.2,2.7-.2,2.9-.4,3.2-3.1Z"/>
        <path class="st0" d="M1858.5,691.3c-.9.2-.9.3-.8,1.2-.2-.9-.3-.9-1.2-.8.9-.2.9-.3.8-1.2.2.9.3.9,1.2.8Z"/>
      </g>
      <path class="st0" d="M1371.6,495c.4.8.5.9,1.4.6-.8.4-.9.5-.6,1.4-.4-.8-.5-.9-1.4-.6.8-.4.9-.5.6-1.4Z"/>
      <path class="st0" d="M1321.2,503.6c2.4.4,2.6.2,3.4-2.1-.4,2.4-.2,2.6,2.1,3.4-2.4-.4-2.6-.2-3.4,2.1.4-2.4.2-2.6-2.1-3.4Z"/>
      <path class="st0" d="M1196.8,759.1c0-2.6-.2-2.8-2.8-3.1,2.6,0,2.8-.2,3.1-2.8,0,2.6.2,2.8,2.8,3.1-2.6,0-2.8.2-3.1,2.8Z"/>
      <path class="st0" d="M677.3,747.8c2.3,0,2.5-.2,2.8-2.5,0,2.3.2,2.5,2.5,2.8-2.3,0-2.5.2-2.8,2.5,0-2.3-.2-2.5-2.5-2.8Z"/>
      <path class="st0" d="M459.7,491.9c-1.3-.5-1.4-.4-2.1.8.5-1.3.4-1.4-.8-2.1,1.3.5,1.4.4,2.1-.8-.5,1.3-.4,1.4.8,2.1Z"/>
      <path class="st0" d="M727,644.9c.7-2.2.6-2.4-1.5-3.4,2.2.7,2.4.6,3.4-1.5-.7,2.2-.6,2.4,1.5,3.4-2.2-.7-2.4-.6-3.4,1.5Z"/>
      <path class="st0" d="M688.9,677.4c-1.7-.5-1.9-.5-2.7,1.1.5-1.7.5-1.9-1.1-2.7,1.7.5,1.9.5,2.7-1.1-.5,1.7-.5,1.9,1.1,2.7Z"/>
      <path class="st0" d="M676,510.9c-.8.7-.8.8-.3,1.7-.7-.8-.8-.8-1.7-.3.8-.7.8-.8.3-1.7.7.8.8.8,1.7.3Z"/>
      <g>
        <path class="st0" d="M572.4,677.6c.1,1.3.2,1.4,1.6,1.5-1.3.1-1.4.2-1.5,1.6-.1-1.3-.2-1.4-1.6-1.5,1.3-.1,1.4-.2,1.5-1.6Z"/>
        <path class="st0" d="M602.6,634.6c-.7,1.4-.7,1.5.6,2.5-1.4-.7-1.5-.7-2.5.6.7-1.4.7-1.5-.6-2.5,1.4.7,1.5.7,2.5-.6Z"/>
        <path class="st0" d="M694.5,655.8c-1.8,0-1.9.2-2.2,1.9,0-1.8-.2-1.9-1.9-2.2,1.8,0,1.9-.2,2.2-1.9,0,1.8.2,1.9,1.9,2.2Z"/>
        <path class="st0" d="M561.3,495c1.9,1.6,2.2,1.6,4,0-1.6,1.9-1.6,2.2,0,4-1.9-1.6-2.2-1.6-4,0,1.6-1.9,1.6-2.2,0-4Z"/>
        <path class="st0" d="M738.4,578.4c.2-2.8,0-3-2.6-3.7,2.8.2,3,0,3.7-2.6-.2,2.8,0,3,2.6,3.7-2.8-.2-3,0-3.7,2.6Z"/>
        <path class="st0" d="M829.3,588.2c.2,1,.3,1.1,1.4,1-1,.2-1.1.3-1,1.4-.2-1-.3-1.1-1.4-1,1-.2,1.1-.3,1-1.4Z"/>
        <path class="st0" d="M747,526.9c-1-1.6-1.2-1.7-3-.9,1.6-1,1.7-1.2.9-3,1,1.6,1.2,1.7,3,.9-1.6,1-1.7,1.2-.9,3Z"/>
        <path class="st0" d="M574.4,433.1c1.1.4,1.2.4,1.8-.7-.4,1.1-.3,1.2.7,1.8-1.1-.4-1.2-.4-1.8.7.4-1.1.3-1.2-.7-1.8Z"/>
        <path class="st0" d="M775.9,492.6c-1.4-1.4-1.5-1.4-3.2-.3,1.4-1.4,1.4-1.5.3-3.2,1.4,1.4,1.5,1.4,3.2.3-1.4,1.4-1.4,1.5-.3,3.2Z"/>
      </g>
      <g>
        <path class="st0" d="M688.2,1012.7c-.1-1.6-.2-1.7-1.8-1.8,1.6-.1,1.7-.2,1.8-1.8.1,1.6.2,1.7,1.8,1.8-1.6.1-1.7.2-1.8,1.8Z"/>
        <path class="st0" d="M649.3,974.5c.9-.2,1-.3.9-1.2.2.9.3,1,1.2.9-.9.2-1,.3-.9,1.2-.2-.9-.3-1-1.2-.9Z"/>
        <path class="st0" d="M627.9,967.6c0-.8,0-.9-.9-1.1.8,0,.9,0,1.1-.9,0,.8,0,.9.9,1.1-.8,0-.9,0-1.1.9Z"/>
        <path class="st0" d="M584.5,777.5c2.1-1.5,2.2-1.7,1.1-4.1,1.5,2.1,1.7,2.2,4.1,1.1-2.1,1.5-2.2,1.7-1.1,4.1-1.5-2.1-1.7-2.2-4.1-1.1Z"/>
        <path class="st0" d="M556.7,918.1c-1.1,1.2-1.1,1.4-.1,2.7-1.2-1.1-1.4-1.1-2.7-.1,1.1-1.2,1.1-1.4.1-2.7,1.2,1.1,1.4,1.1,2.7.1Z"/>
        <path class="st0" d="M544.2,1010c1.7.6,1.9.5,2.8-1.1-.6,1.7-.5,1.9,1.1,2.8-1.7-.6-1.9-.5-2.8,1.1.6-1.7.5-1.9-1.1-2.8Z"/>
        <path class="st0" d="M534.5,1021.6c1.6-1.5,1.6-1.8.3-3.6,1.5,1.6,1.8,1.6,3.6.3-1.6,1.5-1.6,1.8-.3,3.6-1.5-1.6-1.8-1.6-3.6-.3Z"/>
        <path class="st0" d="M477.9,1049.7c1.2-1.6,1.1-1.8-.2-3.2,1.6,1.2,1.8,1.2,3.2-.2-1.2,1.6-1.1,1.8.2,3.2-1.6-1.2-1.8-1.2-3.2.2Z"/>
        <path class="st0" d="M443.3,1016.9c-.9-.1-1,0-1.3.8.1-.9,0-1-.8-1.3.9.1,1,0,1.3-.8-.1.9,0,1,.8,1.3Z"/>
        <path class="st0" d="M400.4,1034.8c-.6,2.3-.5,2.6,1.7,3.6-2.4-.6-2.6-.5-3.6,1.7.6-2.3.5-2.6-1.7-3.6,2.4.6,2.6.5,3.6-1.7Z"/>
      </g>
      <g>
        <path class="st0" d="M993.4,765.5c.2-2,0-2.2-1.8-2.7,2,.2,2.2,0,2.7-1.8-.2,2,0,2.2,1.8,2.7-2-.2-2.2,0-2.7,1.8Z"/>
        <path class="st0" d="M936.6,983c1.4,0,1.5-.1,1.7-1.5,0,1.4.1,1.5,1.5,1.7-1.4,0-1.5.1-1.7,1.5,0-1.4-.1-1.5-1.5-1.7Z"/>
        <path class="st0" d="M948,701.2c.7-1.5.7-1.7-.7-2.7,1.5.7,1.7.7,2.7-.7-.7,1.5-.7,1.7.7,2.7-1.5-.7-1.7-.7-2.7.7Z"/>
        <path class="st0" d="M938.3,767c1.3-.3,1.4-.4,1.3-1.7.3,1.3.4,1.4,1.7,1.3-1.3.3-1.4.4-1.3,1.7-.3-1.3-.4-1.4-1.7-1.3Z"/>
      </g>
      <g>
        <path class="st0" d="M1186.7,829.8c.3,1.2.4,1.3,1.7,1.2-1.2.3-1.3.5-1.2,1.7-.3-1.2-.4-1.3-1.7-1.2,1.2-.3,1.3-.5,1.2-1.7Z"/>
        <path class="st0" d="M1156.2,773c-.7-.8-.8-.9-1.8-.3.8-.7.9-.8.3-1.8.7.8.8.9,1.8.3-.8.7-.9.8-.3,1.8Z"/>
        <path class="st0" d="M1223.2,932.8c-.6-.7-.7-.8-1.5-.3.7-.6.8-.7.3-1.5.6.7.7.8,1.5.3-.7.6-.8.7-.3,1.5Z"/>
        <path class="st0" d="M1104.8,703.6c.2-2.5.1-2.7-2.3-3.4,2.5.2,2.7.1,3.4-2.3-.2,2.5-.1,2.7,2.3,3.4-2.5-.2-2.7-.1-3.4,2.3Z"/>
      </g>
      <path class="st0" d="M1029.5,921.1c-1.4-.9-1.5-.9-2.7.3.9-1.4.9-1.5-.3-2.7,1.4.9,1.5.9,2.7-.3-.9,1.4-.9,1.5.3,2.7Z"/>
      <path class="st0" d="M1091.6,885.1c1.5,2,1.7,2,3.9,1-2,1.5-2.1,1.7-.9,3.9-1.5-2-1.7-2-3.9-1,2-1.5,2.1-1.7.9-3.9Z"/>
      <path class="st0" d="M1160.6,841.2c-.6-1-.7-1-1.7-.6.9-.6,1-.7.6-1.7.6,1,.7,1,1.7.6-.9.6-1,.7-.6,1.7Z"/>
      <path class="st0" d="M1153.5,841.2c-1.3.4-1.3.5-1.2,1.8-.4-1.3-.5-1.3-1.8-1.2,1.3-.4,1.3-.5,1.2-1.8.4,1.3.5,1.3,1.8,1.2Z"/>
      <path class="st0" d="M1100.9,1057c.5,1.3.6,1.3,2,1.1-1.3.5-1.3.6-1.1,2-.5-1.3-.6-1.3-2-1.1,1.3-.5,1.3-.6,1.1-2Z"/>
      <path class="st0" d="M1813.9,1055.8c1,0,1.1,0,1.3-1,0,1,0,1.1,1,1.3-1,0-1.1,0-1.3,1,0-1,0-1.1-1-1.3Z"/>
      <path class="st0" d="M699.2,778.3c.8.9.9,1,2,.3-.9.8-1,.9-.3,2-.8-.9-.9-1-2-.3.9-.8,1-.9.3-2Z"/>
      <path class="st0" d="M1290,818.1c-.8.2-.9.3-.8,1.2-.2-.8-.3-.9-1.2-.8.8-.2.9-.3.8-1.2.2.8.3.9,1.2.8Z"/>
      <g>
        <path class="st0" d="M1536.5,826.3c.6,2.6.8,2.7,3.4,2.5-2.6.6-2.7.8-2.6,3.5-.6-2.6-.8-2.7-3.4-2.5,2.6-.6,2.7-.8,2.6-3.5Z"/>
        <path class="st0" d="M1508.1,810.8c-.9,1.2-.9,1.3.1,2.4-1.2-.9-1.3-.9-2.4.1.9-1.2.9-1.3-.1-2.4,1.2.9,1.3.9,2.4-.1Z"/>
      </g>
      <path class="st0" d="M1012.8,313.7c1-.9,1-1,.3-2.1.9,1,1,1,2.1.3-1,.9-1,1-.3,2.1-.9-1-1-1-2.1-.3Z"/>
      <path class="st0" d="M902.2,224.9c.8-.7.8-.8.2-1.7.7.8.8.8,1.7.2-.8.7-.8.8-.2,1.7-.7-.8-.8-.8-1.7-.2Z"/>
      <path class="st0" d="M1180.9,209.9c-1.6.5-1.7.7-1.5,2.3-.5-1.6-.7-1.7-2.3-1.5,1.6-.5,1.7-.7,1.5-2.3.5,1.6.7,1.7,2.3,1.5Z"/>
      <path class="st0" d="M1133.4,227.9c-2.1.2-2.2.4-2.4,2.4-.2-2.1-.4-2.2-2.4-2.4,2.1-.2,2.2-.4,2.4-2.4.2,2.1.4,2.2,2.4,2.4Z"/>
      <path class="st0" d="M839,87.9c-.8,1.3-.7,1.4.4,2.4-1.3-.8-1.4-.7-2.4.4.8-1.3.7-1.4-.4-2.4,1.3.8,1.4.7,2.4-.4Z"/>
      <path class="st0" d="M763.4-42.4c1.5,1.6,1.7,1.7,3.6.5-1.6,1.5-1.7,1.7-.5,3.6-1.5-1.6-1.7-1.7-3.6-.5,1.6-1.5,1.7-1.7.5-3.6Z"/>
      <g>
        <path class="st0" d="M1290.8-85.5c1.3-.4,1.4-.6,1.2-1.9.4,1.3.6,1.4,1.9,1.2-1.3.4-1.4.6-1.2,1.9-.4-1.3-.6-1.4-1.9-1.2Z"/>
        <path class="st0" d="M1222.9,83.9c1.5-1.8,1.5-2,0-3.7,1.8,1.5,2,1.5,3.7,0-1.5,1.8-1.5,2,0,3.7-1.8-1.5-2-1.5-3.7,0Z"/>
        <path class="st0" d="M1195.5,177.8c.2,1.7.4,1.8,2.1,1.9-1.7.2-1.8.4-1.9,2.1-.2-1.7-.4-1.8-2.1-1.9,1.7-.2,1.8-.4,1.9-2.1Z"/>
        <path class="st0" d="M1191.2,110.7c1.7-1.5,1.8-1.7.6-3.7,1.5,1.7,1.7,1.8,3.7.6-1.7,1.5-1.8,1.7-.6,3.7-1.5-1.7-1.7-1.8-3.7-.6Z"/>
        <path class="st0" d="M1201.7-46.5c1-.9,1-1,.3-2.2.9,1,1,1,2.2.3-1,.9-1,1-.3,2.2-.9-1-1-1-2.2-.3Z"/>
        <path class="st0" d="M1124.3,154.7c-1.3-.1-1.4,0-1.8,1.3.1-1.3,0-1.4-1.3-1.8,1.3.1,1.4,0,1.8-1.3-.1,1.3,0,1.4,1.3,1.8Z"/>
        <path class="st0" d="M1166.4-47.5c-.5-2.2-.7-2.3-2.9-2.2,2.2-.5,2.3-.7,2.2-2.9.5,2.2.7,2.3,2.9,2.2-2.2.5-2.3.7-2.2,2.9Z"/>
        <path class="st0" d="M1086.2,193.8c.6-2.7.4-2.9-2.1-4,2.7.6,2.9.4,4-2.1-.6,2.7-.4,2.9,2.1,4-2.7-.6-2.9-.4-4,2.1Z"/>
        <path class="st0" d="M1077.7,174.1c1.2,1.5,1.4,1.5,3.1.6-1.5,1.2-1.5,1.4-.6,3.1-1.2-1.5-1.4-1.5-3.1-.6,1.5-1.2,1.5-1.4.6-3.1Z"/>
        <path class="st0" d="M1142.2-128.1c0,.9,0,1,.9,1.3-.9,0-1,0-1.3.9,0-.9,0-1-.9-1.3.9,0,1,0,1.3-.9Z"/>
        <path class="st0" d="M1086-64.1c0-1.8,0-2-1.8-2.4,1.8,0,2,0,2.4-1.8,0,1.8,0,2,1.8,2.4-1.8,0-2,0-2.4,1.8Z"/>
        <path class="st0" d="M1091.5-114.3c.8.8.9.8,1.8,0-.8.8-.8.9,0,1.8-.8-.8-.9-.8-1.8,0,.8-.8.8-.9,0-1.8Z"/>
        <path class="st0" d="M1059.2-171.4c1.3-.8,1.4-.9.8-2.4.8,1.3.9,1.4,2.4.8-1.3.8-1.4.9-.8,2.4-.8-1.3-.9-1.4-2.4-.8Z"/>
        <path class="st0" d="M986.4-33.8c-1,1.7-1,1.9.5,3.2-1.7-1-1.9-1-3.2.5,1-1.7,1-1.9-.5-3.2,1.7,1,1.9,1,3.2-.5Z"/>
        <path class="st0" d="M924.1,44.1c2-.1,2.1-.3,2.3-2.2.1,2,.3,2.1,2.2,2.3-2,.1-2.1.3-2.3,2.2-.1-2-.3-2.1-2.2-2.3Z"/>
        <path class="st0" d="M903.4,27.7c0,1.3,0,1.4,1.3,1.6-1.3,0-1.4,0-1.6,1.3,0-1.3,0-1.4-1.3-1.6,1.3,0,1.4,0,1.6-1.3Z"/>
        <path class="st0" d="M919.4-77.4c2.3-.4,2.5-.5,2.5-2.9.4,2.3.5,2.5,2.9,2.5-2.3.4-2.5.5-2.5,2.9-.4-2.3-.5-2.5-2.9-2.5Z"/>
        <path class="st0" d="M934.6-162.1c.5,1.3.6,1.4,2,1.1-1.3.5-1.3.6-1.1,2-.5-1.3-.6-1.4-2-1.1,1.3-.5,1.3-.6,1.1-2Z"/>
        <path class="st0" d="M853.6,9.4c.5,1.9.6,2,2.6,1.9-1.9.5-2,.6-1.9,2.6-.5-1.9-.6-2-2.6-1.9,1.9-.5,2-.6,1.9-2.6Z"/>
        <path class="st0" d="M850.6,7.8c-.8-.5-.9-.5-1.6.2.5-.8.5-.9-.2-1.6.8.5.9.5,1.6-.2-.5.8-.5.9.2,1.6Z"/>
        <path class="st0" d="M815.1-6.2c2.2-1.2,2.2-1.5,1.4-3.8,1.2,2.2,1.5,2.2,3.8,1.4-2.2,1.2-2.2,1.5-1.4,3.8-1.2-2.2-1.5-2.2-3.8-1.4Z"/>
        <path class="st0" d="M861.9-205.4c-2,1.3-2.1,1.5-1.2,3.7-1.3-2-1.5-2.1-3.7-1.2,2-1.3,2.1-1.5,1.2-3.7,1.3,2,1.5,2.1,3.7,1.2Z"/>
        <path class="st0" d="M835.1-205.2c1.3-2.2,1.3-2.5-.7-4.2,2.2,1.3,2.5,1.3,4.2-.7-1.3,2.2-1.3,2.5.7,4.2-2.2-1.3-2.5-1.3-4.2.7Z"/>
        <path class="st0" d="M770.3-67.6c-.6-2.6-.8-2.8-3.6-2.6,2.6-.6,2.8-.8,2.6-3.6.6,2.6.8,2.8,3.6,2.6-2.6.6-2.8.8-2.6,3.6Z"/>
        <path class="st0" d="M724.7,1.1c-.6-1.4-.7-1.4-2.2-1.1,1.4-.6,1.4-.7,1.1-2.2.6,1.4.7,1.4,2.2,1.1-1.4.6-1.4.7-1.1,2.2Z"/>
        <path class="st0" d="M766.2-160.6c-1.4-.6-1.5-.6-2.3.7.6-1.4.5-1.5-.7-2.3,1.4.6,1.5.6,2.3-.7-.6,1.4-.5,1.5.7,2.3Z"/>
        <path class="st0" d="M803.7-221.9c2,.7,2.2.6,3.2-1.3-.7,2-.6,2.2,1.3,3.2-2-.7-2.2-.6-3.2,1.3.7-2,.6-2.2-1.3-3.2Z"/>
      </g>
      <g>
        <path class="st0" d="M841.8,285.2c1.3,1.7,1.5,1.8,3.5.8-1.7,1.3-1.8,1.5-.8,3.5-1.3-1.7-1.5-1.8-3.5-.8,1.7-1.3,1.8-1.5.8-3.5Z"/>
        <path class="st0" d="M702.5,428.5c.8-1.6.7-1.8-.7-2.8,1.6.8,1.8.7,2.8-.7-.8,1.6-.7,1.8.7,2.8-1.6-.8-1.8-.7-2.8.7Z"/>
        <path class="st0" d="M818.3,258.4c0,1,.2,1,1.1,1.1-1,0-1,.1-1.1,1.1,0-1-.2-1-1.1-1.1,1,0,1-.1,1.1-1.1Z"/>
        <path class="st0" d="M741,337c-1.4,1.9-1.3,2.2.3,3.8-1.9-1.4-2.2-1.3-3.8.3,1.4-1.9,1.3-2.2-.3-3.8,1.9,1.4,2.2,1.3,3.8-.3Z"/>
        <path class="st0" d="M679.5,342c.4,1.1.5,1.1,1.6.9-1.1.4-1.1.5-.9,1.6-.4-1.1-.5-1.1-1.6-.9,1.1-.4,1.1-.5.9-1.6Z"/>
        <path class="st0" d="M568.7,385.4c1.1-2.3,1.1-2.6-1-4.1,2.3,1.1,2.6,1.1,4.1-1-1.1,2.3-1.1,2.6,1,4.1-2.3-1.1-2.6-1.1-4.1,1Z"/>
        <path class="st0" d="M740.5,163.2c1.1-.8,1.1-.9.5-2.2.8,1.1,1,1.1,2.2.5-1.1.8-1.1.9-.5,2.2-.8-1.1-1-1.1-2.2-.5Z"/>
        <path class="st0" d="M552.6,270c1,1,1.1,1,2.3.2-1,1-1,1.1-.2,2.3-1-1-1.1-1-2.3-.2,1-1,1-1.1.2-2.3Z"/>
      </g>
      <g>
        <path class="st0" d="M991.5,272.5c1.5-1.9,1.5-2.1-.1-3.9,1.9,1.5,2.1,1.5,3.9-.1-1.5,1.9-1.5,2.1.1,3.9-1.9-1.5-2.1-1.5-3.9.1Z"/>
        <path class="st0" d="M998.4,383.5c1.1,1.4,1.2,1.5,2.8.7-1.4,1.1-1.5,1.2-.7,2.8-1.1-1.4-1.2-1.5-2.8-.7,1.4-1.1,1.5-1.2.7-2.8Z"/>
        <path class="st0" d="M1044.6,165.4c.2-2.5,0-2.7-2.4-3.3,2.5.2,2.7,0,3.3-2.4-.2,2.5,0,2.7,2.4,3.3-2.5-.2-2.7,0-3.3,2.4Z"/>
        <path class="st0" d="M1072.2,282.8c1-1.6,1-1.8-.5-3.1,1.7,1,1.8,1,3.1-.5-1,1.6-1,1.8.5,3.1-1.7-1-1.8-1-3.1.5Z"/>
        <path class="st0" d="M1124.8,221.3c2.6.5,2.8.4,3.8-2-.5,2.6-.4,2.8,2,3.8-2.6-.5-2.8-.4-3.8,2,.5-2.6.4-2.8-2-3.8Z"/>
        <path class="st0" d="M1149.9,359.6c-1.8,1.3-1.9,1.6-.9,3.6-1.3-1.8-1.6-1.9-3.6-.9,1.8-1.3,1.9-1.6.9-3.6,1.3,1.8,1.6,1.9,3.6.9Z"/>
        <path class="st0" d="M1176.1,229c-.4.8-.4.9.3,1.4-.8-.4-.9-.4-1.4.3.4-.8.4-.9-.3-1.4.8.4.9.4,1.4-.3Z"/>
      </g>
      <g>
        <path class="st0" d="M1054.3,437.7c1.4-.9,1.4-1.1.8-2.6.9,1.4,1.1,1.4,2.6.8-1.4.9-1.4,1.1-.8,2.6-.9-1.4-1.1-1.4-2.6-.8Z"/>
        <path class="st0" d="M1033.8,347c-1.1.6-1.2.7-.8,1.9-.6-1.1-.7-1.2-1.9-.8,1.1-.6,1.2-.7.8-1.9.6,1.1.7,1.2,1.9.8Z"/>
        <path class="st0" d="M1024.9,332.2c.5-1,.5-1.1-.3-1.8.9.5,1.1.5,1.8-.3-.5,1-.5,1.1.3,1.8-.9-.5-1.1-.5-1.8.3Z"/>
        <path class="st0" d="M951.8,377c1.5,2.3,1.8,2.4,4.3,1.3-2.3,1.5-2.4,1.8-1.3,4.3-1.5-2.3-1.8-2.4-4.3-1.3,2.3-1.5,2.4-1.8,1.3-4.3Z"/>
        <path class="st0" d="M899.6,426.1c1.1.6,1.2.5,1.9-.4-.6,1.1-.5,1.2.4,1.9-1.1-.6-1.2-.5-1.9.4.6-1.1.5-1.2-.4-1.9Z"/>
      </g>
    </g>
  </g>
</svg>