<?xml version="1.0" encoding="UTF-8"?>
<svg id="Capa_1" xmlns="http://www.w3.org/2000/svg" version="1.1" viewBox="0 0 1558.11 158.46">
  <!-- Generator: Adobe Illustrator 29.0.0, SVG Export Plug-In . SVG Version: 2.1.0 Build 186)  -->
  <polygon points="0 158.46 0 0 750.86 0 707.76 158.46 0 158.46"/>
  <polygon points="787.89 158.46 833.17 0 791.06 0 745.72 158.46 787.89 158.46"/>
  <polygon points="871.89 158.46 917.17 0 875.06 0 829.72 158.46 871.89 158.46"/>
  <polygon points="955.89 158.46 1001.17 0 959.06 0 913.72 158.46 955.89 158.46"/>
  <polygon points="1039.89 158.46 1085.17 0 1043.06 0 997.72 158.46 1039.89 158.46"/>
  <polygon points="1123.89 158.46 1169.17 0 1127.06 0 1081.72 158.46 1123.89 158.46"/>
  <polygon points="1207.89 158.46 1253.17 0 1211.06 0 1165.72 158.46 1207.89 158.46"/>
  <polygon points="1291.89 158.46 1337.17 0 1295.06 0 1249.72 158.46 1291.89 158.46"/>
  <polygon points="1375.89 158.46 1421.17 0 1379.06 0 1333.72 158.46 1375.89 158.46"/>
</svg>