<?xml version="1.0" encoding="UTF-8"?>
<svg id="Capa_1" xmlns="http://www.w3.org/2000/svg" version="1.1" viewBox="0 0 156.4 155.4">
  <!-- Generator: Adobe Illustrator 29.0.0, SVG Export Plug-In . SVG Version: 2.1.0 Build 186)  -->
  <defs>
    <style>
      .st0 {
        fill: none;
      }
    </style>
  </defs>
  <path class="st0" d="M13.3,77.6c0,31.2,22.2,57.3,51.6,63.4V14.2c-29.4,6.1-51.6,32.2-51.6,63.4Z"/>
  <path class="st0" d="M143,77.6c0-31.2-22.2-57.3-51.6-63.4v126.9c29.4-6.1,51.6-32.2,51.6-63.4Z"/>
  <path d="M13.3,77.6c0-31.2,22.2-57.3,51.6-63.4V.9C28.3,7.2.3,39.2.3,77.6s28,70.3,64.6,76.7v-13.2c-29.4-6.1-51.6-32.2-51.6-63.4h0Z"/>
  <path d="M156,77.6c0-38.4-27.9-70.3-64.6-76.7v13.2c29.4,6.1,51.6,32.2,51.6,63.4s-22.2,57.3-51.6,63.4v13.2c36.6-6.3,64.6-38.3,64.6-76.7h0Z"/>
</svg>